<?xml version="1.0" standalone="no"?>
<!DOCTYPE svg PUBLIC "-//W3C//DTD SVG 20010904//EN"
 "http://www.w3.org/TR/2001/REC-SVG-20010904/DTD/svg10.dtd">
<svg version="1.0" xmlns="http://www.w3.org/2000/svg"
 width="1350.000000pt" height="912.000000pt" viewBox="0 0 1350.000000 912.000000"
 preserveAspectRatio="xMidYMid meet">
<metadata>
Created by potrace 1.10, written by Peter Selinger 2001-2011
</metadata>
<g transform="translate(0.000000,912.000000) scale(0.100000,-0.100000)"
fill="#000000" stroke="none">
<path d="M8905 9111 c3 -5 -6 -22 -20 -37 -14 -15 -25 -31 -25 -35 0 -5 -10
-9 -22 -9 -13 0 -41 -11 -64 -24 -22 -13 -54 -26 -70 -30 -32 -8 -87 -47 -121
-86 -42 -47 -49 -53 -98 -85 -16 -10 -37 -19 -45 -20 -27 -2 -50 -21 -69 -56
-10 -18 -32 -41 -49 -49 -61 -30 -339 -287 -359 -332 -7 -16 -17 -26 -25 -23
-8 3 -21 -8 -31 -27 -10 -18 -30 -42 -45 -52 -16 -10 -34 -32 -41 -47 -7 -16
-19 -29 -27 -29 -8 0 -19 -11 -24 -24 -5 -13 -30 -41 -55 -62 -26 -22 -55 -56
-66 -76 -11 -21 -26 -38 -35 -38 -20 0 -61 -45 -69 -77 -8 -32 -111 -151 -160
-184 -19 -13 -39 -36 -44 -51 -5 -14 -21 -34 -36 -44 -14 -9 -32 -29 -40 -43
-8 -14 -36 -50 -64 -78 -27 -29 -51 -56 -53 -60 -1 -5 -19 -19 -38 -33 -20
-14 -74 -65 -120 -115 -47 -49 -97 -97 -111 -106 -14 -9 -93 -83 -175 -165
-82 -82 -172 -166 -198 -186 -27 -21 -73 -69 -103 -108 -40 -52 -61 -70 -78
-70 -14 0 -29 -9 -35 -20 -6 -11 -17 -20 -25 -20 -8 0 -19 -9 -25 -19 -13 -25
-84 -72 -135 -90 -49 -16 -75 -38 -75 -62 0 -13 -15 -22 -54 -33 -29 -9 -60
-23 -67 -33 -8 -9 -33 -25 -56 -35 -23 -10 -45 -23 -48 -28 -3 -6 -20 -10 -37
-10 -17 0 -45 -8 -62 -19 -17 -10 -60 -21 -95 -25 -42 -4 -87 -17 -130 -38
-47 -23 -82 -33 -121 -34 -30 -1 -86 -10 -125 -20 -38 -10 -90 -18 -115 -18
-25 -1 -48 -5 -51 -10 -4 -5 -42 -11 -85 -13 -46 -3 -96 -13 -119 -23 -26 -12
-85 -22 -173 -29 -73 -6 -143 -16 -155 -23 -19 -11 -51 -14 -172 -17 -16 -1
-35 -4 -40 -9 -17 -12 -45 -60 -45 -77 0 -8 -6 -15 -13 -15 -23 0 -28 13 -12
30 23 25 3 37 -80 47 -66 8 -70 10 -78 38 -5 17 -13 38 -18 47 -5 10 -9 43 -9
74 0 30 -5 65 -12 77 -6 12 -15 48 -19 82 -15 105 -21 135 -30 141 -5 3 -9 18
-9 33 0 16 -6 47 -14 69 -21 58 -38 290 -40 537 -1 128 -6 218 -13 230 -6 11
-15 50 -21 86 -6 37 -20 85 -31 107 -11 22 -23 60 -26 84 -2 24 -9 59 -14 78
-5 19 -17 62 -26 94 -10 35 -14 73 -10 93 4 21 0 43 -10 62 -8 17 -15 44 -15
61 0 17 -7 44 -15 60 -9 17 -13 40 -10 53 4 13 0 43 -9 67 -8 25 -17 77 -21
117 -4 39 -13 80 -20 90 -8 11 -10 24 -5 34 13 24 -8 93 -38 122 -81 80 -151
136 -183 147 -44 16 -79 5 -131 -42 -18 -17 -49 -41 -68 -53 -52 -35 -120
-101 -120 -117 0 -8 -20 -29 -46 -47 -71 -52 -189 -173 -189 -195 0 -13 -9
-22 -25 -26 -17 -4 -27 -16 -34 -38 -5 -20 -15 -32 -26 -32 -9 0 -34 -25 -56
-56 -21 -31 -52 -69 -67 -86 -23 -25 -27 -35 -21 -65 4 -22 3 -34 -3 -30 -18
11 -73 -32 -80 -63 -3 -17 -10 -30 -16 -30 -8 0 -8 -3 -1 -10 14 -14 1 -99
-15 -110 -7 -4 -18 -18 -25 -31 -6 -13 -35 -37 -64 -52 -57 -31 -64 -49 -28
-72 32 -21 40 -44 21 -65 -8 -9 -15 -35 -15 -59 0 -28 -8 -54 -21 -73 -12 -17
-22 -47 -23 -67 -1 -34 0 -36 29 -33 47 5 58 20 53 74 -4 38 -2 49 12 53 11 3
20 26 28 68 7 34 16 80 20 102 5 22 27 74 50 116 23 42 42 85 42 97 0 12 13
35 30 52 16 17 30 39 30 49 0 10 9 26 20 36 11 10 20 24 20 30 0 7 7 18 15 25
8 7 15 20 15 29 0 9 23 40 50 69 28 30 50 62 50 72 0 9 7 24 16 31 9 7 20 23
25 36 6 15 17 23 33 23 28 0 48 17 82 72 13 21 29 38 36 38 6 0 70 60 143 133
101 104 134 143 143 175 11 37 16 42 42 42 21 0 36 -8 50 -28 12 -16 43 -41
69 -57 70 -40 85 -71 93 -190 3 -55 11 -122 17 -150 6 -27 17 -88 26 -135 8
-47 21 -103 29 -125 8 -22 15 -50 16 -61 0 -12 7 -37 15 -57 8 -19 19 -82 24
-139 9 -97 27 -157 67 -230 7 -14 14 -41 14 -60 0 -18 6 -42 14 -53 10 -15 14
-64 14 -200 2 -352 18 -566 52 -680 40 -133 49 -180 50 -247 0 -37 7 -93 15
-125 8 -31 13 -65 10 -75 -6 -18 29 -98 49 -110 18 -13 74 -9 112 7 20 8 47
12 61 9 22 -6 23 -8 8 -24 -10 -11 -12 -20 -6 -24 14 -9 153 14 170 28 8 6 44
11 80 12 36 0 95 6 131 13 36 7 97 16 135 21 101 13 194 28 240 41 49 13 96
22 250 50 66 12 132 28 147 35 15 8 43 14 62 14 20 0 50 6 68 14 18 8 62 22
98 31 36 9 79 21 95 26 17 6 44 14 60 19 17 4 65 24 109 44 43 20 85 36 92 36
7 0 29 14 47 30 19 17 38 30 43 30 19 0 151 76 205 118 33 26 75 56 93 67 17
11 41 28 51 37 11 10 49 43 85 74 176 154 478 449 510 500 9 16 28 38 41 50
33 29 138 140 239 254 46 52 112 125 145 161 131 143 196 216 229 259 31 40
44 55 77 87 4 4 66 71 136 148 201 220 451 463 539 524 27 19 54 40 59 46 24
27 243 198 276 215 19 10 42 26 49 35 8 10 39 28 70 41 30 14 60 30 65 37 14
16 164 63 250 78 91 15 97 17 90 29 -4 6 -73 10 -176 10 -103 0 -168 -4 -164
-9z"/>
<path d="M10740 9100 c0 -11 -4 -20 -9 -20 -12 0 -111 -80 -111 -90 0 -5 -19
-35 -42 -66 -36 -48 -44 -54 -46 -36 -2 12 -6 22 -9 22 -3 0 -31 -17 -63 -37
-32 -21 -84 -55 -116 -75 -33 -21 -68 -43 -79 -50 -11 -7 -37 -28 -58 -45 -20
-18 -43 -33 -51 -33 -8 0 -23 -11 -34 -25 -11 -14 -28 -25 -39 -25 -10 0 -40
-20 -66 -45 -27 -25 -54 -45 -61 -45 -19 0 -49 -37 -43 -54 8 -19 -3 -28 -19
-15 -7 6 -18 8 -24 4 -8 -5 -5 -12 7 -21 17 -13 14 -18 -37 -65 -49 -45 -56
-48 -67 -33 -11 15 -17 13 -59 -26 -92 -85 -224 -225 -224 -239 0 -11 3 -11
17 0 36 29 83 80 83 89 0 6 9 10 20 10 28 0 25 -14 -10 -41 -16 -13 -30 -29
-30 -36 0 -7 -11 -24 -25 -39 -14 -15 -25 -31 -25 -35 0 -5 -9 -13 -21 -19
-17 -10 -21 -8 -26 9 -7 27 -11 26 -40 -5 -29 -32 -25 -50 11 -46 28 3 36 -15
11 -24 -8 -4 -15 -13 -15 -21 0 -8 -13 -32 -30 -53 -16 -21 -30 -45 -30 -54 0
-9 -12 -21 -26 -26 -18 -7 -24 -15 -19 -29 7 -23 -19 -46 -42 -37 -33 13 -45
-44 -16 -76 13 -14 14 -21 5 -30 -9 -9 -15 -9 -24 0 -7 7 -15 12 -19 12 -3 0
-9 -44 -13 -97 -4 -54 -8 -110 -9 -124 -1 -14 -8 -34 -16 -43 -12 -14 -12 -21
-1 -41 11 -20 10 -30 0 -56 -13 -30 -14 -30 -21 -10 -17 45 -27 17 -34 -97 -6
-101 -4 -125 12 -174 11 -31 24 -63 30 -70 6 -7 13 -31 16 -53 5 -43 10 -59
64 -200 32 -84 38 -92 75 -110 32 -16 44 -29 55 -60 15 -45 98 -135 124 -135
9 0 33 -13 54 -30 21 -16 45 -30 54 -30 9 0 29 -7 45 -15 32 -17 66 -20 66 -6
0 5 -7 12 -16 15 -8 3 -12 10 -9 16 4 7 17 4 35 -7 27 -16 28 -18 14 -35 -15
-16 -14 -18 12 -30 16 -7 40 -20 53 -30 28 -21 40 -19 127 23 33 16 67 29 76
29 30 0 77 22 82 38 3 10 41 35 83 56 43 22 106 57 141 78 34 21 73 38 87 38
13 0 27 5 30 10 3 6 17 10 31 10 14 0 27 7 31 18 9 21 44 51 61 52 7 0 48 20
92 45 44 25 82 45 85 45 3 0 23 11 45 25 22 14 53 25 69 25 16 0 34 7 41 15 7
8 20 15 30 15 10 0 20 8 22 18 3 9 42 36 89 60 46 23 124 65 173 92 52 29 96
48 106 45 10 -3 23 1 30 10 7 8 25 15 41 15 22 0 29 5 29 19 0 21 15 35 48 46
13 4 51 23 85 43 34 20 94 52 132 72 39 20 82 44 97 54 15 9 35 16 45 14 10
-1 29 5 43 15 13 9 29 17 35 17 7 0 22 11 34 24 13 13 46 34 74 46 29 12 59
28 67 35 8 7 61 37 118 66 104 53 136 81 106 93 -17 7 -44 -5 -64 -28 -7 -9
-27 -16 -45 -16 -17 0 -35 -3 -39 -7 -4 -5 -22 -13 -39 -19 -27 -10 -36 -8
-61 9 -35 25 -57 15 -70 -32 -5 -17 -12 -31 -16 -31 -4 0 -19 -11 -34 -25 -18
-17 -37 -24 -56 -23 -19 1 -38 -6 -53 -20 -13 -12 -34 -22 -48 -22 -13 -1 -42
-12 -64 -25 -22 -14 -49 -29 -61 -34 -110 -49 -195 -98 -225 -131 -29 -30 -47
-40 -83 -45 -31 -5 -50 -14 -57 -27 -8 -14 -17 -18 -34 -14 -13 3 -29 0 -37
-7 -7 -7 -33 -21 -58 -32 -25 -11 -65 -34 -90 -52 -25 -17 -57 -37 -70 -43
-14 -6 -43 -21 -65 -35 -22 -13 -78 -43 -125 -65 -220 -108 -285 -143 -315
-169 -11 -10 -40 -23 -65 -30 -25 -7 -56 -21 -70 -30 -50 -33 -66 -41 -135
-75 -39 -19 -81 -46 -94 -60 -14 -14 -30 -26 -37 -26 -7 0 -40 -13 -74 -29
-95 -45 -131 -48 -186 -16 -36 21 -55 26 -85 22 -33 -4 -42 -1 -59 21 -12 14
-18 32 -15 39 5 15 -33 73 -48 73 -5 0 -6 -15 -3 -32 3 -18 8 -50 10 -70 2
-21 9 -45 16 -53 22 -27 4 -27 -53 0 -71 34 -119 80 -150 147 -14 29 -40 67
-57 83 -42 40 -66 82 -74 129 -4 21 -17 51 -28 66 -12 17 -22 49 -25 81 -9
117 -7 288 5 369 7 47 16 108 20 136 4 29 14 60 22 69 10 12 14 37 12 80 -3
56 -1 64 17 70 15 4 22 18 27 53 3 27 16 58 29 72 34 39 65 99 65 126 0 19 8
28 33 39 43 18 64 42 85 101 15 43 80 124 100 124 23 0 122 121 122 149 0 15
6 21 24 21 12 0 37 10 54 23 84 60 110 83 125 109 9 15 23 28 31 28 8 0 24 13
35 29 12 16 34 32 50 36 16 3 35 13 42 21 6 8 18 14 26 14 12 0 13 8 8 39 -6
37 -5 39 15 34 13 -4 26 1 34 12 8 11 20 16 29 12 17 -6 77 36 77 54 0 5 -16
9 -35 9 -24 0 -35 5 -35 15 0 10 10 15 34 15 21 0 36 -6 40 -15 3 -10 19 -15
42 -15 29 0 44 8 74 38 20 20 40 46 44 57 3 11 25 28 47 39 22 10 44 28 49 41
5 12 22 27 39 33 17 6 31 17 31 25 0 8 11 22 25 31 22 14 25 22 19 51 -5 27
-2 35 15 44 25 14 30 71 6 71 -8 0 -15 -9 -15 -20z m-272 -291 c4 -21 -24 -49
-49 -49 -24 0 -24 14 -1 45 19 27 45 29 50 4z m-502 -346 c-11 -11 -17 4 -9
23 7 18 8 18 11 1 2 -10 1 -21 -2 -24z m-238 -205 c-5 -15 -48 -24 -48 -10 0
14 12 22 33 22 10 0 17 -5 15 -12z"/>
<path d="M10961 9032 c-12 -88 -5 -142 18 -142 12 0 18 34 26 148 6 76 5 82
-12 82 -16 0 -21 -13 -32 -88z"/>
<path d="M11060 9086 c0 -19 5 -38 10 -41 6 -3 10 -17 10 -29 0 -13 7 -40 15
-59 8 -20 15 -51 15 -68 0 -48 46 -121 73 -117 17 2 23 11 25 37 5 51 -35 164
-69 197 -23 22 -29 36 -29 71 0 39 -2 43 -25 43 -22 0 -25 -4 -25 -34z"/>
<path d="M11243 9083 c10 -58 27 -65 27 -10 0 37 -4 47 -16 47 -14 0 -15 -7
-11 -37z"/>
<path d="M11311 9098 c0 -13 5 -48 10 -78 6 -30 13 -104 17 -164 8 -119 23
-147 42 -77 13 51 14 124 2 217 -6 39 -7 83 -5 98 5 24 3 26 -31 26 -31 0 -36
-3 -35 -22z"/>
<path d="M13200 9087 c0 -19 11 -54 25 -78 14 -24 32 -60 41 -79 39 -89 81
-164 101 -184 13 -11 23 -26 23 -33 0 -14 39 -43 58 -43 37 0 -53 221 -141
346 -31 45 -57 87 -57 93 0 6 -11 11 -25 11 -22 0 -25 -4 -25 -33z"/>
<path d="M10935 8765 l-29 -24 28 -10 c34 -14 66 -14 66 -2 0 18 -19 61 -27
61 -5 -1 -21 -12 -38 -25z"/>
<path d="M11120 8650 c0 -11 5 -20 10 -20 6 0 10 9 10 20 0 11 -4 20 -10 20
-5 0 -10 -9 -10 -20z"/>
<path d="M2905 8398 c-9 -22 4 -43 17 -30 7 7 7 16 0 29 -10 17 -11 17 -17 1z"/>
<path d="M13337 8294 c-4 -4 -41 -13 -82 -20 -42 -7 -90 -20 -107 -29 -17 -8
-46 -15 -64 -15 -19 0 -51 -7 -71 -15 -21 -8 -69 -21 -108 -29 -38 -8 -95 -22
-125 -31 -30 -9 -69 -19 -85 -24 -17 -4 -41 -13 -53 -20 -33 -17 -113 -41
-140 -41 -13 0 -36 -13 -51 -29 -22 -24 -36 -29 -90 -33 -51 -4 -67 -9 -80
-27 -11 -14 -32 -24 -59 -28 -23 -3 -47 -12 -53 -19 -6 -8 -17 -14 -23 -14
-39 0 -196 -117 -196 -146 0 -21 29 -17 48 6 10 11 49 31 87 44 132 45 170 59
230 87 67 30 289 109 380 135 33 9 89 28 125 42 36 13 83 27 105 29 22 2 56
10 75 18 57 21 145 45 166 45 10 0 51 9 89 21 39 11 84 25 101 30 17 5 56 9
87 9 53 0 57 2 57 24 0 20 -6 24 -46 30 -60 8 -109 8 -117 0z"/>
<path d="M9367 7923 c-4 -3 -7 -15 -7 -25 0 -10 -7 -21 -15 -24 -16 -6 -21
-44 -7 -44 5 0 17 17 28 38 10 20 22 39 27 40 4 2 7 8 7 13 0 10 -23 12 -33 2z"/>
<path d="M13084 7828 c9 -13 28 -43 43 -68 15 -25 41 -61 57 -82 17 -20 44
-61 60 -92 16 -30 36 -64 45 -73 22 -25 62 -82 134 -190 33 -51 64 -90 69 -87
4 3 8 30 8 60 0 40 -4 54 -14 54 -16 0 -96 108 -114 155 -7 17 -35 55 -63 85
-28 30 -56 70 -61 88 -11 40 -136 172 -162 172 -17 0 -17 -2 -2 -22z"/>
<path d="M12990 7806 c0 -25 87 -181 110 -198 16 -11 36 -36 46 -54 10 -19 22
-34 26 -34 5 0 8 -11 8 -25 0 -17 17 -43 50 -77 27 -28 61 -77 76 -109 15 -33
31 -59 35 -59 5 0 20 -19 34 -43 13 -24 37 -50 51 -58 14 -7 30 -24 35 -36 12
-31 39 -30 39 2 0 17 -6 25 -17 25 -16 1 -37 27 -96 124 -10 16 -33 48 -52 70
-18 23 -55 77 -81 121 -53 87 -60 98 -86 123 -10 9 -18 20 -18 25 0 16 -68
113 -114 161 -25 27 -46 46 -46 42z"/>
<path d="M12770 7740 c0 -5 -13 -10 -30 -10 -20 0 -30 -5 -30 -15 0 -8 6 -15
14 -15 18 0 76 49 59 50 -7 0 -13 -4 -13 -10z"/>
<path d="M12628 7677 c-41 -11 -52 -37 -15 -37 24 0 35 7 56 33 15 19 13 19
-41 4z"/>
<path d="M12530 7625 c0 -16 9 -19 34 -9 25 9 19 24 -9 24 -16 0 -25 -6 -25
-15z"/>
<path d="M12417 7570 c-51 -32 -58 -51 -28 -72 26 -19 58 -75 76 -135 11 -37
24 -57 49 -74 31 -21 66 -74 66 -100 0 -6 19 -36 43 -67 68 -90 91 -133 93
-176 2 -36 5 -41 32 -48 22 -6 43 -27 82 -85 81 -119 93 -136 116 -163 28 -32
114 -157 114 -165 0 -5 39 -64 50 -75 11 -11 50 -70 50 -75 0 -3 11 -18 25
-33 42 -45 31 -2 -22 85 -26 43 -49 80 -52 83 -14 12 -51 70 -51 79 0 5 -4 11
-8 13 -4 2 -19 21 -32 43 -13 22 -28 45 -33 50 -4 6 -23 33 -41 60 -18 28 -60
90 -94 140 -34 49 -62 95 -62 102 0 7 -3 13 -7 13 -5 0 -19 17 -33 38 -14 20
-30 41 -37 45 -7 4 -13 12 -13 17 0 11 -60 112 -126 211 -24 37 -44 71 -44 75
0 5 -23 35 -50 67 -77 90 -63 161 17 90 17 -16 38 -45 47 -66 8 -21 31 -57 50
-80 18 -23 48 -69 66 -102 18 -33 45 -76 60 -95 22 -28 224 -335 265 -401 6
-9 28 -44 50 -78 22 -34 61 -94 86 -134 25 -40 78 -121 116 -182 76 -118 96
-171 69 -181 -9 -4 -16 -18 -16 -35 0 -31 -33 -69 -62 -69 -20 0 -103 -30
-173 -64 -27 -13 -67 -31 -87 -40 -38 -16 -49 -38 -25 -53 6 -4 62 -8 122 -9
61 -1 166 -5 235 -10 69 -5 142 -8 163 -6 36 3 37 4 37 43 0 38 -1 39 -33 39
-19 0 -37 3 -40 6 -3 4 -36 8 -71 10 -87 3 -111 18 -64 39 12 6 25 21 28 35 4
16 16 28 35 34 17 5 44 15 62 22 17 8 43 14 57 14 24 0 26 3 26 45 0 53 -12
57 -52 18 -36 -35 -52 -26 -93 49 -59 110 -78 143 -109 189 -17 26 -49 77 -71
114 -22 36 -59 95 -82 131 -24 36 -43 69 -43 73 0 5 -9 16 -20 26 -11 10 -20
23 -20 28 0 6 -11 25 -25 43 -14 18 -25 35 -25 38 0 12 -95 164 -119 191 -15
17 -38 48 -51 70 -13 22 -38 58 -56 81 -18 23 -50 74 -71 114 -22 42 -53 84
-72 99 -57 44 -80 72 -87 107 -8 43 -25 43 -87 4z"/>
<path d="M12960 7420 c-14 -4 -37 -11 -52 -14 -58 -13 -76 -66 -35 -104 24
-23 51 -27 106 -16 24 5 37 16 52 45 11 22 24 39 29 39 16 0 11 26 -8 43 -20
18 -52 20 -92 7z"/>
<path d="M9420 7206 c-9 -24 -4 -295 6 -305 10 -10 23 24 17 44 -4 11 -6 80
-5 153 1 72 0 132 -3 132 -3 0 -10 -11 -15 -24z"/>
<path d="M2385 7177 c-9 -15 -14 -34 -10 -49 3 -13 2 -35 -4 -50 -7 -18 -6
-29 2 -37 9 -9 8 -16 -1 -31 -14 -23 -16 -126 -3 -134 21 -14 33 -237 15 -290
-9 -29 -10 -45 -2 -59 5 -11 14 -43 18 -71 14 -84 16 -91 34 -94 15 -3 16 19
12 300 -4 231 -9 315 -21 353 -21 69 -19 93 10 127 30 36 28 52 -8 56 -18 2
-30 -4 -42 -21z"/>
<path d="M11984 7160 c4 -19 19 -48 34 -65 33 -36 66 -83 75 -107 3 -10 36
-64 72 -120 65 -100 78 -120 172 -256 24 -35 43 -67 43 -71 0 -4 20 -37 44
-74 24 -36 46 -72 49 -80 3 -7 22 -40 43 -73 22 -32 43 -67 49 -76 28 -48 132
-217 152 -247 23 -34 31 -85 14 -95 -5 -3 -23 10 -40 29 -54 62 -56 43 -4 -44
20 -34 43 -61 52 -61 23 0 91 48 91 64 0 7 -13 32 -29 57 -16 24 -40 63 -53
86 -29 52 -104 177 -134 223 -38 59 -134 220 -134 225 0 3 -15 26 -34 52 -19
27 -49 75 -68 109 -33 61 -57 96 -110 159 -16 18 -36 50 -46 71 -22 48 -68
120 -82 129 -6 3 -22 29 -36 57 -15 29 -32 58 -40 66 -8 7 -14 18 -14 23 0 5
-12 15 -27 22 -16 6 -32 16 -36 22 -5 5 -6 -6 -3 -25z"/>
<path d="M11900 7129 c0 -35 28 -95 61 -129 20 -21 47 -60 59 -87 11 -26 36
-64 54 -83 46 -49 66 -81 66 -106 0 -12 11 -32 25 -45 13 -13 25 -28 25 -32 0
-5 19 -34 43 -65 24 -31 52 -73 63 -92 10 -19 31 -51 47 -71 15 -20 27 -39 27
-42 0 -3 23 -38 50 -78 28 -40 50 -76 50 -81 0 -7 51 -87 127 -198 29 -42 39
-51 41 -36 4 19 -23 80 -45 104 -7 7 -13 20 -13 28 0 8 -3 14 -8 14 -4 0 -16
17 -27 38 -11 20 -38 64 -61 97 -22 33 -65 101 -94 150 -30 50 -56 92 -59 95
-4 3 -28 39 -55 80 -26 41 -58 88 -69 105 -63 89 -104 154 -122 190 -11 22
-30 51 -41 65 -12 14 -36 52 -54 85 -39 74 -90 127 -90 94z"/>
<path d="M8986 7035 c17 -26 26 -30 37 -18 9 9 -23 43 -40 43 -11 0 -10 -5 3
-25z"/>
<path d="M11460 6904 c0 -20 16 -50 50 -94 15 -19 40 -58 56 -87 16 -28 57
-97 92 -153 34 -55 62 -104 62 -108 0 -4 13 -23 29 -42 27 -33 194 -304 254
-414 16 -28 40 -65 53 -83 13 -17 24 -35 24 -38 0 -4 27 -52 60 -107 67 -111
79 -157 42 -173 -20 -9 -22 -15 -17 -47 l7 -38 -43 0 c-30 0 -61 -10 -106 -35
-137 -75 -207 -143 -172 -166 21 -13 37 -11 67 9 57 39 138 89 154 95 41 15
98 59 98 75 0 13 13 21 44 30 24 6 56 22 71 34 l27 23 -37 55 c-21 30 -41 66
-46 79 -5 13 -18 35 -28 50 -10 14 -35 60 -56 101 -21 41 -62 111 -91 156 -29
44 -67 107 -84 139 -18 33 -51 89 -74 125 -24 36 -55 90 -69 120 -14 30 -41
71 -59 90 -40 42 -73 95 -82 132 -3 15 -22 44 -42 65 -20 21 -44 54 -53 73
-23 49 -88 137 -107 144 -22 9 -24 8 -24 -10z"/>
<path d="M7340 6875 c0 -16 5 -19 53 -29 33 -8 38 17 8 34 -29 15 -61 12 -61
-5z"/>
<path d="M11390 6846 c0 -24 23 -81 37 -89 7 -4 13 -13 13 -19 0 -5 11 -23 24
-39 13 -15 27 -46 31 -67 4 -28 19 -51 56 -87 27 -26 49 -52 49 -57 0 -24 59
-131 110 -198 31 -41 60 -82 63 -90 11 -24 92 -146 107 -160 10 -10 40 -72 40
-82 0 -6 14 -27 30 -48 17 -21 30 -43 30 -48 0 -6 6 -17 13 -24 7 -7 38 -52
70 -100 32 -49 62 -88 67 -88 16 0 11 26 -10 53 -11 14 -20 30 -20 36 0 6 -4
11 -9 11 -5 0 -13 9 -16 21 -4 11 -37 70 -73 130 -37 60 -72 117 -77 127 -6 9
-22 35 -35 57 -14 22 -30 48 -35 57 -6 9 -32 50 -60 90 -27 40 -58 89 -69 108
-10 19 -38 61 -62 93 -23 31 -58 90 -78 130 -19 39 -43 81 -53 92 -10 11 -35
52 -55 92 -44 86 -88 136 -88 99z"/>
<path d="M13363 6740 c-25 -11 -48 -30 -55 -45 -10 -23 -9 -29 18 -56 62 -62
144 -42 144 35 0 34 -32 86 -53 86 -7 0 -31 -9 -54 -20z"/>
<path d="M8112 6728 c6 -18 28 -21 28 -4 0 9 -7 16 -16 16 -9 0 -14 -5 -12
-12z"/>
<path d="M10986 6648 c15 -50 23 -64 48 -87 14 -14 26 -30 26 -37 0 -6 6 -17
14 -23 8 -7 17 -23 20 -37 4 -14 20 -46 37 -72 24 -37 120 -196 194 -320 33
-57 112 -187 120 -201 6 -9 23 -35 38 -58 15 -24 27 -45 27 -49 0 -10 73 -129
82 -132 4 -2 8 -8 8 -14 0 -6 27 -55 60 -110 46 -75 60 -108 60 -137 0 -25 -5
-41 -15 -45 -9 -3 -15 -18 -15 -36 0 -27 -6 -33 -57 -56 -32 -15 -69 -32 -83
-40 -97 -52 -121 -66 -148 -89 -18 -15 -39 -25 -48 -23 -19 3 -16 -1 -78 128
-56 115 -121 234 -150 275 -25 36 -49 78 -70 125 -9 19 -20 42 -25 50 -54 84
-121 201 -121 209 0 14 -18 46 -50 91 -14 19 -31 47 -39 61 -7 14 -23 38 -36
53 -13 15 -27 42 -30 59 -4 18 -15 41 -24 52 -36 43 -78 111 -84 135 -8 31
-75 110 -94 110 -21 0 -6 -47 36 -110 20 -30 39 -57 42 -60 3 -3 11 -20 17
-39 7 -19 27 -57 46 -85 18 -28 50 -81 70 -119 20 -37 61 -108 91 -158 30 -49
55 -92 55 -94 0 -4 171 -297 190 -325 6 -8 13 -22 17 -30 4 -8 40 -71 80 -140
77 -131 88 -171 53 -190 -13 -7 -20 -21 -20 -41 0 -23 -6 -32 -27 -40 -57 -22
-178 -84 -193 -99 -26 -26 -63 -50 -77 -50 -7 0 -23 21 -35 48 -60 134 -153
315 -207 402 -18 30 -42 75 -53 99 -10 24 -38 74 -62 110 -23 36 -53 90 -65
120 -13 30 -31 66 -41 80 -75 111 -120 185 -120 197 0 20 -61 127 -80 141 -9
6 -22 30 -30 52 -7 22 -31 59 -54 82 l-41 41 -3 -27 c-3 -18 8 -42 37 -80 22
-29 48 -73 58 -97 9 -24 43 -87 75 -141 32 -55 58 -101 58 -105 0 -3 20 -37
44 -76 24 -39 68 -116 97 -171 29 -55 69 -127 88 -160 20 -33 45 -78 56 -100
10 -22 24 -47 31 -55 6 -8 26 -42 44 -75 18 -33 40 -73 49 -90 9 -16 28 -47
44 -69 30 -44 37 -106 12 -126 -8 -7 -15 -23 -15 -37 0 -21 -12 -30 -85 -64
-46 -22 -87 -44 -90 -50 -11 -17 -84 -59 -103 -59 -18 0 -52 55 -52 84 0 16
-165 342 -204 404 -14 23 -26 45 -26 50 0 11 -70 144 -85 162 -7 8 -34 60 -60
115 -26 55 -56 109 -65 120 -10 11 -44 70 -77 132 -32 61 -68 123 -80 137 -13
14 -27 45 -32 67 -5 23 -19 51 -30 63 -11 12 -36 37 -56 57 -19 20 -38 50 -41
67 -8 37 -6 37 -50 16 -20 -10 -34 -24 -34 -35 0 -24 15 -32 30 -14 21 25 54
-1 74 -58 10 -29 30 -65 43 -82 23 -26 73 -124 73 -140 0 -4 9 -20 21 -36 11
-16 37 -62 58 -102 21 -39 47 -88 59 -107 28 -47 39 -67 106 -195 32 -60 62
-114 66 -120 4 -5 31 -55 60 -110 28 -55 63 -120 77 -145 14 -25 42 -78 63
-118 21 -40 48 -84 59 -99 25 -30 27 -89 6 -117 -8 -11 -15 -30 -15 -42 0 -17
-9 -25 -37 -34 -21 -7 -45 -18 -53 -25 -8 -7 -31 -20 -51 -28 -19 -8 -52 -29
-73 -47 l-37 -33 -24 23 c-14 13 -25 34 -25 48 0 13 -13 50 -29 81 -16 31 -52
103 -80 161 -83 171 -176 348 -193 367 -9 10 -26 41 -38 68 -47 105 -102 212
-129 249 -16 22 -36 62 -46 90 -10 28 -32 69 -50 91 -37 47 -65 97 -65 120 0
17 -45 90 -72 118 -10 10 -18 31 -18 47 0 38 -14 38 -74 -2 -58 -38 -67 -57
-38 -76 12 -8 22 -24 22 -36 0 -11 7 -30 15 -40 8 -11 15 -26 15 -34 0 -14 27
-41 43 -42 11 0 8 49 -4 73 -6 12 -20 32 -31 44 -21 22 -21 64 -1 70 7 3 24
-18 38 -46 14 -28 29 -51 33 -51 10 0 72 -114 72 -132 0 -8 13 -33 28 -54 16
-21 43 -70 62 -109 19 -38 47 -92 63 -120 33 -56 94 -170 204 -385 41 -80 78
-149 83 -155 4 -5 30 -55 59 -110 28 -55 60 -113 71 -130 21 -31 27 -99 10
-110 -5 -3 -10 -15 -10 -27 0 -23 -55 -78 -79 -78 -15 0 -117 -64 -152 -96
-21 -19 -30 -8 -53 70 -24 77 -73 184 -208 449 -20 40 -37 80 -37 89 -1 9 -17
37 -36 62 -19 26 -35 49 -35 52 0 15 -121 254 -129 254 -4 0 -18 24 -31 53
-55 124 -71 154 -98 185 -28 31 -72 142 -72 181 0 20 24 44 54 55 15 5 17 9 7
19 -10 9 -15 9 -24 -3 -30 -38 -43 -42 -81 -23 -33 15 -38 15 -52 1 -14 -14
-13 -20 12 -59 16 -24 39 -55 51 -68 25 -26 63 -104 63 -128 0 -8 11 -29 24
-46 13 -18 50 -83 82 -145 33 -63 80 -153 105 -200 26 -48 87 -166 136 -262
49 -96 120 -236 158 -310 74 -144 81 -174 53 -243 -11 -29 -27 -44 -64 -64
-27 -14 -68 -39 -91 -54 -23 -16 -48 -29 -56 -29 -20 0 -47 33 -47 59 0 12
-11 47 -25 77 -14 30 -25 59 -25 65 0 5 -16 40 -35 78 -19 37 -35 70 -35 74 0
4 -13 26 -30 49 -16 22 -30 45 -30 49 0 4 -14 37 -30 72 -16 36 -30 70 -30 75
0 6 -16 29 -35 52 -36 44 -40 52 -50 134 -9 67 -14 79 -30 66 -10 -8 -18 -2
-34 25 -11 20 -21 42 -21 49 0 7 -8 20 -18 29 -17 16 -45 72 -88 177 -11 25
-32 59 -47 77 -15 17 -36 55 -46 83 -10 28 -23 56 -30 63 -6 6 -11 25 -11 42
-1 56 -79 85 -95 34 -4 -10 -14 -19 -24 -19 -23 0 -66 -40 -76 -68 -7 -24 8
-29 34 -13 23 14 40 2 47 -34 3 -18 17 -42 30 -54 24 -21 39 -16 23 9 -11 18
-12 90 -1 90 18 -1 52 -39 72 -80 12 -25 26 -53 31 -62 5 -10 9 -23 9 -30 0
-6 6 -19 14 -27 13 -14 101 -180 177 -332 15 -31 45 -85 66 -120 22 -35 47
-86 57 -114 10 -27 27 -63 36 -80 38 -64 170 -327 170 -339 0 -7 11 -23 25
-36 31 -29 32 -70 4 -130 -19 -40 -34 -53 -113 -99 -96 -56 -114 -58 -127 -10
-4 13 -7 39 -8 57 -1 18 -11 49 -24 70 -13 20 -36 66 -51 102 -16 36 -50 106
-75 155 -26 50 -55 110 -66 135 -10 25 -24 52 -31 60 -14 18 -88 164 -138 273
-19 43 -46 92 -60 110 -13 18 -34 58 -46 89 -12 32 -26 60 -31 63 -5 4 -9 15
-9 25 0 10 -8 25 -19 32 -22 16 -51 70 -51 97 0 11 -9 36 -21 55 -23 40 -19
72 12 81 32 10 10 27 -27 20 -26 -4 -34 -2 -34 8 0 21 -25 28 -46 12 -17 -12
-17 -17 -6 -57 7 -23 16 -54 19 -68 6 -24 6 -24 -18 -9 -13 9 -27 31 -32 49
l-8 33 -28 -27 c-24 -23 -29 -24 -42 -11 -13 13 -20 12 -57 -16 -23 -17 -54
-51 -68 -75 -18 -31 -32 -44 -48 -44 -12 0 -73 -27 -135 -60 -62 -33 -116 -60
-120 -60 -4 0 -18 -11 -31 -25 -17 -18 -34 -25 -61 -25 -27 0 -41 -6 -51 -22
-9 -13 -35 -29 -61 -36 -25 -8 -53 -22 -63 -33 -9 -10 -28 -19 -42 -19 -14 0
-41 -12 -61 -27 -37 -29 -61 -42 -291 -160 -74 -38 -189 -98 -255 -133 -66
-35 -149 -79 -185 -98 -36 -18 -87 -47 -115 -63 -27 -16 -64 -36 -82 -44 -17
-8 -34 -19 -38 -25 -3 -5 -24 -10 -45 -10 -30 0 -44 -6 -62 -28 -19 -24 -73
-60 -198 -131 -16 -9 -16 -16 -3 -91 7 -38 13 -47 43 -62 45 -22 42 -22 74 5
16 14 29 38 32 59 5 31 3 38 -20 53 -33 22 -33 33 2 71 28 31 61 44 116 47 29
2 32 -1 59 -58 8 -16 22 -44 33 -62 18 -31 18 -32 -2 -60 -11 -15 -33 -34 -47
-41 -15 -7 -27 -17 -27 -23 0 -13 12 -11 35 5 11 7 34 17 52 20 28 7 33 4 46
-21 8 -15 18 -43 22 -61 4 -18 18 -52 31 -75 13 -23 24 -51 24 -61 0 -11 9
-29 20 -41 12 -12 32 -53 45 -91 14 -38 43 -104 65 -146 22 -42 40 -91 40
-109 0 -27 -27 -84 -75 -160 -59 -93 -76 -117 -94 -137 -12 -12 -21 -29 -21
-36 0 -7 -20 -44 -45 -82 -25 -37 -45 -80 -45 -94 0 -49 26 -122 86 -243 27
-54 32 -142 13 -211 -29 -105 -132 -186 -238 -186 -44 0 -59 -4 -68 -19 -9
-15 -9 -23 1 -36 13 -18 60 -18 154 1 l32 6 0 -55 c0 -47 3 -57 20 -62 11 -3
25 -15 30 -26 7 -12 21 -19 39 -19 34 0 81 60 81 104 0 29 0 29 -50 23 l-50
-6 0 30 c0 21 14 49 44 87 68 88 79 117 84 213 4 78 2 92 -22 139 -14 28 -26
59 -26 69 0 10 -11 27 -24 39 -28 24 -41 76 -33 128 6 37 65 139 182 313 74
112 92 157 82 209 -18 91 -31 121 -51 124 -16 2 -20 9 -18 28 5 44 -7 85 -43
140 -34 53 -37 68 -19 113 3 10 -4 16 -23 20 -24 5 -32 16 -52 69 -13 35 -32
74 -43 87 -10 13 -18 32 -18 43 0 24 52 78 75 78 14 0 273 129 300 150 6 4 73
40 150 80 77 40 159 85 183 101 24 16 53 29 65 29 21 0 97 65 97 83 0 16 -42
5 -82 -22 -24 -16 -74 -43 -113 -61 -38 -18 -77 -36 -85 -41 -8 -4 -49 -27
-90 -51 -41 -23 -106 -58 -145 -78 -125 -64 -250 -132 -266 -146 -8 -8 -21
-14 -27 -14 -6 0 -16 -9 -22 -20 -14 -26 -68 -28 -76 -2 -14 45 -51 105 -71
115 -13 6 -23 14 -23 19 0 13 42 68 53 68 10 0 108 49 280 139 62 32 157 82
212 111 156 82 209 111 226 126 8 8 29 14 46 14 19 0 38 9 54 26 22 24 79 54
101 54 7 0 9 -20 6 -51 -6 -60 1 -65 62 -49 58 16 92 51 88 92 -4 37 -23 48
-33 19 -8 -27 -21 -27 -35 0 -16 29 -5 49 25 49 14 0 28 7 32 16 8 20 86 56
114 52 17 -2 28 -15 38 -43 9 -22 26 -50 39 -62 13 -11 24 -34 25 -50 1 -15
12 -36 25 -46 12 -10 27 -39 33 -63 6 -24 24 -62 40 -84 16 -22 29 -50 29 -62
0 -12 8 -31 19 -42 10 -12 40 -68 66 -126 27 -58 60 -122 74 -143 17 -27 25
-53 25 -86 1 -51 -14 -80 -134 -259 -140 -210 -150 -230 -143 -281 3 -25 18
-67 34 -92 16 -25 29 -51 29 -58 0 -6 14 -38 30 -71 25 -49 30 -71 30 -127 -1
-79 -18 -123 -72 -182 -59 -64 -114 -84 -217 -78 -47 3 -95 7 -106 8 -12 3
-21 -2 -23 -13 -2 -13 3 -18 19 -18 12 0 30 -6 38 -13 23 -19 78 -35 147 -42
61 -7 62 -6 68 20 6 25 11 27 40 22 39 -6 58 10 120 101 48 71 60 120 52 210
-7 71 -38 152 -94 242 -15 23 -22 51 -22 82 0 52 12 75 156 294 44 65 87 137
98 158 31 66 17 124 -69 297 -41 82 -75 160 -75 173 0 13 -9 31 -20 41 -28 26
-114 201 -105 215 4 7 -6 26 -22 43 -17 18 -46 63 -67 100 -29 54 -34 72 -26
87 6 11 16 20 23 20 22 0 232 109 260 136 41 38 47 31 92 -104 24 -73 14 -93
-64 -122 -34 -12 -64 -27 -67 -31 -3 -5 -13 -9 -23 -9 -16 0 -49 -29 -65 -57
-9 -17 43 -7 87 17 60 31 137 83 137 91 0 5 12 9 26 9 14 0 40 12 58 27 l31
26 -28 -5 c-23 -5 -30 -1 -38 19 -18 47 -11 91 16 109 35 23 26 39 -17 36 -20
-2 -39 1 -42 7 -11 17 16 51 57 72 20 11 37 24 37 29 0 6 14 10 30 10 27 0 30
-3 30 -33 0 -21 8 -41 20 -52 19 -17 20 -17 26 24 8 49 14 55 41 36 32 -23 65
-98 61 -142 -2 -31 -7 -39 -26 -41 -14 -2 -29 4 -37 15 -13 17 -14 17 -21 0
-4 -13 0 -23 15 -34 16 -10 21 -22 17 -37 -5 -21 23 -66 41 -66 5 0 9 22 9 49
-1 56 4 65 33 56 21 -6 84 -121 96 -174 3 -17 17 -41 31 -53 13 -13 24 -26 24
-30 0 -8 100 -217 131 -273 29 -54 32 -60 106 -210 35 -71 68 -137 73 -145 6
-8 15 -26 20 -39 6 -13 24 -41 41 -62 25 -32 29 -44 24 -73 -4 -19 -20 -53
-36 -75 -24 -32 -39 -42 -77 -50 -45 -9 -48 -8 -112 34 -73 49 -105 79 -115
113 -3 12 -10 20 -14 17 -14 -8 1 -58 26 -91 12 -17 23 -34 23 -38 0 -20 50
-70 89 -87 56 -25 117 -24 159 1 18 11 37 18 41 15 5 -2 11 -73 14 -157 8
-220 44 -384 118 -546 16 -34 29 -66 29 -71 0 -13 123 -215 156 -256 16 -20
40 -49 54 -64 14 -15 54 -61 90 -101 70 -79 194 -190 257 -229 61 -39 157 -88
248 -127 46 -20 89 -42 96 -50 6 -8 25 -14 41 -14 40 0 138 -29 138 -41 0 -5
14 -9 30 -9 47 0 35 17 -24 34 -29 9 -59 22 -65 30 -16 19 -87 56 -108 56 -16
0 -116 53 -143 76 -9 8 -35 20 -59 29 -114 40 -402 313 -534 507 -52 76 -79
126 -106 193 -10 28 -35 91 -55 141 -20 51 -36 98 -36 107 0 8 -9 43 -20 77
-19 59 -33 151 -47 295 l-5 60 68 57 c37 31 80 60 96 63 16 4 41 22 56 41 16
21 36 34 50 34 12 0 40 11 62 25 22 14 61 31 87 37 42 12 103 56 114 83 6 17
101 75 121 75 29 0 137 59 196 106 29 24 62 46 75 49 12 3 31 10 42 14 11 5
33 14 48 20 19 8 27 16 23 26 -4 11 3 15 27 15 40 0 106 30 131 59 11 12 36
31 55 43 20 12 40 28 44 35 4 7 23 13 42 13 19 0 37 5 40 10 4 6 32 23 63 39
31 15 81 40 109 55 29 14 59 26 67 26 8 0 24 14 36 30 12 17 28 30 35 30 8 0
19 9 25 20 6 11 19 20 30 20 10 0 21 4 24 8 3 5 36 20 73 35 37 15 90 43 117
62 27 19 55 35 62 35 7 0 14 3 16 8 9 21 100 80 148 97 55 19 105 48 126 74
15 19 46 10 60 -18 7 -13 29 -30 50 -37 47 -16 56 -30 48 -74 -4 -19 -8 -82
-10 -140 -2 -78 -9 -121 -25 -165 -19 -50 -23 -83 -25 -195 -1 -74 -4 -153 -7
-175 -6 -53 18 -160 44 -194 11 -14 42 -54 70 -89 27 -35 49 -68 49 -74 0 -6
7 -20 17 -30 9 -10 21 -39 28 -65 15 -58 3 -110 -45 -195 -41 -75 -51 -111
-40 -149 11 -38 66 -121 116 -174 20 -22 50 -58 66 -79 28 -39 52 -58 137
-108 45 -26 46 -28 53 -90 6 -50 4 -64 -7 -71 -43 -24 3 -159 65 -195 21 -12
47 -36 57 -53 18 -30 113 -109 132 -109 5 0 12 24 16 52 7 50 6 54 -20 73 -15
11 -46 35 -67 53 -22 17 -46 32 -54 32 -18 0 -64 28 -81 49 -20 23 -16 38 21
78 39 44 66 94 66 121 0 33 -89 111 -175 155 -64 32 -102 68 -111 104 -10 41
-35 68 -103 114 -72 48 -76 67 -27 119 52 54 102 156 109 221 5 50 2 62 -24
107 -16 28 -47 68 -68 89 -22 21 -43 50 -46 65 -4 15 -19 35 -33 44 -67 42
-82 65 -82 121 0 30 6 66 14 81 8 16 19 55 25 87 10 52 8 67 -9 113 -26 69
-25 86 9 146 23 41 30 69 35 141 4 50 14 137 22 193 8 57 14 131 13 165 -2 64
16 123 45 147 22 17 20 38 -5 52 -12 7 -34 40 -50 73 -16 33 -42 83 -58 110
-17 28 -44 77 -62 110 -17 33 -46 83 -64 110 -49 75 -115 185 -115 191 0 3
-12 23 -28 43 -15 20 -43 68 -62 106 -19 39 -55 97 -79 129 -43 59 -91 145
-91 164 0 5 -7 15 -15 22 -8 6 -39 54 -69 106 -53 91 -105 154 -127 154 -6 0
-7 -9 -3 -22z m-2238 -1197 c3 -16 -1 -22 -10 -19 -7 3 -15 15 -16 27 -3 16 1
22 10 19 7 -3 15 -15 16 -27z m2902 -300 c0 -24 -18 -37 -31 -24 -13 13 -1 43
17 43 8 0 14 -9 14 -19z"/>
<path d="M9090 6585 c0 -8 2 -15 4 -15 2 0 11 -3 20 -6 23 -9 20 9 -4 24 -17
10 -20 10 -20 -3z"/>
<path d="M10940 6558 c0 -17 10 -45 23 -62 39 -53 64 -101 71 -138 4 -25 17
-44 41 -63 33 -24 35 -25 35 -6 0 28 -30 89 -61 123 -14 16 -34 52 -44 81 -33
93 -65 126 -65 65z"/>
<path d="M9190 6492 c0 -21 20 -62 30 -62 17 0 11 36 -10 55 -11 10 -20 13
-20 7z"/>
<path d="M9235 6410 c-6 -9 33 -50 48 -50 4 0 7 10 5 21 -3 23 -43 45 -53 29z"/>
<path d="M8479 6363 c-29 -21 -65 -42 -99 -58 -14 -6 -43 -20 -66 -30 -23 -11
-48 -32 -57 -47 -9 -16 -25 -28 -36 -28 -17 0 -65 -40 -153 -128 -109 -108
-144 -142 -152 -142 -16 0 -120 -73 -171 -120 -49 -44 -76 -64 -105 -77 -8 -3
-40 -30 -71 -58 -31 -28 -78 -62 -105 -74 -27 -13 -74 -43 -106 -67 -31 -24
-61 -44 -66 -44 -13 0 -128 -76 -137 -90 -3 -5 -14 -10 -24 -10 -10 0 -40 -11
-67 -25 -27 -14 -57 -25 -67 -25 -23 0 -57 -17 -80 -41 -10 -11 -29 -19 -42
-19 -14 0 -39 -9 -57 -20 -18 -11 -44 -20 -58 -20 -14 0 -42 -9 -62 -20 -20
-10 -74 -31 -120 -45 -46 -15 -90 -30 -98 -35 -9 -4 -49 -13 -90 -20 -41 -7
-92 -18 -113 -26 -20 -8 -54 -14 -75 -13 -20 0 -68 -7 -107 -16 -38 -10 -106
-21 -150 -25 -44 -4 -93 -13 -110 -19 -37 -15 -108 -30 -195 -41 -36 -5 -90
-14 -120 -20 -213 -43 -260 -53 -295 -66 -22 -7 -47 -13 -55 -12 -32 5 -166
-26 -192 -44 -14 -10 -43 -18 -65 -18 -21 0 -51 -9 -68 -20 -16 -11 -40 -20
-52 -20 -12 0 -24 -4 -28 -9 -3 -5 -22 -15 -43 -21 -20 -6 -62 -25 -93 -41
-31 -16 -62 -29 -67 -29 -6 0 -28 -11 -48 -25 -20 -14 -44 -25 -53 -25 -9 0
-38 -16 -65 -35 -27 -19 -57 -35 -66 -35 -10 0 -34 -13 -55 -30 -21 -16 -43
-30 -50 -30 -6 0 -22 -11 -35 -25 -13 -14 -49 -39 -79 -56 -31 -17 -66 -40
-77 -51 -19 -17 -23 -18 -37 -4 -8 9 -17 21 -19 28 -9 27 -28 -7 -28 -51 0
-35 -7 -57 -25 -82 -13 -19 -32 -45 -41 -59 -9 -14 -25 -37 -35 -51 -24 -36
-35 -79 -19 -79 19 0 70 40 70 55 0 8 9 19 21 25 11 7 57 45 102 87 89 81 169
145 232 183 22 13 76 47 120 76 44 28 91 55 105 59 14 4 52 22 85 41 33 18 87
42 120 54 33 12 105 39 160 61 55 21 127 46 160 55 33 9 110 29 170 46 99 27
155 41 280 67 101 22 205 42 265 51 36 5 92 16 124 25 33 9 71 13 85 10 14 -3
42 -1 61 5 46 14 170 37 243 46 31 3 60 10 63 15 3 5 24 9 47 9 23 0 60 8 82
18 22 10 76 26 120 37 44 10 109 28 145 40 112 38 215 77 225 85 6 4 53 25
105 45 52 21 102 44 110 51 8 6 36 23 61 36 98 49 166 88 214 123 28 19 74 51
103 71 30 19 59 39 65 45 7 5 53 38 102 74 50 36 107 79 128 96 21 17 73 57
115 88 42 32 83 65 91 75 12 14 113 99 180 151 7 5 36 31 65 56 61 54 178 134
249 170 41 20 61 25 100 21 49 -5 49 -5 45 24 -3 29 -4 29 -74 32 -55 2 -76
-1 -95 -15z"/>
<path d="M10482 6338 c18 -55 31 -82 51 -105 10 -11 21 -40 24 -64 5 -34 17
-54 55 -94 26 -27 48 -54 48 -58 0 -26 89 -184 128 -226 30 -33 35 -42 72
-121 11 -25 38 -70 60 -100 21 -30 56 -89 76 -130 21 -41 49 -93 63 -115 14
-22 34 -55 44 -74 10 -19 25 -41 33 -48 8 -8 14 -20 14 -26 0 -14 39 -51 47
-44 5 6 -56 125 -74 145 -7 7 -13 17 -13 21 0 13 -90 172 -106 188 -8 8 -14
18 -14 23 0 9 -84 153 -103 176 -6 9 -20 23 -29 32 -10 9 -18 24 -18 32 0 9
-4 20 -9 26 -5 5 -25 39 -44 76 -19 36 -40 72 -46 80 -41 47 -51 63 -51 75 0
7 -7 16 -15 19 -8 4 -15 16 -15 28 0 27 -32 94 -57 121 -24 25 -49 76 -58 114
-6 30 -47 81 -64 81 -6 0 -5 -12 1 -32z"/>
<path d="M9330 6332 c0 -14 23 -32 42 -32 21 0 23 11 6 28 -13 13 -48 16 -48
4z"/>
<path d="M8670 6297 c0 -7 18 -30 39 -51 65 -63 107 -202 126 -411 7 -82 34
-213 44 -220 4 -2 18 9 30 25 l21 30 -21 112 c-12 62 -25 145 -30 183 -11 95
-30 175 -48 205 -35 57 -88 114 -118 127 -40 16 -43 16 -43 0z"/>
<path d="M11120 6239 c0 -11 11 -37 25 -57 14 -20 25 -44 25 -53 0 -9 7 -22
15 -29 8 -7 15 -17 15 -22 0 -4 22 -37 48 -71 26 -34 58 -83 70 -109 11 -25
33 -58 47 -74 14 -15 25 -31 25 -36 0 -5 10 -24 23 -41 13 -18 32 -52 42 -77
10 -25 25 -50 32 -56 7 -6 13 -15 13 -19 0 -5 6 -16 14 -24 8 -9 22 -32 33
-51 27 -50 85 -130 95 -130 11 0 10 28 -2 35 -5 3 -22 30 -36 58 -30 60 -92
171 -116 207 -40 61 -98 161 -98 170 0 6 -15 27 -34 47 -18 21 -44 58 -57 82
-13 24 -28 51 -34 60 -5 9 -23 39 -39 66 -16 28 -33 53 -39 56 -10 7 -34 46
-43 72 -9 23 -24 22 -24 -4z"/>
<path d="M2436 6234 c-7 -18 12 -102 25 -110 5 -3 9 -16 9 -30 0 -15 6 -24 15
-24 23 0 65 -49 65 -76 0 -17 6 -24 20 -24 10 0 24 -9 30 -20 8 -15 17 -19 34
-14 18 4 29 -2 50 -27 22 -26 29 -30 37 -18 12 19 11 30 -6 59 -7 14 -21 40
-29 58 -10 21 -28 38 -50 47 -58 24 -126 102 -126 144 0 20 -34 51 -56 51 -7
0 -15 -7 -18 -16z"/>
<path d="M9450 6241 c0 -12 29 -35 36 -28 11 10 -5 37 -21 37 -8 0 -15 -4 -15
-9z"/>
<path d="M8530 6183 c-50 -18 -68 -84 -32 -116 24 -22 81 -21 109 2 52 43 33
122 -30 120 -17 0 -39 -3 -47 -6z"/>
<path d="M11476 6161 c-3 -5 11 -25 32 -46 30 -30 42 -35 66 -31 31 6 56 23
56 37 0 26 -140 63 -154 40z"/>
<path d="M10070 6141 c0 -11 5 -23 10 -26 6 -3 10 -17 10 -30 0 -13 8 -30 18
-37 10 -7 27 -35 37 -63 10 -27 22 -54 27 -59 4 -6 8 -18 8 -28 0 -10 13 -30
29 -45 30 -29 71 -110 71 -139 0 -19 28 -63 96 -154 53 -70 77 -118 70 -137
-4 -8 7 -27 26 -46 37 -38 98 -130 98 -150 0 -7 13 -31 29 -53 17 -22 42 -62
56 -90 14 -27 41 -71 61 -98 19 -28 39 -57 44 -65 5 -9 11 -13 14 -10 6 5 -75
170 -98 199 -6 8 -20 31 -30 50 -11 19 -31 53 -45 75 -14 22 -43 74 -64 115
-22 41 -49 88 -61 105 -25 35 -43 64 -52 85 -23 53 -52 104 -94 170 -52 79
-90 152 -90 170 0 16 -36 70 -71 108 -8 9 -24 44 -34 77 -23 79 -65 127 -65
76z"/>
<path d="M9568 6093 c-39 -6 -52 -63 -14 -63 16 0 66 45 66 60 0 10 -3 10 -52
3z"/>
<path d="M8982 5997 c-27 -16 -19 -27 20 -27 22 0 29 4 26 17 -4 22 -18 25
-46 10z"/>
<path d="M9680 5961 c0 -11 4 -22 9 -25 5 -3 12 -17 15 -32 4 -14 18 -38 31
-52 l25 -27 0 33 c0 36 -24 90 -49 109 -23 18 -31 16 -31 -6z"/>
<path d="M9035 5960 c-10 -17 46 -33 73 -21 13 6 20 16 17 21 -8 13 -82 13
-90 0z"/>
<path d="M9446 5954 c-17 -12 -17 -14 -4 -14 9 0 20 5 23 11 11 17 2 18 -19 3z"/>
<path d="M3875 5884 c-38 -8 -106 -22 -150 -30 -44 -9 -111 -23 -150 -31 -103
-23 -404 -113 -446 -134 -20 -10 -67 -23 -104 -29 -37 -6 -77 -17 -89 -25 -11
-8 -28 -15 -37 -15 -9 0 -24 -9 -34 -20 -17 -19 -17 -20 0 -26 12 -5 22 -1 31
11 19 26 64 13 64 -19 0 -36 35 -73 76 -79 40 -7 74 6 74 27 0 26 28 68 57 85
31 19 109 46 159 55 17 2 48 15 69 27 41 24 62 30 109 30 15 0 40 6 55 13 32
16 270 86 294 86 17 0 121 31 190 56 20 8 53 14 72 14 19 0 35 3 35 8 0 13
-204 10 -275 -4z"/>
<path d="M9594 5825 c-19 -14 -19 -14 3 -15 30 0 54 10 47 21 -8 13 -28 11
-50 -6z"/>
<path d="M9240 5810 c0 -5 -7 -10 -15 -10 -8 0 -15 -4 -15 -10 0 -16 15 -12
35 10 10 11 13 20 7 20 -7 0 -12 -4 -12 -10z"/>
<path d="M9771 5804 c-1 -34 40 -127 65 -149 13 -12 24 -26 24 -32 0 -6 7 -16
15 -23 8 -7 15 -25 15 -40 0 -15 11 -44 25 -64 14 -20 25 -41 25 -47 0 -9 38
-68 51 -79 4 -3 10 -16 14 -29 4 -14 11 -29 16 -35 42 -50 49 -61 49 -71 0
-18 58 -124 90 -165 15 -19 30 -45 34 -56 4 -12 15 -29 26 -39 11 -10 20 -24
20 -31 0 -7 12 -31 28 -54 24 -38 27 -40 30 -20 2 13 -1 25 -6 29 -5 3 -20 28
-32 56 -13 27 -33 63 -45 80 -12 16 -39 66 -61 110 -21 44 -51 95 -66 113 -16
18 -28 38 -28 44 0 6 -6 19 -13 27 -7 9 -22 36 -32 61 -17 40 -56 107 -107
188 -26 41 -45 84 -53 116 -3 17 -18 44 -33 61 -15 18 -32 40 -39 51 -11 18
-12 18 -12 -2z"/>
<path d="M12573 5793 c-11 -2 -42 -27 -67 -54 -37 -40 -49 -48 -64 -40 -13 7
-23 5 -38 -7 -27 -22 -89 -116 -72 -110 7 3 31 11 53 19 22 8 49 24 60 35 11
12 48 31 81 44 37 13 75 35 95 56 32 33 32 34 13 49 -20 15 -24 15 -61 8z"/>
<path d="M10631 5760 c-13 -11 -29 -20 -36 -20 -7 0 -18 -7 -25 -15 -10 -12
-9 -20 4 -40 15 -22 23 -25 69 -24 29 0 63 -1 77 -3 37 -5 37 29 0 80 -35 46
-53 51 -89 22z"/>
<path d="M2028 5668 c9 -9 15 -9 24 0 9 9 7 12 -12 12 -19 0 -21 -3 -12 -12z"/>
<path d="M8997 5634 c-10 -10 -9 -44 2 -44 5 0 11 -17 15 -37 6 -34 35 -83 50
-83 3 0 6 20 6 44 0 32 -6 50 -24 69 -14 15 -29 34 -34 42 -4 9 -11 12 -15 9z"/>
<path d="M9410 5617 c0 -45 36 -125 72 -158 21 -20 38 -36 38 -35 -2 28 -38
110 -60 138 -17 20 -30 41 -30 47 0 5 -4 13 -10 16 -5 3 -10 0 -10 -8z"/>
<path d="M8863 5550 c-31 -12 -30 -40 1 -40 14 0 30 10 40 25 15 23 15 25 -1
24 -10 0 -28 -4 -40 -9z"/>
<path d="M4132 5471 c2 -14 9 -26 16 -29 17 -5 15 10 -3 34 -15 18 -15 18 -13
-5z"/>
<path d="M3140 5466 c0 -14 36 -46 52 -46 15 0 8 27 -10 43 -23 21 -42 22 -42
3z"/>
<path d="M8545 5439 c-4 -6 -5 -13 -2 -16 7 -7 27 6 27 18 0 12 -17 12 -25 -2z"/>
<path d="M4180 5411 c0 -5 17 -24 38 -43 21 -18 50 -49 65 -69 29 -39 112 -89
146 -89 27 0 27 17 0 25 -11 4 -24 18 -29 31 -5 13 -16 24 -24 24 -27 0 -65
23 -71 42 -4 11 -16 18 -31 18 -13 0 -24 5 -24 10 0 14 -46 60 -60 60 -5 0
-10 -4 -10 -9z"/>
<path d="M9090 5399 c1 -38 73 -178 93 -179 10 0 9 38 -2 44 -5 4 -12 23 -16
44 -6 36 -23 64 -58 91 -14 11 -17 11 -17 0z"/>
<path d="M9530 5384 c0 -28 20 -85 36 -105 8 -8 14 -22 14 -30 0 -9 14 -31 30
-49 17 -19 33 -45 36 -57 4 -13 10 -23 14 -23 5 0 11 -13 15 -30 4 -16 11 -32
16 -35 5 -4 9 -17 9 -30 0 -12 7 -25 15 -29 8 -3 15 -11 15 -18 0 -8 15 -29
33 -48 18 -19 47 -66 65 -105 18 -38 37 -77 42 -85 5 -8 19 -34 31 -57 13 -24
26 -43 31 -43 13 0 9 33 -7 54 -8 11 -15 27 -16 35 0 9 -18 43 -39 76 -21 33
-55 94 -76 135 -21 41 -49 93 -62 115 -14 22 -54 95 -89 163 -34 67 -68 128
-73 135 -6 7 -17 21 -25 32 -14 20 -14 20 -15 -1z"/>
<path d="M4472 5258 c-8 -8 -9 -15 -1 -25 13 -15 32 -17 57 -4 9 5 25 12 35
15 10 3 15 10 12 16 -9 14 -88 13 -103 -2z"/>
<path d="M4640 5261 c-11 -8 -9 -12 13 -20 39 -15 49 -14 45 7 -4 19 -36 27
-58 13z"/>
<path d="M8780 5231 c0 -11 5 -23 10 -26 6 -3 10 -15 10 -27 0 -20 80 -151 88
-143 3 2 -3 22 -12 45 -9 22 -16 49 -16 61 0 28 -54 109 -72 109 -5 0 -8 -9
-8 -19z"/>
<path d="M7408 5190 c-67 -52 -23 -155 65 -152 57 1 109 85 79 128 -31 44
-103 57 -144 24z"/>
<path d="M9201 5185 c0 -16 8 -46 19 -65 36 -66 41 -85 35 -115 -16 -78 -17
-101 -2 -114 13 -10 23 -8 56 15 47 31 48 36 21 71 -11 14 -20 32 -20 39 0 18
-64 141 -90 174 l-20 25 1 -30z"/>
<path d="M8890 5008 c0 -30 44 -125 70 -153 16 -16 39 -50 50 -75 12 -25 28
-56 36 -70 7 -14 14 -37 14 -52 0 -17 13 -42 34 -65 18 -21 37 -49 41 -63 4
-14 21 -41 36 -61 16 -20 29 -41 29 -47 0 -30 101 -203 108 -184 2 7 -8 36
-21 65 -14 29 -28 64 -32 77 -3 14 -19 40 -35 59 -17 18 -30 40 -30 47 0 15
-17 48 -37 74 -6 8 -19 35 -29 60 -10 25 -31 63 -46 86 -15 22 -32 52 -38 65
-5 13 -14 31 -19 39 -12 20 -41 86 -41 95 0 4 -16 31 -36 61 -35 52 -54 67
-54 42z"/>
<path d="M8570 4901 c0 -12 5 -21 10 -21 6 0 10 6 10 14 0 8 -4 18 -10 21 -5
3 -10 -3 -10 -14z"/>
<path d="M8347 4890 c-3 -10 1 -27 9 -37 7 -10 14 -32 14 -48 0 -17 4 -35 9
-40 5 -6 11 -23 13 -40 2 -24 8 -31 31 -33 24 -3 27 0 27 28 0 22 -10 41 -35
67 -38 40 -43 58 -20 89 17 25 11 34 -21 34 -13 0 -24 -8 -27 -20z"/>
<path d="M6068 4853 c-25 -29 -30 -69 -12 -87 32 -32 52 -37 84 -21 51 26 69
94 31 115 -31 16 -86 12 -103 -7z"/>
<path d="M9377 4864 c-18 -18 -5 -64 28 -104 19 -23 35 -47 35 -54 0 -7 11
-23 25 -36 l25 -23 0 26 c0 15 -13 49 -30 75 -16 27 -30 53 -30 58 0 16 -45
66 -53 58z"/>
<path d="M11285 4850 c-10 -31 3 -90 20 -90 14 0 25 39 22 80 -3 32 -33 39
-42 10z"/>
<path d="M8600 4846 c0 -35 52 -149 80 -178 16 -16 32 -38 35 -51 4 -12 18
-45 31 -74 13 -28 24 -63 24 -76 0 -15 11 -35 28 -49 26 -22 72 -97 72 -118 0
-21 116 -241 133 -252 6 -3 15 -21 21 -40 6 -18 19 -34 29 -36 26 -5 21 29 -8
57 -14 13 -28 35 -31 50 -4 14 -19 50 -35 78 -16 29 -29 60 -29 68 0 8 -12 34
-27 58 -36 55 -80 140 -104 200 -11 27 -31 63 -44 81 -25 33 -77 142 -89 186
-9 36 -86 121 -86 96z"/>
<path d="M10310 4826 c0 -8 7 -21 15 -30 8 -8 15 -21 15 -29 0 -16 37 -53 46
-44 6 5 -21 51 -43 75 -7 7 -13 20 -13 28 0 8 -4 14 -10 14 -5 0 -10 -6 -10
-14z"/>
<path d="M11156 4779 c-52 -61 -23 -104 37 -56 25 21 26 26 16 55 -14 40 -21
40 -53 1z"/>
<path d="M7825 4720 c-4 -6 5 -10 19 -10 14 0 26 5 26 10 0 6 -9 10 -19 10
-11 0 -23 -4 -26 -10z"/>
<path d="M7725 4664 c-59 -30 -85 -52 -85 -71 0 -19 24 -16 45 7 10 11 35 25
56 32 37 11 57 34 42 49 -4 4 -30 -3 -58 -17z"/>
<path d="M7412 4653 c2 -10 14 -19 26 -21 19 -3 23 1 20 15 -2 10 -14 19 -26
21 -19 3 -23 -1 -20 -15z"/>
<path d="M8487 4644 c-20 -20 11 -133 46 -172 32 -34 40 -11 16 44 -12 27 -25
67 -28 88 -6 38 -20 54 -34 40z"/>
<path d="M8280 4630 c0 -5 7 -10 15 -10 8 0 15 5 15 10 0 6 -7 10 -15 10 -8 0
-15 -4 -15 -10z"/>
<path d="M9500 4625 c0 -22 21 -65 57 -117 18 -26 33 -51 33 -54 0 -3 8 -17
19 -30 28 -35 33 -17 7 25 -13 20 -28 52 -35 72 -13 41 -61 119 -73 119 -5 0
-8 -7 -8 -15z"/>
<path d="M7726 4585 c-23 -17 -66 -83 -66 -102 0 -12 7 -14 30 -10 16 4 32 2
35 -3 3 -6 18 -10 32 -10 47 0 99 82 76 119 -12 19 -83 23 -107 6z"/>
<path d="M6203 4490 c-29 -12 -43 -40 -43 -88 0 -32 5 -43 26 -57 48 -31 128
-3 136 49 6 35 -11 71 -41 89 -32 19 -45 20 -78 7z"/>
<path d="M3162 4400 c-12 -20 -16 -50 -7 -50 14 0 46 43 41 56 -7 19 -19 18
-34 -6z"/>
<path d="M7843 4402 c-42 -13 -73 -50 -73 -87 0 -19 3 -35 8 -35 4 0 23 19 42
41 19 23 45 45 57 50 13 5 23 15 23 24 0 16 -19 18 -57 7z"/>
<path d="M8600 4376 c0 -13 14 -54 30 -91 17 -37 30 -72 30 -78 0 -6 16 -25
35 -43 22 -20 35 -41 35 -56 0 -26 32 -63 43 -51 14 13 6 32 -29 79 -20 26
-47 79 -61 118 -13 39 -28 80 -32 91 -5 11 -12 28 -15 38 -8 26 -36 21 -36 -7z"/>
<path d="M7850 4340 c0 -5 -11 -26 -25 -46 -37 -54 -33 -77 15 -92 22 -6 46
-12 54 -12 25 0 66 59 66 96 0 40 -5 42 -31 12 l-18 -23 -1 31 c0 20 -6 34
-16 38 -23 9 -44 7 -44 -4z"/>
<path d="M7635 4301 c-27 -14 -69 -39 -92 -54 -24 -15 -49 -27 -57 -27 -8 0
-18 -4 -21 -10 -3 -5 -13 -10 -21 -10 -28 0 -194 -124 -194 -146 0 -25 21 -15
139 63 64 42 143 90 176 106 87 43 134 78 135 100 0 11 -11 7 -65 -22z"/>
<path d="M9350 4156 c0 -8 5 -18 10 -21 6 -3 10 3 10 14 0 12 -4 21 -10 21 -5
0 -10 -6 -10 -14z"/>
<path d="M6155 4135 c-22 -13 -47 -27 -55 -31 -27 -12 -183 -91 -260 -133 -41
-22 -124 -65 -185 -97 -60 -31 -135 -72 -165 -90 -30 -18 -62 -36 -70 -39 -8
-4 -22 -10 -30 -15 -16 -10 -84 -43 -140 -69 -19 -9 -39 -22 -43 -28 -4 -7
-13 -13 -18 -13 -6 0 -25 -10 -42 -23 -18 -13 -58 -36 -89 -52 -31 -15 -59
-34 -62 -41 -3 -8 -16 -14 -29 -14 -13 0 -41 -8 -63 -19 -105 -50 -152 -74
-179 -91 -16 -11 -37 -22 -45 -26 -69 -27 -100 -42 -130 -62 -19 -13 -62 -38
-94 -55 -110 -60 -126 -72 -126 -99 0 -24 -27 -35 -51 -19 -17 10 -21 8 -29
-15 -6 -14 -19 -28 -30 -31 -11 -3 -20 -14 -20 -24 0 -12 -18 -27 -56 -46 -49
-24 -59 -34 -80 -81 -13 -30 -24 -63 -24 -74 0 -11 -4 -27 -10 -37 -10 -19 5
-92 18 -90 4 0 18 14 32 32 19 24 25 43 25 84 0 37 6 59 19 75 l19 22 18 -22
c9 -12 19 -27 21 -32 3 -11 67 6 69 18 1 4 3 18 4 32 5 43 23 102 34 113 8 8
14 8 23 -1 21 -21 47 -13 64 19 8 17 13 41 10 54 -8 31 2 55 24 55 9 0 36 14
58 30 23 17 46 30 51 30 5 0 44 19 87 43 44 24 99 54 124 66 53 27 70 37 127
74 24 15 45 27 48 27 3 0 19 9 34 21 16 11 39 19 52 17 22 -3 24 -7 21 -55 -2
-47 0 -53 17 -53 11 0 23 -4 26 -10 10 -16 48 -11 71 8 26 20 67 99 59 112 -3
5 -21 12 -40 16 -20 3 -37 10 -40 14 -5 8 75 80 90 80 7 0 36 12 122 52 24 11
45 24 49 29 3 5 40 26 82 47 116 58 374 192 402 210 14 9 68 38 120 65 52 27
100 52 105 57 6 4 21 11 35 15 31 10 121 80 113 89 -11 11 -27 6 -68 -19z"/>
<path d="M7070 3986 c-12 -14 -35 -28 -51 -31 -15 -4 -33 -12 -39 -20 -6 -7
-22 -16 -35 -19 -14 -4 -25 -11 -25 -16 0 -15 16 -12 57 10 21 11 43 20 49 20
7 0 14 7 18 15 3 8 14 15 24 15 18 0 52 29 52 43 0 15 -28 5 -50 -17z"/>
<path d="M7723 3999 c-13 -5 -23 -13 -23 -19 0 -5 -6 -10 -14 -10 -7 0 -19 -7
-26 -15 -24 -29 23 -16 58 16 37 34 38 41 5 28z"/>
<path d="M6433 3969 l-53 -31 0 -60 c0 -44 6 -70 21 -95 19 -30 25 -33 53 -27
41 8 72 38 80 76 5 26 1 36 -29 64 -19 18 -35 36 -35 39 0 4 9 20 21 36 27 38
9 38 -58 -2z"/>
<path d="M7493 3880 c-35 -21 -41 -38 -21 -58 9 -9 9 -18 0 -37 -20 -44 -15
-74 14 -85 56 -22 110 -6 137 40 19 31 21 58 8 79 -13 21 -47 -3 -54 -39 -10
-47 -30 -38 -22 10 6 36 -10 110 -25 110 -3 0 -20 -9 -37 -20z"/>
<path d="M9583 3873 c-10 -16 -21 -31 -26 -34 -13 -10 -57 -141 -57 -171 0
-33 -25 -38 -35 -7 -4 12 -14 19 -23 17 -21 -4 -27 -62 -13 -128 l9 -45 1 45
c3 97 31 82 31 -17 0 -47 -3 -56 -20 -60 -16 -4 -19 -10 -14 -27 4 -11 10 -36
13 -54 7 -40 25 -43 29 -5 3 34 22 73 34 73 12 0 0 -60 -15 -79 -8 -10 -7 -16
5 -25 8 -6 19 -30 23 -54 4 -23 13 -49 21 -57 8 -7 20 -31 27 -52 8 -26 19
-39 33 -41 12 -2 26 -14 33 -28 13 -29 15 -84 3 -84 -14 0 -52 45 -52 62 0 34
-10 44 -40 40 -17 -2 -30 -6 -30 -9 0 -2 11 -19 25 -37 14 -18 25 -42 25 -52
0 -19 21 -55 47 -82 7 -7 13 -20 13 -29 0 -8 11 -24 24 -34 14 -11 26 -31 28
-46 2 -15 9 -28 16 -31 17 -5 15 45 -3 55 -19 11 -8 53 14 53 21 0 43 -14 39
-26 -1 -5 10 -28 25 -51 27 -43 57 -57 57 -28 0 8 5 24 12 35 11 17 5 26 -45
79 -31 33 -57 68 -57 78 0 11 -7 28 -15 39 -8 10 -15 38 -15 61 0 23 -5 45
-10 48 -6 4 -22 25 -36 47 -19 30 -24 49 -20 70 3 18 0 41 -10 59 -8 16 -13
33 -10 38 3 4 -4 26 -16 49 -15 31 -17 46 -9 55 6 8 10 50 9 98 -1 59 4 93 14
114 11 21 13 35 6 50 -8 17 -3 31 22 68 31 46 34 81 5 57 -16 -14 -35 -5 -35
16 0 23 -18 16 -37 -13z m113 -878 c18 -27 5 -45 -23 -34 -16 6 -23 17 -23 34
0 31 25 31 46 0z"/>
<path d="M6220 3866 c-183 -94 -260 -135 -295 -159 -22 -15 -47 -27 -57 -27
-9 0 -19 -4 -23 -10 -3 -5 -54 -33 -113 -62 -59 -28 -123 -64 -142 -79 -37
-28 -164 -89 -185 -89 -7 0 -24 -13 -37 -28 -13 -16 -36 -32 -51 -36 -15 -3
-27 -11 -27 -17 0 -5 -10 -14 -22 -19 -17 -6 -18 -9 -6 -9 9 -1 20 4 23 9 3 6
13 10 22 10 9 0 24 7 34 16 9 8 36 17 60 19 33 2 53 12 86 41 24 22 49 41 56
43 25 7 84 36 127 62 25 14 57 29 71 32 14 4 38 18 53 32 15 14 32 25 38 25 6
0 33 14 60 30 26 17 54 30 61 30 7 0 17 4 23 10 11 11 86 54 131 75 17 8 34
19 38 25 3 5 15 10 26 10 30 0 119 61 119 82 0 14 -23 9 -70 -16z"/>
<path d="M4969 3789 c-21 -23 -29 -41 -29 -68 0 -59 11 -67 62 -51 53 17 118
56 118 72 0 6 -16 26 -35 44 -44 44 -77 44 -116 3z"/>
<path d="M9448 3751 c-6 -43 8 -61 17 -21 4 18 3 36 -3 42 -6 6 -11 -1 -14
-21z"/>
<path d="M6538 3685 c-38 -26 -58 -70 -58 -127 0 -24 6 -29 54 -44 53 -17 53
-17 85 7 39 29 41 67 5 114 -14 18 -24 42 -22 51 5 28 -23 27 -64 -1z"/>
<path d="M8958 3635 c-67 -37 -35 -135 44 -135 49 0 78 28 78 75 0 29 -6 39
-32 55 -39 23 -54 24 -90 5z"/>
<path d="M7605 3596 c-26 -26 -29 -45 -18 -109 6 -40 17 -48 80 -60 41 -8 93
31 93 70 0 31 -18 65 -30 58 -16 -10 -68 23 -66 42 2 27 -31 27 -59 -1z m116
-97 c-9 -23 -10 -22 -10 11 -1 23 2 31 9 24 7 -7 7 -19 1 -35z"/>
<path d="M6285 3565 c-24 -15 -33 -25 -23 -25 22 0 88 31 88 42 0 14 -24 8
-65 -17z"/>
<path d="M3920 3562 c0 -5 20 -23 45 -41 61 -44 62 -20 1 27 -30 23 -46 28
-46 14z"/>
<path d="M3830 3495 c0 -55 51 -113 115 -129 l30 -8 -43 44 c-23 24 -50 58
-60 77 -22 44 -42 52 -42 16z"/>
<path d="M6195 3510 c-3 -5 -16 -10 -28 -10 -28 0 -92 -32 -126 -63 -14 -13
-38 -28 -53 -35 -16 -6 -28 -19 -28 -27 0 -24 33 -11 118 46 41 27 78 49 82
49 5 0 15 6 22 13 7 7 22 18 33 25 17 10 17 11 3 12 -9 0 -20 -4 -23 -10z"/>
<path d="M7775 3327 c-48 -15 -75 -46 -75 -84 0 -40 37 -83 72 -83 13 0 32 -3
44 -6 32 -9 84 48 84 92 0 26 -4 34 -18 34 -11 0 -24 11 -30 24 -13 28 -37 36
-77 23z"/>
<path d="M5180 3291 c-70 -44 -74 -51 -59 -117 16 -70 32 -88 72 -80 37 8 61
28 77 67 16 37 7 57 -30 70 -22 8 -30 17 -30 34 0 13 7 25 15 29 15 5 21 26 8
26 -5 0 -28 -13 -53 -29z"/>
<path d="M5765 3284 c-27 -19 -55 -34 -62 -34 -7 0 -13 -4 -13 -10 0 -14 20
-12 54 5 15 8 32 15 38 15 13 0 68 42 68 52 0 17 -37 5 -85 -28z"/>
<path d="M9460 3316 c0 -2 7 -17 15 -32 l15 -29 0 26 c0 15 -7 29 -15 33 -8 3
-15 4 -15 2z"/>
<path d="M4940 3175 c-25 -13 -52 -27 -60 -31 -77 -35 -162 -79 -166 -86 -3
-4 -13 -8 -23 -8 -10 0 -36 -12 -57 -28 -62 -43 -267 -141 -305 -145 -45 -5
-52 -41 -14 -77 14 -13 25 -29 25 -36 0 -7 9 -22 21 -33 31 -29 23 -73 -16
-82 -16 -3 -52 -27 -80 -53 l-50 -47 61 7 c58 6 62 5 69 -16 4 -13 3 -25 -4
-29 -16 -10 14 -67 39 -74 11 -3 27 -21 35 -41 9 -20 28 -42 45 -51 28 -14 30
-19 30 -71 0 -30 -5 -65 -11 -76 -10 -19 -7 -25 25 -51 20 -16 36 -37 36 -47
0 -16 30 -94 50 -132 5 -9 8 -56 6 -104 -3 -65 0 -94 10 -109 8 -11 19 -38 25
-59 6 -21 20 -51 31 -66 11 -15 22 -46 25 -68 3 -23 10 -42 14 -42 13 0 69 61
69 76 0 7 -13 22 -29 34 -27 18 -29 23 -20 49 14 41 -33 269 -61 292 -14 12
-16 19 -8 27 15 15 -4 80 -44 150 -24 42 -29 62 -26 97 2 31 -1 45 -9 45 -7 0
-13 10 -13 23 0 12 -16 47 -36 77 -20 30 -45 72 -56 93 -19 38 -19 40 -1 60
10 12 25 27 33 34 12 10 6 12 -37 13 -29 0 -53 3 -54 8 -1 4 -2 35 -4 68 -1
42 -10 75 -25 102 -27 47 -21 61 33 83 18 7 46 23 62 35 17 12 62 38 100 56
102 50 208 108 226 124 8 8 20 14 26 14 18 0 183 100 183 111 0 15 -21 10 -70
-16z"/>
<path d="M5561 3186 c-27 -8 -51 -22 -63 -39 l-20 -27 32 0 c36 0 59 11 95 44
42 39 34 43 -44 22z"/>
<path d="M6233 3193 c-30 -6 -73 -48 -73 -72 0 -69 61 -138 106 -121 45 17 83
92 52 102 -7 3 -17 24 -23 49 -11 44 -20 50 -62 42z"/>
<path d="M5990 3060 c0 -5 7 -10 15 -10 8 0 15 5 15 10 0 6 -7 10 -15 10 -8 0
-15 -4 -15 -10z"/>
<path d="M5326 3041 c-4 -5 -26 -19 -50 -31 -24 -11 -52 -32 -60 -45 -15 -23
-15 -28 4 -65 11 -21 20 -49 20 -61 0 -17 4 -20 23 -15 12 3 27 6 34 6 21 0
83 61 83 82 0 11 -11 33 -25 50 -29 34 -30 41 -10 58 8 7 15 16 15 21 0 12
-27 12 -34 0z"/>
<path d="M3560 2990 c-28 -24 -41 -28 -67 -24 -24 5 -33 3 -33 -8 0 -7 -12
-31 -26 -51 -14 -21 -23 -41 -19 -45 3 -4 9 -2 13 4 13 18 99 84 110 84 11 0
72 55 72 65 0 11 -17 3 -50 -25z"/>
<path d="M6329 2912 c-44 -29 -59 -49 -59 -80 0 -55 74 -118 118 -101 28 10
66 89 51 104 -7 7 -16 2 -29 -15 -19 -24 -20 -24 -20 -3 0 12 6 23 13 26 9 3
6 15 -9 43 -26 46 -32 49 -65 26z"/>
<path d="M8010 2883 c-25 -31 -32 -35 -40 -23 -5 8 -10 23 -10 33 0 18 -8 21
-34 11 -10 -4 -16 -18 -16 -40 0 -27 4 -34 19 -34 12 0 21 -10 26 -27 8 -34
21 -43 61 -43 60 0 104 84 70 135 -23 34 -39 31 -76 -12z"/>
<path d="M5655 2898 c-33 -18 -46 -39 -34 -55 6 -7 16 -13 21 -13 13 0 68 56
68 69 0 14 -29 14 -55 -1z"/>
<path d="M5040 2889 c0 -5 -13 -15 -30 -20 -37 -13 -40 -34 -4 -25 32 8 74 35
74 47 0 5 -9 9 -20 9 -11 0 -20 -5 -20 -11z"/>
<path d="M9860 2819 c0 -22 21 -49 38 -49 10 0 23 -5 30 -12 24 -24 13 19 -13
46 -24 26 -55 35 -55 15z"/>
<path d="M5666 2791 c-4 -5 -9 -31 -12 -58 -8 -57 -19 -73 -50 -73 -21 0 -24
-5 -24 -34 0 -47 -24 -99 -60 -129 -17 -15 -37 -42 -45 -61 -8 -19 -19 -37
-25 -41 -5 -3 -10 -12 -10 -20 0 -7 -17 -41 -37 -75 -35 -60 -36 -63 -21 -88
9 -15 20 -28 25 -29 9 -3 36 39 65 101 10 22 53 91 96 153 96 143 151 241 152
272 0 20 -35 91 -45 91 -2 0 -6 -4 -9 -9z"/>
<path d="M4834 2780 c-33 -13 -39 -30 -12 -30 24 0 48 16 48 32 0 10 -9 9 -36
-2z"/>
<path d="M4197 2773 c-12 -11 -8 -23 8 -23 8 0 15 7 15 15 0 16 -12 20 -23 8z"/>
<path d="M9750 2772 c0 -5 9 -17 20 -27 16 -14 20 -15 20 -4 0 16 -19 39 -32
39 -4 0 -8 -4 -8 -8z"/>
<path d="M4110 2730 c0 -5 -10 -12 -22 -16 -13 -3 -32 -20 -43 -37 -11 -18
-37 -40 -58 -50 -42 -19 -47 -39 -15 -61 15 -11 26 -12 40 -5 28 15 48 4 48
-26 0 -18 -5 -25 -20 -25 -11 0 -20 -7 -20 -15 0 -8 4 -15 9 -15 5 0 11 -12
14 -28 4 -19 15 -31 36 -39 37 -14 39 -27 7 -48 -26 -18 -25 -39 8 -100 22
-42 20 -60 -10 -82 -22 -16 -24 -22 -15 -46 6 -15 15 -27 21 -27 5 0 10 -6 10
-12 1 -32 16 -40 51 -25 19 8 54 21 78 28 49 15 59 30 44 69 -8 22 -6 31 13
55 27 34 24 44 -11 37 -34 -6 -55 14 -55 52 0 20 -12 48 -31 74 -27 37 -30 49
-27 96 2 34 -2 59 -10 69 -12 14 -11 21 7 50 25 41 27 82 5 91 -12 5 -14 10
-5 20 6 7 8 16 4 19 -10 11 -53 8 -53 -3z"/>
<path d="M9940 2720 c0 -11 7 -20 15 -20 8 0 15 9 15 20 0 11 -7 20 -15 20 -8
0 -15 -9 -15 -20z"/>
<path d="M4700 2705 c-7 -8 -23 -15 -35 -15 -12 0 -28 -6 -34 -14 -7 -8 -25
-18 -41 -21 -32 -7 -66 -40 -52 -49 10 -6 125 46 152 69 8 7 26 15 39 17 14 1
26 9 29 16 5 17 -43 15 -58 -3z"/>
<path d="M10216 2681 c-7 -11 18 -33 27 -24 4 3 7 12 7 20 0 15 -26 18 -34 4z"/>
<path d="M11841 2646 c-9 -10 -18 -13 -28 -7 -9 5 -34 4 -56 -1 -72 -16 -88
-47 -37 -68 17 -7 32 -11 33 -9 1 2 7 13 13 24 9 15 22 20 52 20 48 0 55 5 44
34 -7 20 -9 21 -21 7z"/>
<path d="M6421 2619 c-37 -37 -42 -86 -11 -114 11 -10 20 -24 20 -30 0 -51 95
-21 124 39 9 20 14 40 11 46 -20 33 -81 90 -96 90 -10 0 -31 -14 -48 -31z"/>
<path d="M5183 2623 c-18 -6 -16 -23 1 -23 17 0 30 16 19 23 -5 2 -14 2 -20 0z"/>
<path d="M10342 2608 c5 -15 28 -18 29 -3 0 6 -7 12 -17 13 -10 3 -15 -1 -12
-10z"/>
<path d="M11574 2595 c-10 -8 -44 -22 -74 -31 -30 -9 -64 -20 -76 -26 -12 -5
-32 -9 -45 -8 -52 5 -60 1 -50 -19 15 -28 -14 -52 -33 -26 -10 14 -17 15 -32
7 -54 -30 -351 -51 -396 -28 -15 7 -18 4 -18 -17 0 -28 22 -40 68 -37 49 4 57
1 44 -12 -7 -7 -12 -15 -12 -18 0 -11 113 2 140 15 14 7 62 13 108 13 70 0 87
4 105 21 15 14 39 21 77 23 46 2 57 7 65 25 8 19 15 22 47 17 23 -4 60 0 98
12 60 18 61 18 54 48 -12 56 -34 68 -70 41z"/>
<path d="M3829 2565 c-14 -7 -30 -25 -37 -39 -6 -14 -16 -26 -22 -26 -14 0
-13 -36 3 -61 10 -17 9 -22 -13 -40 -20 -16 -34 -19 -72 -14 -39 5 -48 3 -48
-10 0 -8 -6 -15 -12 -15 -7 0 -40 -14 -73 -30 -33 -16 -75 -33 -92 -36 -28 -5
-33 -3 -33 12 1 25 23 54 42 54 19 0 44 28 51 58 6 26 0 28 -25 5 -17 -15 -20
-15 -48 5 -16 12 -32 22 -35 22 -3 0 -23 12 -45 26 -52 34 -74 28 -138 -40
-28 -29 -62 -56 -76 -60 -32 -8 -64 -52 -48 -68 7 -7 16 -4 31 11 12 12 32 21
45 21 26 0 45 -18 29 -29 -18 -12 -54 -81 -48 -91 11 -19 22 -10 49 40 15 27
32 52 37 56 6 3 19 26 29 49 10 24 27 48 37 54 38 20 58 -15 68 -119 4 -41 18
-102 31 -136 13 -33 24 -68 24 -77 0 -9 9 -36 19 -59 21 -45 55 -147 71 -209
5 -20 20 -58 33 -85 13 -27 31 -71 39 -99 56 -183 60 -193 79 -198 13 -4 26 8
50 44 17 27 35 49 39 49 12 0 70 57 70 69 0 16 -28 13 -60 -5 -15 -10 -35 -14
-44 -11 -15 6 -15 10 4 47 11 22 27 40 35 40 8 0 26 18 40 40 30 48 61 53 75
13 6 -16 15 -36 20 -46 13 -22 5 -53 -15 -60 -16 -7 -8 -47 9 -47 7 0 21 7 32
15 40 30 77 5 38 -27 -8 -7 -30 -28 -49 -45 -19 -18 -38 -33 -43 -33 -5 0 -24
-14 -42 -30 -31 -28 -38 -30 -83 -24 -54 7 -67 -1 -67 -45 0 -30 55 -194 76
-226 l16 -25 23 24 c12 13 37 27 56 31 51 10 102 28 119 41 8 6 32 17 53 24
83 26 205 101 261 159 43 44 44 59 2 39 -22 -9 -32 -9 -48 1 -18 11 -24 9 -48
-14 -16 -15 -33 -24 -39 -21 -12 8 -111 -50 -221 -130 -77 -56 -108 -65 -130
-39 -21 25 5 66 67 110 71 50 161 105 172 105 4 0 17 10 29 23 l22 24 -20 18
c-28 25 -25 41 15 76 19 17 35 39 35 49 0 10 7 36 15 59 14 40 13 41 -7 41
-11 0 -38 -16 -59 -35 -55 -49 -79 -45 -95 18 -5 24 -11 28 -30 24 -14 -2 -30
3 -40 14 -25 28 -10 72 37 103 21 15 39 33 39 40 0 8 3 21 6 30 4 11 -3 19
-22 26 -23 9 -33 7 -55 -10 -32 -23 -47 -25 -70 -7 -43 34 -26 75 56 129 45
30 50 42 39 86 -8 30 -16 28 -34 -11 -11 -23 -23 -33 -45 -37 -16 -3 -41 -12
-55 -21 -14 -9 -40 -25 -59 -35 -34 -19 -38 -30 -44 -114 -2 -29 -18 -38 -69
-39 -35 -1 -38 1 -38 28 0 34 -15 49 -59 57 -28 6 -32 10 -26 28 16 50 16 76
1 98 -19 27 -21 78 -3 100 17 22 87 58 114 58 12 0 26 6 30 13 4 7 23 19 41
26 18 8 37 22 43 32 7 14 21 19 52 19 55 0 71 -11 63 -41 -6 -23 -37 -48 -151
-122 -31 -20 -51 -40 -53 -54 -4 -28 0 -28 68 -2 30 12 68 21 83 20 15 -1 38
5 50 14 12 8 29 15 38 15 9 0 20 7 23 16 9 25 7 72 -4 79 -23 14 -50 86 -50
132 0 37 6 53 25 73 23 24 25 30 14 54 -14 29 -31 32 -70 11z m-40 -624 c8 -5
11 -16 6 -30 -5 -16 -14 -21 -41 -21 -37 0 -43 13 -17 42 18 20 31 22 52 9z
m-83 -86 c-6 -23 -4 -25 29 -25 19 0 49 9 67 20 18 11 43 20 56 20 l23 0 -21
-38 c-12 -21 -38 -47 -57 -57 -40 -22 -66 -55 -61 -81 4 -23 -46 -37 -76 -22
-11 6 -28 14 -36 18 -23 11 -24 40 -1 71 24 32 26 50 9 67 -16 16 17 52 50 52
21 0 23 -3 18 -25z"/>
<path d="M12390 2570 c-8 -5 -29 -10 -47 -10 -29 0 -31 -2 -25 -21 5 -14 30
-30 67 -45 90 -37 206 -164 150 -164 -22 0 -35 -33 -29 -72 4 -22 0 -46 -10
-66 -23 -45 -20 -58 17 -68 28 -9 32 -14 32 -44 1 -21 -10 -53 -26 -79 -22
-36 -25 -48 -16 -63 16 -24 48 -23 54 2 3 11 13 20 22 20 14 0 16 -11 12 -81
l-3 -81 23 7 c43 13 43 10 36 117 -2 27 -10 59 -17 73 -11 20 -11 27 0 40 8 9
19 64 26 123 13 118 5 187 -27 234 -11 14 -19 30 -19 35 0 4 -16 19 -35 33
-19 14 -37 32 -40 41 -16 48 -110 93 -145 69z"/>
<path d="M10216 2563 c-12 -12 -6 -33 9 -33 8 0 15 6 15 14 0 17 -14 28 -24
19z"/>
<path d="M12093 2555 c-3 -9 -3 -18 0 -21 9 -9 48 16 42 27 -9 14 -35 11 -42
-6z"/>
<path d="M10440 2547 c0 -20 22 -37 47 -37 26 0 78 -24 106 -48 33 -29 19 12
-15 45 -48 44 -138 71 -138 40z"/>
<path d="M11810 2546 c0 -22 17 -28 24 -10 9 22 8 24 -9 24 -8 0 -15 -6 -15
-14z"/>
<path d="M954 2515 c-7 -30 2 -59 16 -50 13 8 13 62 0 70 -5 3 -12 -6 -16 -20z"/>
<path d="M4971 2519 c-62 -12 -139 -86 -88 -85 18 1 23 -7 31 -46 9 -44 12
-48 43 -54 30 -6 39 -2 69 27 36 35 44 73 19 83 -11 4 -15 17 -13 42 3 42 -1
45 -61 33z"/>
<path d="M3622 2438 c2 -12 11 -24 21 -26 14 -3 18 1 15 20 -2 12 -11 24 -21
26 -14 3 -18 -1 -15 -20z"/>
<path d="M955 2391 c-7 -22 4 -53 16 -45 12 7 12 64 0 64 -5 0 -12 -8 -16 -19z"/>
<path d="M4737 2384 c-14 -14 -7 -25 13 -22 12 2 21 8 21 13 0 12 -24 18 -34
9z"/>
<path d="M12230 2370 c-9 -16 -8 -18 5 -14 8 4 15 12 15 20 0 20 -7 17 -20 -6z"/>
<path d="M11540 2309 c-19 -10 -43 -18 -53 -19 -10 0 -40 -11 -67 -25 -27 -14
-65 -25 -85 -25 -35 0 -91 -11 -180 -35 -27 -8 -88 -17 -134 -20 -96 -7 -107
-11 -89 -32 11 -13 32 -15 143 -9 71 4 146 11 165 16 20 5 61 11 91 13 31 3
67 12 82 21 19 13 37 16 70 11 33 -5 47 -3 53 7 5 7 28 26 52 41 46 30 53 50
23 67 -24 13 -28 12 -71 -11z"/>
<path d="M948 2304 c-3 -2 -3 -108 0 -236 2 -160 8 -246 17 -274 11 -33 12
-55 3 -108 -9 -55 -9 -69 4 -84 8 -9 19 -26 23 -37 7 -17 9 -13 16 20 12 60
10 110 -3 123 -15 15 -18 439 -4 484 6 21 4 30 -13 44 -13 12 -19 25 -15 40 5
19 -16 41 -28 28z"/>
<path d="M2862 2214 c-24 -19 -54 -34 -68 -34 -31 0 -117 -22 -125 -32 -7 -11
-99 -38 -129 -38 -14 0 -34 -6 -45 -14 -18 -12 -67 -18 -235 -31 -31 -2 -46
-8 -48 -19 -2 -9 -12 -16 -22 -16 -9 0 -23 -7 -30 -15 -7 -8 -18 -15 -26 -15
-17 0 -25 -15 -18 -34 9 -25 28 -19 48 15 l18 30 71 -6 c40 -4 88 -11 107 -16
73 -19 137 -7 270 51 88 38 96 40 167 55 63 14 197 81 227 114 15 17 15 19 1
31 -13 11 -23 11 -52 1 -25 -10 -38 -10 -46 -2 -15 15 -16 14 -65 -25z"/>
<path d="M5014 2218 c-33 -36 -36 -46 -19 -65 9 -10 26 -34 39 -53 28 -45 51
-49 87 -14 30 28 36 52 20 70 -5 5 -11 25 -13 44 -3 34 -4 35 -48 38 -37 2
-50 -1 -66 -20z"/>
<path d="M11974 2156 c10 -112 -6 -152 -96 -246 -40 -41 -86 -92 -101 -113
-15 -20 -34 -37 -40 -37 -7 0 -32 -18 -56 -40 -24 -23 -56 -47 -72 -56 -16 -8
-29 -19 -29 -24 0 -5 -19 -22 -42 -37 -24 -16 -74 -50 -111 -76 -38 -26 -71
-47 -74 -47 -3 0 -19 -6 -36 -14 -18 -8 -40 -17 -50 -20 -10 -3 -16 -10 -12
-15 3 -6 12 -8 20 -5 8 4 18 -1 21 -10 8 -20 34 -21 60 -1 10 8 26 15 35 15
23 0 102 79 95 95 -6 16 14 25 56 25 34 0 113 56 183 130 11 12 33 33 48 48
15 15 66 64 113 110 47 45 90 82 94 82 5 0 17 16 26 36 9 20 25 41 34 46 15
10 16 14 4 37 -8 14 -14 36 -14 48 0 21 2 21 28 7 15 -7 40 -14 56 -14 32 0
98 39 93 55 -4 12 -45 22 -119 30 -47 5 -64 12 -90 38 l-31 32 7 -79z"/>
<path d="M10642 2188 c3 -23 11 -26 118 -44 39 -7 120 11 120 27 0 6 -36 8
-89 7 -73 -2 -92 0 -108 15 -27 24 -45 22 -41 -5z"/>
<path d="M3178 2159 c-25 -14 -22 -56 8 -112 14 -27 34 -82 44 -122 11 -41 24
-84 30 -95 6 -11 15 -39 20 -62 11 -53 35 -124 71 -208 15 -36 31 -78 35 -95
4 -16 10 -34 13 -40 4 -5 16 -37 26 -70 11 -33 24 -65 30 -71 5 -6 16 -39 23
-75 18 -85 29 -113 58 -144 13 -14 24 -38 24 -53 0 -32 25 -72 46 -72 18 0 18
31 -1 56 -8 10 -15 28 -15 38 0 22 -40 137 -52 151 -4 5 -8 20 -8 34 0 30 -45
185 -80 276 -4 11 -17 46 -30 78 -12 31 -28 76 -35 100 -8 23 -28 80 -45 127
-18 47 -39 112 -46 145 -20 81 -77 225 -89 224 -5 0 -18 -4 -27 -10z"/>
<path d="M4010 2115 c-7 -8 -9 -22 -6 -31 5 -13 9 -14 21 -4 17 14 20 36 6 44
-5 3 -14 -1 -21 -9z"/>
<path d="M5460 2080 c-34 -29 -34 -31 -16 -45 23 -18 36 -11 36 19 0 16 7 26
21 29 12 3 18 10 14 16 -9 16 -16 14 -55 -19z"/>
<path d="M4200 2063 c-31 -11 -60 -47 -60 -74 0 -44 20 -79 46 -79 24 0 37
-21 28 -45 -4 -9 -13 -13 -24 -10 -28 9 -45 -20 -31 -51 9 -21 14 -24 26 -14
10 8 31 10 66 5 48 -7 52 -10 69 -48 18 -40 18 -42 -1 -69 -21 -29 -26 -31
-69 -32 -20 -1 -26 -7 -28 -31 -2 -16 -11 -35 -20 -42 -24 -18 -12 -16 34 6
21 11 48 29 58 40 38 42 80 15 101 -66 10 -39 17 -48 33 -46 18 2 19 -2 15
-37 -4 -31 -2 -41 11 -46 46 -18 -2 -88 -103 -153 -65 -41 -94 -50 -106 -31
-3 6 -1 10 6 10 7 0 10 2 7 5 -5 5 -58 -16 -88 -35 -8 -5 -36 -19 -62 -30 -27
-11 -48 -26 -48 -32 0 -6 -18 -28 -40 -48 -22 -20 -40 -41 -40 -47 0 -6 27
-13 61 -16 56 -5 65 -3 117 29 32 19 74 39 94 44 30 9 122 57 208 110 8 5 37
21 63 35 27 14 65 40 84 58 l35 32 -28 5 c-23 4 -30 11 -32 35 -2 17 -9 37
-16 45 -34 39 -65 119 -70 180 -5 47 -17 85 -44 138 -34 68 -39 73 -67 70 -36
-3 -55 7 -55 29 0 8 -11 37 -25 65 -14 27 -25 58 -25 69 0 11 -7 33 -15 49
-15 29 -32 35 -65 23z"/>
<path d="M11599 1989 c-16 -56 -16 -56 -34 -33 -14 18 -14 18 -15 -4 0 -17 11
-28 44 -44 41 -20 46 -20 82 -6 35 14 39 20 42 54 3 52 -5 61 -60 69 l-47 7
-12 -43z"/>
<path d="M5470 1975 c-11 -13 -11 -23 -3 -46 8 -19 8 -40 2 -62 -5 -17 -6 -39
-3 -49 6 -20 -25 -86 -52 -109 -11 -9 -30 -20 -44 -24 -33 -10 -154 -80 -169
-99 -19 -22 2 -28 64 -17 77 14 89 8 81 -45 -5 -38 -3 -42 12 -37 9 3 25 13
35 21 15 13 17 13 17 -1 0 -9 -4 -19 -10 -22 -17 -11 -12 -75 5 -75 52 0 119
76 94 106 -6 8 -27 14 -45 14 -32 0 -34 2 -34 34 0 25 11 48 43 88 62 76 79
114 84 188 7 109 -36 185 -77 135z"/>
<path d="M5117 1952 c-26 -27 -37 -72 -17 -72 5 0 17 -15 25 -32 33 -68 40
-78 56 -78 23 0 55 29 74 65 14 27 13 31 -3 43 -11 9 -17 27 -17 55 l0 42 -45
3 c-39 2 -49 -1 -73 -26z"/>
<path d="M12390 1935 c-16 -19 -6 -123 14 -143 17 -17 49 0 66 36 14 31 7 38
-24 24 -28 -13 -36 -7 -36 25 0 14 6 23 16 23 10 0 14 7 12 22 -4 28 -30 35
-48 13z"/>
<path d="M3175 1930 c-8 -13 4 -32 16 -25 12 8 12 35 0 35 -6 0 -13 -4 -16
-10z"/>
<path d="M4075 1900 c-10 -32 3 -42 30 -23 31 23 32 43 1 43 -16 0 -27 -7 -31
-20z"/>
<path d="M12542 1743 c-5 -10 -12 -40 -16 -67 -5 -38 -2 -53 10 -67 8 -9 19
-41 24 -71 5 -29 13 -71 19 -93 19 -71 14 -101 -19 -125 -19 -14 -30 -30 -30
-46 0 -36 -41 -95 -62 -88 -14 4 -16 -2 -13 -38 5 -68 23 -108 49 -108 28 0
56 29 56 59 0 12 8 34 18 48 9 15 18 39 18 53 1 14 7 52 14 85 14 73 14 83 0
215 -13 125 -13 127 -4 163 12 50 -44 120 -64 80z"/>
<path d="M12350 1707 c0 -16 -14 -34 -45 -56 -25 -18 -45 -39 -45 -47 0 -8 -4
-14 -9 -14 -14 0 -23 -32 -12 -43 7 -7 14 -1 22 16 7 15 28 32 50 41 30 12 39
21 39 40 0 14 5 28 10 31 6 3 10 17 10 31 0 13 -4 24 -10 24 -5 0 -10 -10 -10
-23z"/>
<path d="M3136 1648 c-26 -51 -19 -65 13 -29 16 18 27 39 24 47 -8 22 -20 17
-37 -18z"/>
<path d="M4832 1563 c3 -19 39 -29 65 -19 25 10 -4 36 -39 36 -23 0 -29 -4
-26 -17z"/>
<path d="M997 1513 c-19 -30 -14 -122 11 -175 15 -33 22 -62 18 -79 -3 -15 1
-52 9 -82 8 -30 12 -63 9 -75 -4 -13 2 -28 17 -43 21 -21 22 -27 16 -141 -6
-124 -3 -148 18 -148 27 0 39 29 27 68 -6 20 -16 89 -22 152 -27 281 -31 314
-40 325 -18 21 -42 99 -49 155 -4 33 -9 50 -14 43z"/>
<path d="M5000 1416 c0 -8 5 -18 10 -21 6 -3 10 3 10 14 0 12 -4 21 -10 21 -5
0 -10 -6 -10 -14z"/>
<path d="M4697 1400 c-10 -12 -15 -25 -12 -30 3 -5 -6 -27 -20 -47 -35 -52
-32 -88 11 -150 l36 -52 30 30 c26 26 36 29 67 25 31 -5 39 -2 55 20 27 38 32
105 11 138 -21 31 -22 29 30 51 23 11 34 20 25 22 -8 2 -40 -9 -70 -25 -46
-24 -57 -35 -65 -66 -11 -38 -66 -106 -86 -106 -8 0 -9 16 -5 48 9 61 15 82
26 82 14 0 40 49 34 64 -9 22 -46 20 -67 -4z"/>
<path d="M11145 1406 c-16 -7 -46 -20 -65 -28 -93 -43 -129 -56 -170 -63 -48
-8 -141 -54 -148 -73 -2 -8 12 -12 47 -12 41 0 52 4 61 21 9 16 18 19 39 14
18 -4 49 4 96 25 129 57 215 104 215 117 0 16 -34 15 -75 -1z"/>
<path d="M12010 1345 c-7 -8 -21 -15 -30 -15 -21 0 -65 -64 -55 -80 11 -18 34
-10 62 21 16 18 36 40 47 50 10 9 15 22 11 28 -9 15 -20 14 -35 -4z"/>
<path d="M11876 1343 c-11 -11 -6 -23 9 -23 8 0 15 4 15 9 0 13 -16 22 -24 14z"/>
<path d="M5013 1325 c-13 -9 -27 -34 -33 -57 -28 -103 -137 -205 -290 -268
-60 -25 -170 -94 -236 -146 -40 -32 -41 -35 -37 -79 3 -24 0 -57 -6 -73 -13
-31 -73 -92 -110 -111 -28 -16 -17 -30 31 -40 26 -6 32 -11 30 -28 -5 -34 17
-37 36 -4 9 17 29 36 44 42 15 6 33 17 39 25 6 8 21 14 32 14 19 0 20 4 14 95
-6 91 -6 95 19 125 35 41 88 76 217 144 181 94 226 134 267 245 20 51 27 131
12 131 -4 0 -17 -7 -29 -15z"/>
<path d="M3116 1295 c-3 -10 -3 -22 3 -28 12 -12 20 4 11 27 -6 19 -7 19 -14
1z"/>
<path d="M12412 1268 c6 -18 28 -21 28 -4 0 9 -7 16 -16 16 -9 0 -14 -5 -12
-12z"/>
<path d="M11855 1250 c-7 -12 33 -49 53 -50 17 0 15 14 -5 32 -29 24 -41 29
-48 18z"/>
<path d="M10551 1226 c-7 -9 -45 -15 -114 -19 -56 -4 -140 -11 -187 -17 -47
-6 -179 -13 -295 -15 -115 -3 -268 -10 -340 -15 -71 -5 -186 -10 -255 -10
-143 0 -463 -24 -482 -37 -7 -4 -62 -8 -123 -9 -77 -1 -122 -6 -149 -18 -21
-9 -53 -16 -70 -16 -17 0 -40 -7 -50 -15 -11 -8 -36 -15 -56 -15 -20 0 -40 -3
-44 -7 -7 -7 -64 -29 -111 -43 -16 -5 -79 -27 -140 -50 -60 -23 -120 -44 -133
-47 -13 -3 -26 -12 -29 -20 -3 -8 -35 -30 -72 -49 -170 -90 -230 -133 -385
-277 -95 -89 -187 -193 -291 -327 -91 -117 -133 -168 -160 -192 l-29 -28 67 0
c57 0 67 3 67 18 0 9 24 44 53 78 28 33 59 69 67 78 8 10 39 45 69 77 29 32
64 81 77 109 15 33 32 54 49 60 14 5 28 16 31 24 3 9 14 18 23 21 10 3 32 26
50 50 18 25 38 45 46 45 7 0 28 17 46 37 18 21 55 52 83 70 102 65 116 75 116
83 0 5 21 19 48 32 26 12 62 35 80 50 27 23 36 26 53 17 20 -10 30 -6 67 29 7
6 25 12 40 12 15 1 45 9 67 20 22 11 48 19 59 20 10 0 39 11 65 24 51 26 93
40 165 56 26 6 66 19 89 30 32 16 71 21 191 26 83 3 156 10 162 15 6 5 159 11
340 14 181 3 361 10 401 15 39 6 125 12 190 13 108 2 121 0 150 -20 34 -25 71
-33 40 -9 -23 17 -14 23 49 31 39 6 53 4 63 -8 10 -13 18 -13 44 -5 18 6 36
17 40 25 6 10 26 13 65 12 82 -2 162 11 183 32 9 9 31 20 47 24 21 4 29 11 25
21 -7 18 -37 18 -52 0z"/>
<path d="M11738 1175 c-34 -46 -12 -62 35 -25 14 11 32 20 41 20 9 0 16 4 16
9 0 5 -10 9 -22 8 -13 0 -30 3 -38 6 -9 4 -22 -3 -32 -18z"/>
<path d="M3847 1144 c-16 -13 -34 -24 -41 -24 -21 0 -26 -25 -13 -59 11 -29 9
-31 -58 -93 -59 -55 -67 -66 -58 -83 6 -11 15 -33 20 -50 7 -26 13 -30 42 -30
27 0 37 6 50 30 22 42 85 126 110 149 24 22 28 61 6 70 -21 8 -19 29 4 50 23
21 19 39 -12 53 -19 9 -28 6 -50 -13z"/>
<path d="M5236 1122 c-7 -20 -110 -127 -151 -156 -17 -13 -20 -26 -20 -103 l0
-88 -28 -3 c-18 -2 -32 -12 -39 -28 -14 -30 -9 -35 34 -37 30 -2 33 1 36 28 2
17 8 34 13 40 5 5 9 20 9 32 0 27 65 120 106 152 38 30 64 28 64 -6 0 -28 45
-82 57 -69 4 4 1 21 -5 39 -15 41 -15 74 -2 82 15 9 12 35 -3 35 -8 0 -22 -9
-32 -20 -13 -15 -22 -17 -36 -9 -37 19 -11 86 38 95 35 7 73 -2 73 -17 0 -15
22 -10 36 9 13 16 15 15 34 -8 33 -41 52 -118 41 -173 -5 -26 -15 -55 -23 -65
-8 -9 -27 -43 -43 -74 -37 -76 -113 -158 -146 -158 -31 0 -49 -17 -49 -46 0
-28 14 -33 69 -22 86 16 166 109 196 229 23 96 64 177 97 193 20 11 29 11 36
3 8 -11 24 -157 23 -215 -1 -33 -37 -98 -82 -147 -59 -64 -51 -95 25 -95 43 0
68 30 90 105 9 33 21 68 27 77 5 10 9 36 9 57 0 22 5 43 10 46 20 12 11 72
-12 87 -20 13 -21 18 -11 41 11 24 10 30 -13 52 -14 14 -29 25 -33 25 -5 0
-14 7 -21 15 -6 7 -54 35 -106 60 -75 37 -98 44 -109 35 -10 -8 -24 -9 -47 -2
-18 6 -40 10 -48 10 -8 0 -25 4 -37 7 -16 5 -23 2 -27 -13z"/>
<path d="M7791 1085 c-19 -69 17 -125 80 -125 46 0 69 27 69 81 0 56 -8 71
-32 58 -14 -8 -25 -7 -43 5 -40 26 -63 20 -74 -19z"/>
<path d="M5022 1027 c-24 -25 -28 -37 -12 -37 6 0 10 7 10 15 0 8 4 15 9 15 5
0 11 7 15 15 7 21 3 19 -22 -8z"/>
<path d="M4294 996 c-11 -8 -45 -17 -76 -21 l-56 -7 24 -35 c68 -100 17 -210
-133 -287 -38 -19 -41 -35 -13 -61 21 -19 37 -15 82 17 25 18 32 4 13 -31 -26
-51 4 -50 72 3 32 25 70 55 86 67 35 26 34 42 -3 76 -25 21 -30 34 -30 69 0
48 12 56 79 51 29 -2 36 3 53 33 16 27 18 38 9 52 -6 10 -11 24 -11 32 0 14
-50 56 -67 56 -5 0 -18 -6 -29 -14z"/>
<path d="M2280 930 c0 -5 9 -10 20 -10 11 0 20 5 20 10 0 6 -9 10 -20 10 -11
0 -20 -4 -20 -10z"/>
<path d="M2390 920 c-8 -4 -31 -11 -50 -15 -19 -4 -46 -12 -60 -17 -34 -13 -9
-28 48 -28 41 0 122 -32 122 -48 0 -5 -65 -7 -145 -5 -135 2 -147 1 -166 -18
-24 -24 -20 -45 7 -42 118 16 143 15 209 -6 42 -14 94 -22 139 -23 40 0 83 -6
98 -14 15 -8 39 -14 53 -14 32 0 104 -36 112 -55 3 -8 9 -15 14 -15 14 0 10
36 -5 49 -26 22 -25 48 3 74 l26 25 58 -24 c32 -14 67 -22 76 -19 10 3 30 1
44 -4 15 -6 29 -6 32 -1 10 16 -26 40 -61 40 -20 0 -47 9 -63 21 -15 11 -43
22 -62 24 -71 8 -200 53 -213 74 -4 6 -15 11 -25 11 -10 0 -31 6 -47 14 -36
17 -124 27 -144 16z m145 -94 c19 -19 -2 -37 -33 -29 -34 8 -26 39 11 42 5 1
15 -5 22 -13z m188 -90 c12 -31 -27 -36 -43 -6 -9 17 -8 20 14 20 13 0 26 -6
29 -14z"/>
<path d="M6395 880 c-20 -38 -19 -52 5 -80 27 -31 25 -43 -15 -125 -19 -38
-35 -74 -35 -78 0 -5 -6 -23 -14 -40 -8 -18 -24 -59 -36 -92 -13 -33 -29 -73
-35 -90 -7 -16 -25 -66 -40 -110 -39 -115 -86 -227 -103 -247 -14 -17 -12 -18
26 -18 39 0 42 2 60 43 24 54 54 132 88 227 15 41 32 89 39 105 35 81 73 185
80 214 13 62 56 125 95 141 32 13 53 55 48 96 -2 21 -14 34 -53 55 -66 37 -90
37 -110 -1z"/>
<path d="M12415 900 c-10 -16 4 -30 31 -30 58 0 10 -64 -57 -75 -33 -6 -39 -9
-26 -17 27 -15 20 -41 -20 -74 -35 -29 -36 -33 -25 -58 l11 -26 33 23 c97 68
170 163 161 210 -5 24 -10 28 -28 23 -15 -4 -28 1 -40 14 -20 22 -31 25 -40
10z"/>
<path d="M3980 893 c-26 -9 -60 -46 -60 -64 0 -75 97 -120 135 -62 17 26 17
27 -1 42 -11 9 -24 31 -30 50 -10 36 -19 43 -44 34z"/>
<path d="M10382 883 c2 -12 12 -18 28 -18 36 0 33 29 -3 33 -23 3 -28 0 -25
-15z"/>
<path d="M10124 882 c-6 -4 -13 -15 -17 -24 -8 -22 -36 -23 -51 -4 -10 13 -27
13 -139 0 -71 -7 -133 -16 -138 -19 -11 -8 -287 -20 -368 -17 -48 1 -69 -2
-83 -14 -23 -22 -14 -34 25 -34 18 -1 67 -7 110 -15 58 -10 85 -11 103 -3 16
8 48 8 109 0 74 -10 91 -9 116 4 16 8 34 12 39 9 6 -3 16 -3 23 2 6 4 26 9 42
10 17 1 61 9 99 18 45 10 72 12 80 6 7 -6 18 -6 26 -1 8 5 21 5 31 0 12 -7 21
-5 29 5 9 11 7 16 -10 25 -20 11 -20 12 -4 24 26 19 5 47 -22 28z"/>
<path d="M9104 775 l-27 -25 30 0 c42 0 70 31 38 44 -8 3 -27 -6 -41 -19z"/>
<path d="M9200 780 c0 -5 9 -10 21 -10 11 0 17 5 14 10 -3 6 -13 10 -21 10 -8
0 -14 -4 -14 -10z"/>
<path d="M4695 755 c-31 -30 -34 -84 -6 -109 25 -23 54 -14 81 24 26 37 26 75
-2 94 -31 22 -45 20 -73 -9z"/>
<path d="M3640 740 c-11 -25 -10 -37 2 -68 38 -93 42 -114 22 -129 -10 -7 -21
-13 -26 -13 -22 0 -4 -19 25 -25 17 -4 39 -13 47 -20 8 -7 35 -17 60 -23 25
-6 55 -14 68 -17 53 -17 11 33 -48 55 -70 27 -80 39 -74 79 4 27 -1 48 -20 84
-14 26 -26 61 -26 78 0 38 -14 37 -30 -1z"/>
<path d="M11280 745 c-7 -9 -10 -19 -6 -22 8 -9 38 9 44 25 5 17 -23 15 -38
-3z"/>
<path d="M3870 726 c0 -9 7 -12 20 -9 11 3 20 9 20 14 0 5 -9 9 -20 9 -11 0
-20 -6 -20 -14z"/>
<path d="M1125 690 c-3 -11 -4 -24 -1 -28 3 -5 8 -24 11 -42 3 -18 19 -48 35
-67 16 -18 33 -45 36 -58 3 -14 12 -25 20 -25 19 0 18 38 -1 56 -8 9 -15 24
-15 33 0 10 -6 24 -14 31 -8 6 -12 18 -9 26 3 8 -1 22 -10 32 -8 9 -18 27 -21
40 -9 27 -23 28 -31 2z"/>
<path d="M3790 683 c0 -15 5 -35 10 -43 15 -23 45 1 45 36 0 24 -5 30 -27 32
-25 3 -28 0 -28 -25z"/>
<path d="M5660 560 c0 -11 5 -20 10 -20 6 0 10 9 10 20 0 11 -4 20 -10 20 -5
0 -10 -9 -10 -20z"/>
<path d="M4525 559 c-5 -7 -10 -57 -13 -111 -4 -93 -3 -100 18 -123 13 -14 27
-25 32 -25 12 0 10 128 -2 135 -5 3 -10 30 -10 58 0 57 -12 88 -25 66z"/>
<path d="M12362 498 c4 -39 32 -51 41 -17 7 25 -8 49 -30 49 -10 0 -13 -9 -11
-32z"/>
<path d="M1210 424 c-8 -21 -7 -31 5 -44 8 -9 15 -26 15 -37 0 -22 33 -57 43
-46 22 21 -3 127 -34 144 -16 8 -21 5 -29 -17z"/>
<path d="M3888 424 c-2 -13 -14 -19 -42 -21 -47 -3 -57 -11 -33 -28 26 -19 99
-28 108 -14 5 9 18 5 48 -15 25 -18 54 -28 78 -29 65 -1 213 10 212 16 -6 43
-12 47 -59 47 -26 0 -92 12 -146 26 -139 38 -161 40 -166 18z"/>
<path d="M4303 424 c-7 -18 11 -39 26 -30 17 11 13 46 -4 46 -9 0 -18 -7 -22
-16z"/>
<path d="M7902 274 c-12 -8 -22 -22 -22 -30 0 -23 54 -14 58 10 6 28 -11 38
-36 20z"/>
<path d="M4528 249 c-27 -15 -22 -37 16 -79 25 -28 37 -35 45 -27 16 16 13 64
-5 92 -18 27 -29 30 -56 14z"/>
<path d="M3970 179 c-30 -10 -66 -30 -80 -44 -14 -14 -31 -25 -37 -25 -13 0
-93 -86 -93 -100 0 -5 9 -10 20 -10 11 0 20 5 20 10 0 6 5 10 11 10 6 0 49 23
95 51 45 28 102 57 125 66 40 13 44 13 70 -6 29 -22 79 -28 79 -11 0 6 -11 16
-25 22 -14 6 -25 14 -25 19 0 8 -75 39 -93 38 -6 0 -37 -9 -67 -20z"/>
<path d="M4030 38 c-56 -32 -58 -38 -13 -38 32 0 46 5 57 22 31 43 13 49 -44
16z"/>
<path d="M4924 39 c-17 -5 -37 -16 -44 -24 -11 -13 2 -15 110 -15 108 0 121 2
110 15 -8 10 -31 15 -69 15 -31 0 -61 4 -66 9 -6 4 -24 4 -41 0z"/>
<path d="M4548 29 c-30 -17 -20 -29 22 -29 41 0 49 7 28 28 -14 14 -27 15 -50
1z"/>
<path d="M7600 15 c-11 -13 -4 -15 51 -15 58 1 62 2 45 15 -26 19 -80 19 -96
0z"/>
</g>
</svg>
