<?xml version="1.0" standalone="no"?>
<!DOCTYPE svg PUBLIC "-//W3C//DTD SVG 20010904//EN"
 "http://www.w3.org/TR/2001/REC-SVG-20010904/DTD/svg10.dtd">
<svg version="1.0" xmlns="http://www.w3.org/2000/svg"
 width="450.000000pt" height="283.000000pt" viewBox="0 0 450.000000 283.000000"
 preserveAspectRatio="xMidYMid meet">
<metadata>
Created by potrace 1.10, written by Peter Selinger 2001-2011
</metadata>
<g transform="translate(0.000000,283.000000) scale(0.100000,-0.100000)"
fill="#000000" stroke="none">
<path d="M100 2813 c0 -43 42 -187 58 -200 10 -9 13 -16 6 -19 -11 -5 0 -60
32 -156 8 -26 13 -52 9 -58 -3 -5 3 -20 14 -32 12 -12 21 -25 21 -28 0 -4 -21
-10 -47 -13 -27 -3 -55 -8 -65 -12 -11 -4 -18 0 -21 12 -4 16 -5 16 -6 1 -2
-26 -16 -22 -29 7 -17 36 -16 37 27 30 36 -5 40 -4 38 16 -1 12 -12 26 -24 32
-13 6 -23 18 -23 27 0 19 -24 20 -57 2 -17 -9 -22 -9 -26 1 -3 6 -6 -2 -6 -20
-1 -17 5 -34 12 -36 9 -4 9 -6 0 -6 -10 -1 -13 -42 -13 -168 0 -102 4 -162 9
-154 12 18 78 23 85 6 2 -7 7 -33 11 -58 7 -42 5 -46 -16 -50 -20 -3 -18 -4 6
-5 29 -1 83 16 58 17 -7 1 -13 12 -13 25 0 14 -4 28 -10 31 -17 10 -11 44 9
55 11 5 36 10 55 10 29 0 36 -4 36 -20 0 -10 10 -29 23 -41 17 -17 18 -21 4
-16 -16 6 -16 4 -1 -31 9 -20 17 -44 18 -52 0 -8 7 -20 15 -26 7 -6 15 -26 16
-44 2 -20 13 -42 28 -56 18 -16 28 -39 32 -71 4 -27 11 -64 15 -83 12 -52 9
-313 -4 -322 -7 -5 -5 -8 5 -8 25 0 31 -28 9 -40 -13 -7 -20 -6 -23 3 -3 8
-11 6 -27 -8 -21 -19 -22 -19 -19 -1 2 11 -3 21 -11 23 -13 4 -13 3 -1 -5 11
-8 3 -14 -35 -26 -27 -9 -37 -15 -21 -13 31 5 36 -7 9 -22 -16 -10 -15 -11 3
-12 11 -1 26 -1 33 0 6 1 12 -3 12 -9 0 -6 4 -8 10 -5 5 3 10 2 10 -2 0 -5 14
-14 32 -21 17 -6 29 -15 25 -18 -12 -12 52 -61 67 -51 6 3 46 -35 46 -43 0
-14 -63 -34 -102 -33 -37 1 -50 -10 -25 -21 10 -5 -11 -3 -81 8 -7 1 -18 8
-25 15 -9 9 -9 14 2 20 9 6 2 10 -22 15 -19 4 -38 13 -41 22 -3 9 -11 12 -18
8 -7 -5 -9 -2 -5 8 4 12 -3 17 -24 22 -17 3 -28 10 -24 16 4 6 -6 10 -22 11
-18 1 -22 3 -10 6 18 5 18 6 1 24 -14 15 -20 17 -32 6 -11 -8 -14 -8 -9 0 8
13 -18 21 -44 15 -13 -3 -16 -22 -17 -108 -2 -100 -1 -105 20 -114 13 -5 17
-9 11 -9 -7 -1 -13 -8 -13 -17 0 -10 6 -14 15 -11 8 4 17 2 20 -3 3 -4 -8 -11
-25 -15 -34 -8 -42 -25 -8 -19 l23 5 -22 -12 -22 -12 -1 -438 0 -439 870 0
c573 0 870 3 870 10 0 6 5 10 11 10 5 0 7 -4 4 -10 -4 -7 455 -10 1369 -10
l1376 0 0 790 0 790 -40 -4 c-22 -2 -43 -6 -47 -10 -11 -10 -48 -7 -61 6 -9 9
-12 9 -12 1 0 -7 5 -15 10 -18 6 -4 8 -11 5 -16 -4 -5 2 -9 11 -9 16 0 11 -15
-4 -15 -4 0 -13 -4 -19 -8 -18 -11 -33 1 -26 20 5 12 2 15 -10 10 -9 -3 -30
-2 -47 3 -18 5 -69 6 -114 3 -44 -4 -74 -9 -64 -11 11 -2 17 -16 20 -42 3 -35
1 -40 -22 -46 -40 -10 -80 -10 -80 1 0 6 17 9 40 7 25 -3 40 0 40 7 0 7 -17
11 -45 9 -24 0 -50 4 -58 11 -12 9 -16 8 -19 -7 -4 -13 -18 -21 -49 -26 -28
-5 -39 -10 -30 -15 10 -7 10 -9 -2 -14 -9 -3 -18 1 -21 9 -6 16 -46 20 -46 4
0 -5 -4 -10 -10 -10 -5 0 -9 3 -9 8 3 19 -3 22 -22 11 -13 -7 -19 -7 -15 -1 4
6 -2 10 -14 9 -27 -2 -25 -27 3 -28 18 -1 17 -2 -7 -9 -16 -5 -32 -14 -36 -21
-15 -22 -19 8 -5 34 13 26 13 27 -11 27 -24 0 -32 -14 -14 -25 29 -18 -20 -45
-80 -45 -23 0 -40 -5 -40 -11 0 -7 -8 -6 -23 3 -12 8 -44 18 -71 21 -42 6 -47
5 -36 -8 13 -15 5 -20 -27 -16 -7 1 -13 -3 -13 -9 0 -5 -6 -10 -14 -10 -8 0
-16 -5 -18 -11 -3 -8 -10 -6 -21 5 -9 10 -22 14 -27 11 -6 -4 -17 -1 -25 5
-11 9 -15 9 -15 1 0 -6 -7 -11 -15 -11 -8 0 -15 7 -15 15 0 8 -7 15 -16 15
-14 0 -14 -2 0 -22 21 -29 20 -44 0 -23 -9 9 -23 14 -31 11 -8 -3 -24 -6 -36
-7 -21 0 -21 -1 2 -10 14 -5 32 -7 40 -4 13 4 12 2 -1 -8 -10 -8 -15 -17 -11
-20 3 -4 13 -1 20 5 12 10 14 8 11 -8 -2 -14 3 -20 20 -22 16 -3 22 -8 18 -19
-5 -12 0 -13 24 -8 24 5 30 3 30 -10 0 -11 -5 -15 -14 -12 -7 3 -23 -1 -35 -9
-19 -14 -20 -13 -14 2 4 12 3 15 -5 10 -7 -4 -12 -16 -12 -27 0 -19 -15 -26
-24 -10 -3 5 -17 8 -31 8 -13 0 -23 -2 -21 -6 3 -4 -4 -7 -15 -7 -11 0 -18 5
-15 11 2 6 -6 12 -17 13 -17 1 -19 -1 -7 -8 13 -9 13 -11 0 -20 -19 -12 -30
-13 -30 0 0 5 -7 6 -17 3 -11 -5 -14 -3 -8 6 7 13 -6 11 -52 -6 -7 -3 -13 0
-13 6 0 6 -7 11 -15 11 -8 0 -15 -5 -15 -10 0 -6 3 -9 8 -8 7 3 12 -5 12 -23
0 -5 -4 -7 -10 -4 -5 3 -10 1 -10 -6 0 -7 10 -9 24 -7 14 3 31 1 38 -3 9 -6 5
-9 -12 -9 -19 0 -21 -3 -11 -9 11 -7 9 -10 -10 -14 -17 -3 -12 -5 16 -6 l40
-3 -30 -9 c-16 -5 -36 -7 -42 -4 -16 6 -17 -27 -2 -42 6 -6 8 -16 4 -22 -9
-15 -38 -10 -47 9 -4 10 -7 6 -7 -11 -1 -15 -8 -30 -17 -33 -23 -9 -27 -8 -20
9 3 8 1 15 -3 15 -11 0 -2 40 12 57 6 9 6 13 -1 13 -6 0 -19 3 -29 6 -16 5
-17 5 -1 -6 17 -11 14 -45 -3 -34 -5 3 -7 10 -4 15 4 5 -1 12 -9 15 -9 3 -16
10 -16 16 0 5 4 7 9 3 5 -3 12 -1 16 4 3 6 12 8 19 5 8 -3 17 -1 21 5 4 7 -13
9 -56 4 -51 -5 -63 -3 -71 10 -5 10 -16 17 -24 17 -8 0 -12 5 -9 10 3 6 1 10
-4 10 -6 0 -11 -4 -11 -10 0 -5 -7 -10 -15 -10 -18 0 -19 -12 -4 -27 8 -8 -1
-13 -37 -18 -27 -3 -62 -9 -77 -12 -28 -5 -28 -5 -11 16 12 14 22 17 28 11 6
-6 19 -9 31 -9 17 1 18 2 2 6 -16 4 -15 8 10 30 15 14 21 22 13 17 -10 -5 -8
0 4 14 19 22 19 22 -2 22 -13 0 -22 -6 -22 -15 0 -9 -6 -12 -15 -9 -13 6 -20
-6 -16 -28 1 -8 -28 -17 -69 -21 -14 -1 -29 -6 -33 -12 -5 -6 -7 -4 -4 5 2 8
11 14 20 14 9 -1 15 6 14 17 -1 18 -8 23 -23 17 -6 -3 -34 69 -34 90 0 7 6 10
13 7 6 -4 4 0 -6 8 -10 9 -17 17 -16 19 1 1 -1 32 -6 68 -10 90 -11 94 -29
195 -9 50 -21 113 -26 140 -4 28 -20 84 -34 124 -24 68 -27 119 -7 106 5 -2
122 0 262 6 140 5 361 13 491 15 234 6 237 6 235 -15 -2 -28 -97 -43 -259 -39
-71 2 -128 1 -128 -3 0 -4 -11 -9 -25 -11 -15 -3 -22 -1 -18 5 4 6 0 8 -10 4
-10 -3 -17 -3 -17 2 0 4 -15 3 -34 -3 -19 -6 -32 -15 -29 -20 3 -5 1 -6 -6 -2
-6 4 -9 12 -6 17 4 5 -3 9 -15 9 -12 0 -18 -5 -15 -10 3 -6 0 -13 -9 -16 -8
-3 -18 -24 -21 -47 -7 -41 -24 -67 -44 -67 -6 0 -11 -7 -11 -16 0 -14 28 -15
278 -10 790 18 1215 50 1402 106 19 5 56 11 83 12 l47 2 0 41 c-1 52 -24 69
-127 94 -96 24 -213 67 -234 87 -9 8 -34 19 -55 25 -22 5 -49 14 -61 19 -13 6
-34 15 -48 20 -14 6 -36 15 -50 20 -14 6 -36 15 -49 21 -13 6 -29 9 -34 5 -6
-3 -13 -2 -17 4 -4 6 14 10 47 10 29 0 134 9 233 20 419 46 497 71 273 86
l-123 9 -3 34 c-2 23 0 31 8 26 14 -8 39 -12 153 -20 l87 -6 0 140 c0 138 -7
168 -33 142 -6 -6 -21 -11 -33 -11 -14 0 -24 -8 -29 -22 -3 -13 -8 -18 -11
-12 -5 11 -54 7 -54 -5 0 -3 -19 -6 -42 -7 -24 -1 -69 -3 -101 -6 -71 -6 -86
7 -52 46 24 28 45 28 45 -1 0 -8 6 -13 13 -10 6 2 29 10 49 18 21 7 38 19 38
26 0 7 6 13 13 13 17 0 42 45 33 59 -4 6 -3 11 3 11 6 0 4 11 -4 26 -7 15 -11
32 -8 39 2 8 0 23 -7 34 l-11 21 -1164 0 c-1103 0 -1165 -1 -1164 -17 0 -11 3
-13 6 -5 7 17 31 15 51 -5 16 -15 16 -16 0 -11 -9 4 -19 4 -23 0 -4 -4 -12 -7
-18 -7 -7 0 -11 -28 -10 -82 0 -58 -4 -86 -13 -94 -18 -15 -18 -28 0 -48 8 -9
16 -34 18 -55 3 -37 1 -40 -27 -47 -16 -3 -39 -10 -49 -14 -15 -7 -17 -5 -11
5 6 10 4 12 -9 7 -10 -4 -26 -7 -37 -7 -21 0 -26 -26 -6 -33 6 -3 -5 -12 -27
-21 -21 -10 -40 -15 -43 -12 -3 3 -12 -1 -20 -9 -16 -17 -63 -20 -63 -5 0 6
-4 10 -10 10 -5 0 -9 -3 -9 -7 5 -31 -3 -49 -21 -49 -11 0 -20 4 -20 8 0 4 5
8 11 8 5 0 8 4 5 9 -4 5 0 12 6 14 9 4 9 6 1 6 -6 1 -9 10 -6 20 3 11 0 28 -6
38 -6 11 -11 13 -11 5 0 -10 -3 -10 -15 2 -19 19 -19 26 0 26 9 0 26 -11 39
-25 13 -14 30 -25 39 -25 8 0 18 -6 20 -12 4 -10 7 -10 15 0 5 8 20 11 35 8
38 -7 34 9 -5 21 -18 5 -32 15 -30 21 3 16 -15 16 -20 0 -3 -8 -15 -7 -44 6
-31 13 -34 16 -11 13 15 -2 27 -1 27 4 0 4 -23 8 -52 7 -43 0 -56 4 -71 24
l-19 23 26 3 c23 3 25 6 15 18 -6 8 -9 18 -5 21 4 4 10 3 14 -3 4 -5 18 -10
32 -9 21 0 25 5 25 33 0 17 -2 32 -5 33 -3 0 -13 2 -22 4 -10 2 -21 -2 -25 -8
-5 -7 -18 -18 -30 -25 -22 -12 -23 -11 -23 22 0 26 -5 36 -20 41 -11 3 -20 13
-20 21 0 9 -11 14 -30 14 -20 0 -30 -5 -30 -15 0 -8 5 -15 10 -15 6 0 10 -5
10 -11 0 -7 7 -17 17 -24 9 -7 13 -17 9 -24 -6 -9 -13 -8 -26 4 -10 9 -34 18
-52 18 -18 1 -36 6 -39 11 -4 4 -10 3 -13 -3 -4 -6 -4 -11 1 -12 43 -4 54 -7
60 -13 13 -12 -21 -26 -51 -20 -28 5 -29 4 -13 -18 13 -20 22 -23 73 -20 38 2
60 -2 66 -10 11 -18 10 -30 -2 -23 -6 3 -10 1 -10 -5 0 -6 -5 -8 -10 -5 -6 4
-17 1 -25 -5 -8 -7 -33 -14 -57 -16 -23 -2 -50 -6 -58 -9 -9 -3 -25 4 -35 15
-10 11 -13 20 -7 20 25 0 12 46 -18 63 -16 10 -30 22 -30 27 0 17 -53 37 -128
50 -58 9 -76 17 -88 35 -9 13 -31 29 -50 35 -19 7 -39 20 -44 31 -10 17 -7 19
20 19 21 0 43 -12 73 -37 23 -21 53 -44 66 -51 21 -12 23 -12 18 2 -5 11 3 17
28 22 19 3 39 12 46 20 14 17 70 19 87 2 15 -15 103 -28 124 -17 9 5 19 22 23
39 7 34 16 37 36 14 8 -10 23 -14 41 -12 18 3 28 0 28 -8 0 -6 7 -15 16 -18 8
-3 13 -9 11 -14 -3 -4 1 -16 9 -26 13 -18 17 -17 110 28 55 26 104 44 114 41
12 -4 19 1 24 17 3 13 1 25 -4 26 -6 2 -10 10 -10 18 0 21 -247 20 -274 -1
-11 -8 -25 -15 -30 -15 -6 1 0 7 14 14 22 13 13 14 -85 15 -105 1 -108 1 -92
-17 19 -20 22 -48 8 -57 -5 -3 -13 0 -16 6 -4 6 -27 19 -51 29 -24 11 -44 24
-44 30 0 7 -182 10 -565 10 -531 0 -565 -1 -565 -17z m2100 -3 c0 -5 -5 -10
-11 -10 -5 0 -7 5 -4 10 3 6 8 10 11 10 2 0 4 -4 4 -10z m-33 -32 c-3 -8 -6
-5 -6 6 -1 11 2 17 5 13 3 -3 4 -12 1 -19z m-97 -4 c0 -8 -5 -12 -10 -9 -6 4
-8 11 -5 16 9 14 15 11 15 -7z m-1767 -29 c1 -5 -13 -11 -30 -13 -34 -3 -46
13 -15 21 24 7 43 4 45 -8z m1767 -58 c10 -17 10 -23 -4 -32 -9 -7 -16 -20
-16 -29 0 -9 -7 -16 -16 -16 -14 0 -14 3 -4 15 11 13 10 18 -8 31 -14 10 -22
26 -22 44 0 27 1 28 29 17 15 -5 34 -19 41 -30z m88 -3 c-4 -3 -12 5 -18 18
-12 22 -12 22 6 6 10 -10 15 -20 12 -24z m162 22 c0 -21 -20 -30 -33 -17 -9 9
-8 14 3 21 21 14 30 12 30 -4z m67 -50 c10 -7 -19 -24 -49 -29 -39 -6 -50 7
-27 30 9 9 62 8 76 -1z m-1299 -70 c-3 -15 -5 -16 -23 -2 -17 13 -18 17 -5 25
18 12 33 -1 28 -23z m1277 4 c3 -5 1 -10 -4 -10 -6 0 -11 5 -11 10 0 6 2 10 4
10 3 0 8 -4 11 -10z m-2085 -16 c0 -14 -3 -14 -15 -4 -8 7 -15 14 -15 16 0 2
7 4 15 4 8 0 15 -7 15 -16z m2166 -9 c-3 -10 1 -15 13 -15 21 0 44 -23 34 -33
-3 -4 -12 -2 -20 4 -7 6 -24 9 -38 7 -29 -6 -32 8 -7 33 21 22 26 23 18 4z
m1647 5 c21 -1 21 -1 -3 -15 -35 -20 -49 -18 -47 5 1 13 6 19 15 15 7 -3 23
-5 35 -5z m-1999 -16 c3 -8 10 -12 16 -9 5 3 10 1 10 -4 0 -11 -13 -15 -40
-11 -12 1 -13 -1 -2 -11 16 -17 15 -39 -2 -39 -8 0 -16 -4 -18 -10 -1 -5 -13
-7 -25 -4 -19 5 -23 13 -23 44 0 33 3 37 20 33 12 -3 22 1 26 11 8 20 30 21
38 0z m263 9 c-4 -3 -10 -3 -14 0 -3 4 0 7 7 7 7 0 10 -3 7 -7z m-1630 -30
c-4 -3 -7 0 -7 7 0 7 3 10 7 7 3 -4 3 -10 0 -14z m1980 -10 c-4 -3 -7 0 -7 7
0 7 3 10 7 7 3 -4 3 -10 0 -14z m1270 10 c-4 -3 -10 -3 -14 0 -3 4 0 7 7 7 7
0 10 -3 7 -7z m-2440 -10 c-4 -3 -10 -3 -14 0 -3 4 0 7 7 7 7 0 10 -3 7 -7z
m2788 -3 c4 -6 -12 -9 -42 -9 l-48 2 40 7 c22 4 41 8 42 9 1 0 5 -3 8 -9z m85
0 c-19 -13 -30 -13 -30 0 0 6 10 10 23 10 18 0 19 -2 7 -10z m-3468 -25 c16
-14 36 -25 45 -25 11 0 9 5 -8 18 l-22 19 52 7 c42 6 59 3 85 -12 17 -10 45
-22 61 -26 39 -10 97 -45 90 -56 -3 -4 2 -11 11 -14 9 -3 14 -13 11 -21 -4 -8
-1 -12 6 -10 19 7 41 -11 32 -26 -6 -9 -10 -8 -16 7 -6 16 -8 16 -8 2 -1 -9
-11 -18 -23 -20 -16 -2 -22 -9 -21 -23 1 -19 1 -19 -11 -2 -7 9 -19 17 -25 17
-13 0 -32 14 -62 46 -12 13 -34 21 -57 22 -20 1 -52 4 -69 6 -18 3 -33 0 -33
-5 0 -5 4 -9 9 -9 5 0 12 -8 16 -17 4 -12 -3 -9 -22 9 -16 15 -50 35 -76 44
-26 9 -47 19 -48 22 -5 43 -6 58 -2 65 9 16 57 6 85 -18z m-154 -11 c12 -4 22
-11 22 -16 0 -14 -53 -5 -58 10 -4 13 2 15 36 6z m1392 -3 c0 -6 -4 -12 -8
-15 -5 -3 -9 1 -9 9 0 8 4 15 9 15 4 0 8 -4 8 -9z m-734 -66 c1 -11 6 -38 10
-59 l7 -39 -40 22 c-29 17 -43 34 -55 65 l-15 42 45 -6 c36 -4 46 -9 48 -25z
m2621 -12 c-4 -3 -10 -3 -14 0 -3 4 0 7 7 7 7 0 10 -3 7 -7z m-1550 -10 c-4
-3 -10 -3 -14 0 -3 4 0 7 7 7 7 0 10 -3 7 -7z m-1170 -20 c-4 -3 -7 0 -7 7 0
7 3 10 7 7 3 -4 3 -10 0 -14z m530 -10 c-4 -3 -10 -3 -14 0 -3 4 0 7 7 7 7 0
10 -3 7 -7z m685 -23 c3 -16 1 -30 -4 -30 -4 0 -8 14 -8 30 0 17 2 30 4 30 2
0 6 -13 8 -30z m-892 -40 c6 0 8 -5 5 -10 -8 -13 -51 -2 -89 21 -30 18 -29 19
14 32 8 2 25 -7 37 -20 12 -12 27 -23 33 -23z m2217 43 c-4 -3 -10 -3 -14 0
-3 4 0 7 7 7 7 0 10 -3 7 -7z m143 -8 c0 -18 1 -18 -75 -1 l-60 14 68 1 c53 1
67 -2 67 -14z m192 -14 l4 -30 -100 1 c-56 0 -96 2 -90 4 6 3 9 16 6 29 l-4
25 90 0 90 0 4 -29z m-2789 -63 c14 -27 22 -48 17 -48 -5 0 -12 5 -15 10 -4 6
-11 8 -16 5 -10 -7 -22 22 -33 75 -6 30 -5 33 8 20 8 -8 26 -36 39 -62z m170
15 c-3 -7 1 -13 9 -13 8 0 20 -12 27 -26 11 -25 10 -26 -13 -22 -14 3 -23 1
-20 -3 10 -16 -25 -9 -58 11 -38 23 -66 27 -51 8 5 -7 14 -25 21 -40 18 -43
-10 -36 -31 7 -21 45 -21 55 1 55 16 1 16 1 -1 11 -9 5 -21 8 -25 5 -4 -2 -15
9 -25 25 -9 17 -11 27 -4 22 6 -4 32 -20 56 -35 49 -30 61 -34 61 -17 0 13
-26 40 -37 38 -30 -5 -32 5 -4 15 31 11 39 10 67 -8 17 -12 29 -27 27 -33z
m-279 15 c-3 -5 8 -11 25 -14 34 -7 36 -11 21 -34 -9 -13 -12 -13 -24 2 -7 10
-15 15 -18 13 -6 -7 -70 37 -75 51 -3 8 7 9 36 1 22 -6 38 -15 35 -19z m435
-65 c12 -27 12 -27 116 -8 78 15 421 46 480 44 29 -1 30 -1 5 -9 l-25 -8 28
-1 c15 -1 40 5 55 12 32 16 336 41 386 32 35 -7 51 -31 35 -56 -6 -10 -10 -8
-17 10 -8 22 -9 22 -25 7 -9 -9 -27 -16 -39 -15 -54 5 -68 0 -68 -25 0 -32
-10 -37 -48 -27 -50 15 -50 -14 0 -60 45 -41 64 -49 54 -24 -7 20 32 20 58 0
14 -11 23 -12 33 -4 9 8 13 8 13 0 0 -6 -4 -11 -10 -11 -16 0 -12 -22 8 -36
16 -12 15 -13 -6 -14 -13 0 -30 -7 -38 -15 -9 -8 -13 -15 -9 -15 4 0 0 -6 -8
-14 -10 -11 -60 -15 -203 -19 -104 -3 -197 -7 -208 -9 -13 -2 -28 14 -56 59
-21 34 -36 64 -33 66 7 8 -61 46 -93 51 -51 9 -173 -10 -196 -31 -24 -22 -62
-93 -77 -148 -15 -54 -41 -229 -41 -284 0 -37 -2 -42 -15 -31 -11 9 -10 2 4
-31 28 -62 58 -176 80 -304 10 -60 26 -123 35 -140 9 -16 16 -36 16 -44 0 -29
33 -148 56 -199 13 -29 41 -78 63 -110 52 -76 67 -124 51 -163 -18 -42 -63
-63 -114 -54 -23 4 -70 8 -105 9 l-64 1 -84 165 c-47 91 -96 176 -109 191 -25
26 -36 75 -12 51 13 -13 49 -15 86 -6 21 6 21 8 9 28 -19 29 -41 98 -38 118 2
17 -82 108 -100 108 -5 0 -9 5 -9 11 0 6 -11 25 -25 43 -14 17 -29 36 -33 41
-9 12 -36 76 -38 90 0 6 -2 20 -2 33 -1 13 -6 20 -12 17 -5 -3 -10 -4 -10 -1
0 2 -3 11 -6 19 -6 17 7 23 106 47 101 25 179 55 214 84 27 23 28 26 16 55
-12 31 -13 31 -34 14 -15 -13 -17 -14 -8 -2 6 9 9 19 5 22 -3 4 -2 7 4 7 21 0
23 33 4 66 -17 28 -18 34 -6 34 8 0 15 -8 15 -17 0 -18 13 -10 16 10 1 7 6 30
11 52 16 70 15 160 -2 201 -15 36 -15 39 1 51 10 7 12 13 6 13 -26 0 -10 19
26 29 l37 10 -45 -6 c-25 -3 -47 -10 -49 -15 -1 -5 -9 -1 -17 9 -7 10 -14 13
-14 7 0 -22 -47 -2 -64 27 -20 33 -13 53 15 44 19 -6 27 9 9 20 -5 3 -7 12 -4
20 5 11 12 6 30 -18 13 -17 28 -42 33 -54z m1526 77 c-11 -5 -33 -9 -50 -9
-23 -1 -26 2 -15 9 8 5 31 9 50 9 29 0 31 -2 15 -9z m-1728 -117 c-4 -3 -7 0
-7 7 0 7 3 10 7 7 3 -4 3 -10 0 -14z m104 0 c13 -16 12 -17 -3 -4 -10 7 -18
15 -18 17 0 8 8 3 21 -13z m-1034 -38 c8 -23 -23 -52 -81 -74 -61 -22 -74 -39
-60 -78 9 -25 15 -28 50 -26 l39 2 -47 -24 c-26 -14 -51 -32 -56 -42 -8 -14
-12 -12 -27 17 -17 33 -17 34 6 52 20 15 22 19 9 28 -8 5 -25 10 -38 10 -19 0
-21 4 -16 24 4 17 0 27 -12 34 -16 9 -16 10 4 16 12 4 30 2 41 -3 44 -24 91
-3 55 24 -18 13 -17 14 11 25 82 33 113 37 122 15z m868 5 c3 -6 -5 -10 -19
-10 -14 0 -30 -8 -35 -17 -10 -17 -10 -17 -11 -1 0 28 51 50 65 28z m-520 -10
c3 -5 4 -10 1 -10 -3 0 -8 5 -11 10 -3 6 -4 10 -1 10 3 0 8 -4 11 -10z m552 3
c-4 -3 -10 -3 -14 0 -3 4 0 7 7 7 7 0 10 -3 7 -7z m183 -70 c0 -2 -7 -3 -15
-3 -8 0 -22 14 -31 32 l-17 32 32 -29 c17 -17 31 -31 31 -32z m-586 20 c41 -5
49 -10 58 -34 5 -15 18 -29 30 -32 11 -3 17 -10 13 -16 -3 -6 -1 -11 4 -11 6
0 11 -9 11 -19 0 -25 16 -36 27 -17 7 12 10 12 21 0 7 -8 9 -14 4 -14 -6 0
-12 -13 -14 -29 -2 -17 -1 -28 4 -25 4 3 8 0 8 -5 0 -18 -38 -12 -49 7 -6 9
-11 13 -11 7 0 -5 -18 8 -40 30 -34 33 -40 36 -46 21 -7 -17 -2 -22 36 -46 8
-4 11 -12 7 -16 -4 -5 -40 24 -79 64 -63 64 -68 71 -39 61 17 -6 39 -8 49 -4
16 6 16 7 -2 21 -11 8 -16 14 -12 14 5 0 -9 14 -30 32 -22 17 -30 28 -19 24
11 -4 42 -10 69 -13z m331 -3 c3 -5 1 -10 -4 -10 -6 0 -11 5 -11 10 0 6 2 10
4 10 3 0 8 -4 11 -10z m-1328 -127 c-3 -10 -5 -4 -5 12 0 17 2 24 5 18 2 -7 2
-21 0 -30z m2460 -20 c-20 -2 -52 -2 -70 0 -17 2 0 4 38 4 39 0 53 -2 32 -4z
m783 -28 c-7 -9 -15 -13 -19 -10 -3 3 1 10 9 15 21 14 24 12 10 -5z m-2241
-270 c6 -34 12 -43 46 -59 22 -10 69 -26 105 -35 l66 -16 28 -102 c16 -56 37
-114 47 -130 26 -38 25 -57 0 -41 -11 7 -18 15 -15 19 3 6 -35 17 -96 26 -14
3 -51 5 -82 5 -50 0 -57 3 -60 22 -2 12 -11 22 -23 23 -11 2 -14 0 -7 -3 23
-11 12 -24 -21 -24 -21 0 -41 -8 -52 -20 -10 -11 -29 -20 -42 -20 -21 0 -22 3
-13 20 13 24 -5 27 -33 6 -16 -12 -16 -15 -2 -29 8 -9 15 -18 15 -22 0 -10 23
-30 48 -44 23 -12 47 -7 37 9 -3 5 0 12 6 16 9 5 11 -6 7 -39 -4 -36 -2 -47
11 -52 14 -6 14 -7 -2 -16 -24 -14 -13 -27 18 -21 18 3 25 0 25 -12 0 -9 -4
-16 -10 -16 -5 0 -10 6 -10 13 0 7 -3 8 -8 2 -4 -5 -16 -12 -27 -13 -11 -2
-26 -9 -32 -14 -9 -7 -13 -7 -13 1 0 6 -13 11 -30 11 -17 0 -30 -5 -30 -12 0
-7 -11 -18 -25 -24 -21 -10 -25 -9 -30 7 -4 10 -12 19 -18 19 -7 0 -6 4 3 11
11 8 12 12 2 16 -6 2 -10 9 -6 14 3 5 -1 9 -9 9 -15 0 -21 38 -33 204 -3 43
-9 99 -15 125 -18 89 -29 173 -23 182 10 16 82 49 108 49 20 0 25 6 29 38 13
87 27 168 33 182 7 20 124 -212 133 -265z m-392 239 c-3 -3 -12 -4 -19 -1 -8
3 -5 6 6 6 11 1 17 -2 13 -5z m74 -25 c58 -18 39 -26 -51 -24 -44 1 -83 -2
-86 -6 -3 -5 -38 -9 -77 -8 -98 1 -58 15 67 25 52 4 93 11 90 15 -7 12 11 11
57 -2z m-384 -37 c10 -6 10 -15 1 -39 -10 -26 -8 -38 10 -81 27 -62 27 -62 0
-61 -19 1 -20 2 -4 6 17 5 16 6 -4 16 -23 12 -58 90 -59 134 -1 28 30 42 56
25z m1049 -40 c-4 -3 -14 2 -24 12 -16 18 -16 18 6 6 13 -6 21 -14 18 -18z
m131 -7 c0 -8 -6 -15 -14 -15 -17 0 -17 17 0 23 6 3 12 6 13 6 0 1 1 -6 1 -14z
m-974 -27 c65 -35 86 -54 87 -78 0 -8 15 -24 32 -35 29 -18 34 -29 50 -105 40
-192 44 -218 36 -239 -4 -12 -3 -32 2 -45 5 -14 10 -54 11 -91 2 -45 7 -68 17
-74 11 -6 14 -30 13 -100 -1 -65 3 -101 14 -122 9 -16 14 -33 11 -38 -3 -4 5
-22 17 -41 61 -92 66 -102 55 -129 -19 -51 -47 -71 -99 -71 -27 0 -64 -8 -83
-17 -34 -16 -37 -15 -71 3 -28 15 -35 24 -33 46 1 14 -3 37 -10 50 -6 13 -30
64 -52 113 -23 50 -54 104 -69 120 -16 17 -31 43 -35 58 -7 27 -6 28 29 21 22
-4 41 -2 50 6 12 10 12 15 -2 36 -15 24 -15 25 5 31 27 7 28 19 2 26 -11 3
-20 11 -20 17 0 7 7 10 18 6 16 -6 16 -5 0 8 -23 17 -23 27 -1 19 11 -4 14 -3
9 5 -4 7 -12 12 -17 12 -22 0 -47 38 -59 89 -9 39 -23 64 -49 90 -43 42 -58
82 -66 171 -3 36 -8 73 -11 82 -4 13 2 17 28 20 l33 3 -30 17 -30 17 27 1 c17
0 33 -8 40 -20 8 -12 24 -20 39 -20 23 0 25 3 21 30 -5 38 15 40 48 5 17 -18
34 -25 62 -25 42 0 42 -1 29 34 -7 16 -29 33 -71 52 -40 18 -59 32 -56 40 3 8
-3 18 -12 24 -15 8 -15 11 -2 20 22 14 25 13 93 -22z m185 20 c-3 -7 -18 -14
-34 -16 -28 -2 -28 -2 -10 13 24 18 49 20 44 3z m947 -7 c-3 -6 -11 -11 -17
-11 -6 0 -6 6 2 15 14 17 26 13 15 -4z m1305 9 c-20 -13 -40 -13 -40 0 0 6 12
10 28 10 21 0 24 -2 12 -10z m1173 -240 c7 0 12 -14 13 -31 1 -17 -2 -25 -6
-19 -4 6 -10 11 -14 11 -20 -3 -26 0 -20 10 4 7 -1 10 -12 7 -11 -2 -20 -13
-22 -27 -3 -20 0 -23 15 -17 14 5 15 4 6 -4 -7 -8 -25 -10 -51 -5 -37 6 -41 9
-40 36 1 25 6 29 37 35 20 3 41 7 46 9 6 2 16 2 23 -1 8 -2 19 -4 25 -4z m80
-71 c-2 -10 9 -14 40 -15 23 -1 32 1 20 3 -13 2 -23 12 -23 21 0 12 3 13 12 4
7 -7 21 -12 32 -12 20 0 20 0 -1 -22 -16 -16 -35 -22 -70 -23 -27 -1 -54 -5
-62 -9 -8 -5 -16 -4 -21 4 -6 10 -16 10 -49 -4 -41 -16 -42 -16 -31 4 6 11 20
21 30 21 32 2 38 4 45 11 4 4 12 5 19 2 6 -2 18 5 26 16 16 22 36 21 33 -1z
m-518 -59 c3 -5 -1 -10 -9 -10 -9 0 -16 5 -16 10 0 6 4 10 9 10 6 0 13 -4 16
-10z m332 3 c-4 -3 -10 -3 -14 0 -3 4 0 7 7 7 7 0 10 -3 7 -7z m-356 -40 c10
3 19 1 19 -5 0 -16 -45 -4 -46 12 -1 10 0 11 3 2 3 -8 13 -12 24 -9z m456 5
c-3 -8 -6 -5 -6 6 -1 11 2 17 5 13 3 -3 4 -12 1 -19z m-752 -8 c7 -12 -2 -12
-30 0 -19 8 -19 9 2 9 12 1 25 -3 28 -9z m382 -7 c-4 -3 -10 -3 -14 0 -3 4 0
7 7 7 7 0 10 -3 7 -7z m-2760 -40 c-4 -3 -10 -3 -14 0 -3 4 0 7 7 7 7 0 10 -3
7 -7z m2178 -3 c3 -5 1 -10 -4 -10 -6 0 -11 5 -11 10 0 6 2 10 4 10 3 0 8 -4
11 -10z m-2015 -4 c0 -2 -7 -7 -16 -10 -8 -3 -12 -2 -9 4 6 10 25 14 25 6z
m3157 -33 c-4 -3 -10 -3 -14 0 -3 4 0 7 7 7 7 0 10 -3 7 -7z m-3100 -10 c-4
-3 -10 -3 -14 0 -3 4 0 7 7 7 7 0 10 -3 7 -7z m-127 -7 c0 -3 -4 -8 -10 -11
-5 -3 -10 -1 -10 4 0 6 5 11 10 11 6 0 10 -2 10 -4z m2570 -16 c0 -5 -4 -10
-10 -10 -5 0 -10 5 -10 10 0 6 5 10 10 10 6 0 10 -4 10 -10z m-391 -4 c-2 -2
-15 -9 -29 -15 -24 -11 -24 -11 -6 3 16 13 49 24 35 12z m1048 -23 c-4 -3 -10
-3 -14 0 -3 4 0 7 7 7 7 0 10 -3 7 -7z m-1124 -10 c-7 -2 -19 -2 -25 0 -7 3
-2 5 12 5 14 0 19 -2 13 -5z m14 -20 c-4 -3 -10 -3 -14 0 -3 4 0 7 7 7 7 0 10
-3 7 -7z m68 -3 c-3 -5 0 -10 7 -11 7 0 4 -4 -7 -8 -30 -12 -50 -2 -28 15 21
16 37 18 28 4z m72 -7 c-4 -3 -7 0 -7 7 0 7 3 10 7 7 3 -4 3 -10 0 -14z
m-1777 -3 c0 -5 -5 -10 -11 -10 -5 0 -7 5 -4 10 3 6 8 10 11 10 2 0 4 -4 4
-10z m1324 2 c2 -4 -5 -9 -17 -9 -17 -2 -19 0 -7 7 18 12 18 12 24 2z m436 -2
c0 -5 -7 -10 -16 -10 -8 0 -12 5 -9 10 3 6 10 10 16 10 5 0 9 -4 9 -10z m-300
-17 c0 -7 7 -13 15 -13 8 0 15 -4 15 -10 0 -17 -18 -11 -41 13 -12 12 -18 16
-14 8 6 -11 4 -13 -9 -8 -10 4 -21 7 -24 8 -11 1 31 16 45 16 7 0 13 -6 13
-14z m116 8 c-5 -8 -56 -3 -56 5 0 2 14 4 31 4 16 0 28 -4 25 -9z m911 2 c-4
-3 -10 -3 -14 0 -3 4 0 7 7 7 7 0 10 -3 7 -7z m100 0 c-4 -3 -10 -3 -14 0 -3
4 0 7 7 7 7 0 10 -3 7 -7z m-710 -20 c-4 -3 -10 -3 -14 0 -3 4 0 7 7 7 7 0 10
-3 7 -7z m-1247 -29 c0 -23 27 -16 34 9 5 18 8 20 16 7 17 -26 11 -35 -25 -37
-19 -2 -35 2 -35 7 0 7 -6 7 -20 0 -16 -9 -20 -8 -20 5 0 8 9 15 21 15 13 0
18 4 13 12 -4 7 -3 8 4 4 7 -4 12 -14 12 -22z m82 1 c3 -14 2 -25 -2 -25 -4 0
-10 11 -12 25 -3 14 -2 25 2 25 4 0 10 -11 12 -25z m658 5 c0 -5 -4 -10 -10
-10 -5 0 -10 5 -10 10 0 6 5 10 10 10 6 0 10 -4 10 -10z m-823 -20 c1 -11 -2
-22 -6 -24 -3 -3 -8 6 -9 20 -1 13 2 24 6 24 4 0 8 -9 9 -20z m20 -12 c-3 -7
-5 -2 -5 12 0 14 2 19 5 13 2 -7 2 -19 0 -25z m833 22 c0 -5 -2 -10 -4 -10 -3
0 -8 5 -11 10 -3 6 -1 10 4 10 6 0 11 -4 11 -10z m130 -4 c0 -3 -5 -8 -12 -12
-7 -4 -8 -3 -4 4 7 12 16 16 16 8z m-690 -16 c0 -5 -4 -10 -10 -10 -5 0 -10 5
-10 10 0 6 5 10 10 10 6 0 10 -4 10 -10z m1257 -7 c-4 -3 -7 0 -7 7 0 7 3 10
7 7 3 -4 3 -10 0 -14z m-981 -2 c-5 -8 -56 -3 -56 5 0 2 14 4 31 4 16 0 28 -4
25 -9z m254 5 c0 -3 -4 -8 -10 -11 -5 -3 -10 -1 -10 4 0 6 5 11 10 11 6 0 10
-2 10 -4z m157 -23 c-4 -3 -7 0 -7 7 0 7 3 10 7 7 3 -4 3 -10 0 -14z m-2297
-3 c0 -5 -2 -10 -4 -10 -3 0 -8 5 -11 10 -3 6 -1 10 4 10 6 0 11 -4 11 -10z
m1737 3 c-4 -3 -10 -3 -14 0 -3 4 0 7 7 7 7 0 10 -3 7 -7z m114 -35 c6 -11 5
-19 -3 -24 -7 -4 -10 -4 -6 1 4 4 -2 17 -14 27 -19 16 -20 21 -8 28 10 6 16 5
19 -3 2 -7 8 -20 12 -29z m409 32 c0 -5 -5 -10 -11 -10 -5 0 -7 5 -4 10 3 6 8
10 11 10 2 0 4 -4 4 -10z m997 3 c-4 -3 -10 -3 -14 0 -3 4 0 7 7 7 7 0 10 -3
7 -7z m-1660 -10 c-4 -3 -10 -3 -14 0 -3 4 0 7 7 7 7 0 10 -3 7 -7z m40 0 c-4
-3 -10 -3 -14 0 -3 4 0 7 7 7 7 0 10 -3 7 -7z m-1534 -10 c-7 -2 -19 -2 -25 0
-7 3 -2 5 12 5 14 0 19 -2 13 -5z m174 0 c-4 -3 -10 -3 -14 0 -3 4 0 7 7 7 7
0 10 -3 7 -7z m1440 0 c-4 -3 -10 -3 -14 0 -3 4 0 7 7 7 7 0 10 -3 7 -7z m433
-5 c0 -4 -4 -8 -9 -8 -5 0 -16 -3 -25 -6 -9 -3 -16 -1 -16 6 0 6 5 8 10 5 6
-3 10 -2 10 3 0 5 7 9 15 9 8 0 15 -4 15 -9z m-363 -5 c-4 -3 -10 -3 -14 0 -3
4 0 7 7 7 7 0 10 -3 7 -7z m-97 -17 c0 -11 -19 -15 -25 -6 -3 5 1 10 9 10 9 0
16 -2 16 -4z m127 -13 c-4 -3 -7 0 -7 7 0 7 3 10 7 7 3 -4 3 -10 0 -14z m270
11 c-3 -3 -12 -4 -19 -1 -8 3 -5 6 6 6 11 1 17 -2 13 -5z m-150 -31 c-4 -3
-10 -3 -14 0 -3 4 0 7 7 7 7 0 10 -3 7 -7z m-182 -13 c-3 -5 -12 -10 -18 -10
-7 0 -6 4 3 10 19 12 23 12 15 0z m292 -7 c-4 -3 -10 -3 -14 0 -3 4 0 7 7 7 7
0 10 -3 7 -7z m48 -19 c20 -15 20 -16 -4 -12 -14 2 -26 9 -29 16 -5 16 9 15
33 -4z m125 -4 c0 -5 -8 -10 -17 -10 -15 0 -16 2 -3 10 19 12 20 12 20 0z
m160 -6 c0 -2 -7 -4 -15 -4 -8 0 -15 4 -15 10 0 5 7 7 15 4 8 -4 15 -8 15 -10z
m-243 -21 c-4 -3 -7 0 -7 7 0 7 3 10 7 7 3 -4 3 -10 0 -14z m110 10 c-4 -3
-10 -3 -14 0 -3 4 0 7 7 7 7 0 10 -3 7 -7z m-4 -20 c-7 -2 -19 -2 -25 0 -7 3
-2 5 12 5 14 0 19 -2 13 -5z m-2616 -10 c-4 -3 -10 -3 -14 0 -3 4 0 7 7 7 7 0
10 -3 7 -7z m2463 -3 c0 -5 -5 -10 -11 -10 -5 0 -7 5 -4 10 3 6 8 10 11 10 2
0 4 -4 4 -10z m-40 -44 c0 -3 -5 -8 -12 -12 -7 -4 -8 -3 -4 4 7 12 16 16 16 8z
m-765 -16 c14 -5 24 -14 20 -19 -3 -5 0 -13 6 -17 8 -5 9 -3 4 6 -6 10 -4 12
8 7 9 -3 32 0 51 8 49 21 90 19 111 -5 15 -16 17 -30 12 -82 -4 -35 -14 -83
-22 -107 -23 -63 -14 -71 23 -21 21 28 34 61 38 92 4 26 10 48 15 48 4 0 2 21
-6 47 l-14 47 21 -21 c45 -46 30 -187 -29 -265 -27 -36 -81 -77 -165 -125 -21
-12 -66 -43 -101 -69 -92 -69 -129 -82 -219 -72 -10 1 -18 5 -18 9 0 3 -9 9
-20 12 -40 10 -19 24 33 21 51 -3 51 -2 12 6 -35 8 -33 8 20 5 33 -2 54 0 46
4 -17 11 34 25 52 15 7 -4 9 -4 5 1 -4 4 15 19 42 33 28 14 50 29 50 33 0 4
-16 13 -34 20 l-35 13 31 35 c48 54 71 113 57 148 -6 15 -12 49 -13 74 l-2 47
26 -15 c25 -15 24 -15 -2 10 -33 31 -34 34 -10 40 14 3 12 6 -10 15 -55 23
-40 44 17 22z m1142 -17 c-4 -3 -10 -3 -14 0 -3 4 0 7 7 7 7 0 10 -3 7 -7z
m-390 -30 c-4 -3 -10 -3 -14 0 -3 4 0 7 7 7 7 0 10 -3 7 -7z m260 -10 c-4 -3
-10 -3 -14 0 -3 4 0 7 7 7 7 0 10 -3 7 -7z m-2131 -29 c66 -22 71 -27 79 -81
4 -25 12 -54 18 -64 9 -14 8 -22 -6 -36 -10 -10 -27 -30 -38 -46 -11 -15 -40
-39 -64 -53 -35 -20 -48 -23 -64 -14 -20 10 -20 11 4 57 22 40 25 58 23 135
-1 65 -5 88 -15 88 -7 0 -13 7 -13 15 0 19 15 19 76 -1z m1834 7 c0 -6 -4 -12
-8 -15 -5 -3 -9 1 -9 9 0 8 4 15 9 15 4 0 8 -4 8 -9z m70 -54 c10 3 11 2 4 -4
-6 -4 -10 -15 -9 -24 2 -10 -4 -15 -19 -14 -11 2 -20 7 -19 12 1 6 -13 9 -32
7 -22 -1 -35 2 -35 9 0 7 -4 6 -10 -3 -7 -11 -10 -11 -10 -2 0 7 -5 10 -12 6
-7 -4 -8 -3 -4 4 4 7 22 10 42 8 19 -3 34 -1 34 4 0 5 12 5 28 1 15 -4 34 -6
42 -4z m-830 -132 c-12 -13 -27 -22 -31 -19 -5 3 -9 1 -9 -5 0 -6 -8 -7 -17
-4 -12 5 -15 2 -10 -10 5 -13 1 -17 -15 -17 -18 0 -12 9 32 50 34 30 58 46 64
40 6 -6 1 -19 -14 -35z m360 -49 c0 -2 -8 -10 -17 -17 -16 -13 -17 -12 -4 4
13 16 21 21 21 13z m-103 -62 c-3 -3 -12 -4 -19 -1 -8 3 -5 6 6 6 11 1 17 -2
13 -5z m-40 -10 c-3 -3 -12 -4 -19 -1 -8 3 -5 6 6 6 11 1 17 -2 13 -5z m-1429
-146 c-27 -49 -70 -77 -124 -81 -33 -2 -39 1 -42 20 -2 12 -11 24 -20 26 -12
3 -11 5 5 6 66 3 125 25 160 58 45 41 53 29 21 -29z m1769 15 c-4 -3 -7 0 -7
7 0 7 3 10 7 7 3 -4 3 -10 0 -14z m-1830 -10 c-4 -3 -10 -3 -14 0 -3 4 0 7 7
7 7 0 10 -3 7 -7z m-30 -9 c-3 -3 -12 -4 -19 -1 -8 3 -5 6 6 6 11 1 17 -2 13
-5z m-60 -11 c-4 -3 -10 -3 -14 0 -3 4 0 7 7 7 7 0 10 -3 7 -7z m1867 -19 c3
-8 2 -12 -4 -9 -6 3 -10 10 -10 16 0 14 7 11 14 -7z m-1935 -10 c-6 -8 -15
-14 -19 -14 -4 0 -10 6 -13 14 -4 9 2 14 19 14 20 0 22 -3 13 -14z m-499 -8
c0 -3 -5 -8 -12 -12 -7 -4 -8 -3 -4 4 7 12 16 16 16 8z m-173 -33 c-4 -3 -7 0
-7 7 0 7 3 10 7 7 3 -4 3 -10 0 -14z m130 10 c-4 -3 -10 -3 -14 0 -3 4 0 7 7
7 7 0 10 -3 7 -7z m3420 -30 c-4 -3 -10 -3 -14 0 -3 4 0 7 7 7 7 0 10 -3 7 -7z
m-2090 -79 c-3 -3 -12 -4 -19 -1 -8 3 -5 6 6 6 11 1 17 -2 13 -5z m2320 -71
c-4 -3 -7 0 -7 7 0 7 3 10 7 7 3 -4 3 -10 0 -14z m-897 -17 c0 -3 -5 -8 -12
-12 -7 -4 -8 -3 -4 4 7 12 16 16 16 8z"/>
<path d="M1563 2263 c4 -3 10 -3 14 0 3 4 0 7 -7 7 -7 0 -10 -3 -7 -7z"/>
<path d="M1600 2240 c-12 -8 -10 -10 8 -10 13 0 20 4 17 10 -7 12 -6 12 -25 0z"/>
<path d="M2165 2222 c11 -2 26 -12 33 -21 13 -15 13 -15 8 1 -3 10 1 18 12 21
9 2 -3 4 -28 4 -25 0 -36 -2 -25 -5z"/>
<path d="M2040 2211 c0 -5 17 -7 38 -4 51 7 53 13 4 13 -23 0 -42 -4 -42 -9z"/>
<path d="M1973 2203 c9 -2 25 -2 35 0 9 3 1 5 -18 5 -19 0 -27 -2 -17 -5z"/>
<path d="M1903 2193 c9 -2 23 -2 30 0 6 3 -1 5 -18 5 -16 0 -22 -2 -12 -5z"/>
<path d="M2258 2095 c17 -32 61 -81 62 -69 0 6 -16 29 -36 50 -20 22 -32 30
-26 19z"/>
<path d="M2707 2049 c-5 -20 16 -26 41 -11 9 6 6 12 -12 20 -21 9 -25 8 -29
-9z"/>
<path d="M955 1340 c-17 -18 -17 -20 -1 -20 9 0 19 7 23 15 9 25 -2 27 -22 5z"/>
<path d="M1213 1345 c0 -8 2 -15 4 -15 3 0 11 7 19 15 14 13 13 15 -4 15 -10
0 -19 -7 -19 -15z"/>
<path d="M953 1173 c4 -3 10 -3 14 0 3 4 0 7 -7 7 -7 0 -10 -3 -7 -7z"/>
<path d="M1020 1165 c0 -9 6 -12 15 -9 8 4 15 7 15 9 0 2 -7 5 -15 9 -9 3 -15
0 -15 -9z"/>
<path d="M953 1113 c-22 -4 -33 -33 -13 -33 6 0 10 5 10 10 0 6 15 10 34 10
19 0 38 5 41 10 6 10 -28 11 -72 3z"/>
<path d="M2043 343 c4 -3 10 -3 14 0 3 4 0 7 -7 7 -7 0 -10 -3 -7 -7z"/>
<path d="M1071 697 c2 -1 11 -8 20 -15 13 -10 19 -9 29 3 11 13 8 15 -20 15
-19 0 -31 -1 -29 -3z"/>
<path d="M1062 644 c15 -15 30 -26 33 -23 2 3 -10 16 -28 29 l-32 23 27 -29z"/>
<path d="M1125 650 c3 -5 8 -10 11 -10 2 0 4 5 4 10 0 6 -5 10 -11 10 -5 0 -7
-4 -4 -10z"/>
<path d="M1112 576 c2 -19 5 -22 15 -15 6 6 9 17 6 25 -9 23 -23 16 -21 -10z"/>
<path d="M2150 590 c0 -7 3 -10 7 -7 3 4 3 10 0 14 -4 3 -7 0 -7 -7z"/>
<path d="M4372 2660 c0 -14 2 -19 5 -12 2 6 2 18 0 25 -3 6 -5 1 -5 -13z"/>
<path d="M1680 2620 c0 -5 4 -10 9 -10 6 0 13 5 16 10 3 6 -1 10 -9 10 -9 0
-16 -4 -16 -10z"/>
<path d="M1757 2582 c-19 -2 -27 -8 -23 -17 3 -8 0 -16 -7 -18 -8 -3 -7 -10 5
-22 14 -15 23 -16 49 -9 39 11 45 25 22 50 -12 13 -27 19 -46 16z"/>
<path d="M1660 2550 c0 -5 5 -10 10 -10 6 0 10 5 10 10 0 6 -4 10 -10 10 -5 0
-10 -4 -10 -10z"/>
<path d="M1593 2513 c4 -3 10 -3 14 0 3 4 0 7 -7 7 -7 0 -10 -3 -7 -7z"/>
<path d="M1675 2500 c3 -5 12 -7 20 -3 21 7 19 13 -6 13 -11 0 -18 -4 -14 -10z"/>
<path d="M1603 2493 c4 -3 10 -3 14 0 3 4 0 7 -7 7 -7 0 -10 -3 -7 -7z"/>
<path d="M4003 2153 c4 -3 10 -3 14 0 3 4 0 7 -7 7 -7 0 -10 -3 -7 -7z"/>
<path d="M4033 2143 c4 -3 10 -3 14 0 3 4 0 7 -7 7 -7 0 -10 -3 -7 -7z"/>
<path d="M4075 2140 c3 -5 8 -10 11 -10 3 0 2 5 -1 10 -3 6 -8 10 -11 10 -3 0
-2 -4 1 -10z"/>
<path d="M4423 2043 c4 -3 10 -3 14 0 3 4 0 7 -7 7 -7 0 -10 -3 -7 -7z"/>
<path d="M4458 2033 c7 -3 16 -2 19 1 4 3 -2 6 -13 5 -11 0 -14 -3 -6 -6z"/>
<path d="M180 1950 c-18 -12 -2 -12 25 0 13 6 15 9 5 9 -8 0 -22 -4 -30 -9z"/>
<path d="M28 1923 c6 -2 18 -2 25 0 6 3 1 5 -13 5 -14 0 -19 -2 -12 -5z"/>
<path d="M2706 1872 c-8 -13 28 -22 45 -11 9 6 10 9 2 9 -6 0 -18 3 -26 6 -8
3 -18 1 -21 -4z"/>
<path d="M2560 1780 c0 -7 3 -10 7 -7 3 4 3 10 0 14 -4 3 -7 0 -7 -7z"/>
<path d="M2590 1760 c0 -6 7 -10 15 -10 8 0 15 2 15 4 0 2 -7 6 -15 10 -8 3
-15 1 -15 -4z"/>
<path d="M4448 1703 c-20 -5 -25 -33 -7 -33 23 0 -11 -28 -41 -34 -28 -5 -29
-7 -18 -30 6 -14 15 -23 21 -19 5 3 3 10 -4 15 -13 9 10 6 78 -9 21 -5 22 -2
22 56 -1 64 -3 67 -51 54z m29 -30 c-4 -3 -10 -3 -14 0 -3 4 0 7 7 7 7 0 10
-3 7 -7z"/>
<path d="M2950 1690 c0 -5 7 -7 15 -4 8 4 15 8 15 10 0 2 -7 4 -15 4 -8 0 -15
-4 -15 -10z"/>
<path d="M4170 1696 c0 -2 13 -6 29 -8 17 -2 28 -1 25 4 -5 8 -54 12 -54 4z"/>
<path d="M2998 1683 c7 -3 16 -2 19 1 4 3 -2 6 -13 5 -11 0 -14 -3 -6 -6z"/>
<path d="M3043 1683 c4 -3 10 -3 14 0 3 4 0 7 -7 7 -7 0 -10 -3 -7 -7z"/>
<path d="M4255 1680 c-3 -5 3 -10 14 -10 12 0 21 5 21 10 0 6 -6 10 -14 10 -8
0 -18 -4 -21 -10z"/>
<path d="M4358 1662 c-4 -15 -1 -18 19 -14 26 5 26 25 1 30 -8 2 -18 -6 -20
-16z"/>
<path d="M3165 1660 c27 -12 35 -12 35 0 0 6 -12 10 -27 9 -25 0 -26 -1 -8 -9z"/>
<path d="M3213 1663 c4 -3 10 -3 14 0 3 4 0 7 -7 7 -7 0 -10 -3 -7 -7z"/>
<path d="M3103 1649 c14 -8 22 -8 30 0 8 8 3 11 -18 11 -26 -1 -28 -2 -12 -11z"/>
<path d="M3625 1650 c-3 -5 3 -10 14 -10 12 0 21 5 21 10 0 6 -6 10 -14 10 -8
0 -18 -4 -21 -10z"/>
<path d="M4268 1643 c7 -3 16 -2 19 1 4 3 -2 6 -13 5 -11 0 -14 -3 -6 -6z"/>
<path d="M3420 1629 c0 -5 5 -7 10 -4 6 3 10 8 10 11 0 2 -4 4 -10 4 -5 0 -10
-5 -10 -11z"/>
<path d="M3210 1620 c0 -5 5 -10 10 -10 6 0 10 5 10 10 0 6 -4 10 -10 10 -5 0
-10 -4 -10 -10z"/>
<path d="M4220 1620 c0 -5 7 -10 15 -10 8 0 15 5 15 10 0 6 -7 10 -15 10 -8 0
-15 -4 -15 -10z"/>
<path d="M4330 1620 c0 -5 7 -10 16 -10 8 0 12 5 9 10 -3 6 -10 10 -16 10 -5
0 -9 -4 -9 -10z"/>
<path d="M4008 1613 c7 -3 16 -2 19 1 4 3 -2 6 -13 5 -11 0 -14 -3 -6 -6z"/>
<path d="M2780 1600 c0 -5 7 -10 16 -10 8 0 12 5 9 10 -3 6 -10 10 -16 10 -5
0 -9 -4 -9 -10z"/>
<path d="M3554 1591 c3 -5 15 -7 26 -4 28 7 25 13 -6 13 -14 0 -23 -4 -20 -9z"/>
<path d="M3323 1566 c0 -8 6 -12 14 -9 7 3 13 9 13 14 0 5 -6 9 -13 9 -8 0
-14 -6 -14 -14z"/>
<path d="M4263 1563 c4 -3 10 -3 14 0 3 4 0 7 -7 7 -7 0 -10 -3 -7 -7z"/>
<path d="M3950 1550 c0 -5 4 -10 9 -10 6 0 13 5 16 10 3 6 -1 10 -9 10 -9 0
-16 -4 -16 -10z"/>
<path d="M2728 1533 c7 -3 16 -2 19 1 4 3 -2 6 -13 5 -11 0 -14 -3 -6 -6z"/>
<path d="M3925 1530 c4 -6 -7 -10 -24 -10 -17 0 -31 -4 -31 -9 0 -15 18 -22
25 -11 4 6 16 8 27 5 24 -8 68 2 68 15 0 6 -11 8 -25 4 -15 -4 -25 -2 -25 5 0
6 -5 11 -11 11 -5 0 -7 -4 -4 -10z"/>
<path d="M4018 1533 c7 -3 16 -2 19 1 4 3 -2 6 -13 5 -11 0 -14 -3 -6 -6z"/>
<path d="M2788 1523 c7 -3 16 -2 19 1 4 3 -2 6 -13 5 -11 0 -14 -3 -6 -6z"/>
<path d="M3318 1513 c-16 -2 -28 -8 -28 -13 0 -5 17 -4 38 2 61 17 57 21 -10
11z"/>
<path d="M3253 1493 c4 -3 10 -3 14 0 3 4 0 7 -7 7 -7 0 -10 -3 -7 -7z"/>
<path d="M3463 1493 c4 -3 10 -3 14 0 3 4 0 7 -7 7 -7 0 -10 -3 -7 -7z"/>
<path d="M3303 1463 c4 -3 10 -3 14 0 3 4 0 7 -7 7 -7 0 -10 -3 -7 -7z"/>
<path d="M3808 1463 c7 -3 16 -2 19 1 4 3 -2 6 -13 5 -11 0 -14 -3 -6 -6z"/>
<path d="M3190 1450 c8 -5 22 -9 30 -9 10 0 8 3 -5 9 -27 12 -43 12 -25 0z"/>
<path d="M3583 1453 c4 -3 10 -3 14 0 3 4 0 7 -7 7 -7 0 -10 -3 -7 -7z"/>
<path d="M45 1424 l-30 -13 30 6 c32 6 41 11 34 17 -2 2 -17 -2 -34 -10z"/>
<path d="M2993 1423 c4 -3 10 -3 14 0 3 4 0 7 -7 7 -7 0 -10 -3 -7 -7z"/>
<path d="M3583 1413 c4 -3 10 -3 14 0 3 4 0 7 -7 7 -7 0 -10 -3 -7 -7z"/>
<path d="M3368 1403 c7 -3 16 -2 19 1 4 3 -2 6 -13 5 -11 0 -14 -3 -6 -6z"/>
<path d="M3133 1393 c4 -3 10 -3 14 0 3 4 0 7 -7 7 -7 0 -10 -3 -7 -7z"/>
<path d="M2983 1383 c9 -2 25 -2 35 0 9 3 1 5 -18 5 -19 0 -27 -2 -17 -5z"/>
<path d="M2592 1361 c-10 -6 -7 -10 12 -13 18 -4 26 -1 26 8 0 16 -18 18 -38
5z"/>
<path d="M3080 1353 c0 -7 -12 -14 -27 -14 -22 -1 -23 -2 -8 -6 11 -3 22 -9
25 -13 3 -4 13 -4 23 -1 16 6 16 8 3 26 -9 11 -16 14 -16 8z"/>
<path d="M320 1322 c0 -4 -16 -6 -35 -4 -29 4 -34 1 -29 -12 7 -18 49 -22 59
-6 3 6 15 10 26 10 11 0 17 5 14 10 -7 12 -35 13 -35 2z"/>
<path d="M2620 1315 c0 -8 6 -15 13 -15 8 0 14 7 14 15 0 8 -6 15 -14 15 -7 0
-13 -7 -13 -15z"/>
<path d="M155 1310 c3 -5 8 -10 11 -10 3 0 2 5 -1 10 -3 6 -8 10 -11 10 -3 0
-2 -4 1 -10z"/>
<path d="M190 1300 c-21 -16 -22 -20 -7 -20 10 0 15 -4 12 -10 -9 -15 45 -24
58 -10 10 10 6 11 -16 6 -28 -7 -29 -6 -22 24 8 35 7 35 -25 10z"/>
<path d="M3064 1286 c-4 -10 -18 -16 -38 -16 -46 0 -66 -16 -27 -22 17 -2 31
-2 31 1 0 9 52 31 73 31 10 0 15 -4 12 -10 -3 -5 -1 -10 5 -10 6 0 8 -4 5 -10
-4 -6 1 -7 10 -3 10 3 21 0 25 -7 7 -11 11 -11 24 -1 18 15 21 31 5 31 -5 0
-7 -6 -3 -12 6 -10 4 -10 -7 0 -7 6 -21 12 -32 12 -10 0 -15 5 -12 10 3 6 -3
10 -14 10 -10 0 -26 3 -35 6 -10 4 -18 0 -22 -10z"/>
<path d="M2663 1283 c4 -3 10 -3 14 0 3 4 0 7 -7 7 -7 0 -10 -3 -7 -7z"/>
<path d="M2482 1241 c-12 -7 -11 -13 2 -37 l15 -29 -2 37 c-1 21 -2 38 -2 38
0 0 -6 -4 -13 -9z"/>
<path d="M2727 1243 c-11 -3 -16 -10 -13 -20 5 -11 1 -13 -15 -8 -15 5 -19 4
-15 -4 13 -21 52 -12 64 14 12 25 11 26 -21 18z"/>
<path d="M3042 1238 c2 -8 -5 -12 -19 -10 -13 2 -23 -2 -23 -7 0 -6 6 -11 13
-11 6 0 23 -3 35 -7 20 -5 23 -3 20 17 -1 13 -9 25 -16 28 -7 2 -11 -2 -10
-10z"/>
<path d="M2513 1233 c4 -3 10 -3 14 0 3 4 0 7 -7 7 -7 0 -10 -3 -7 -7z"/>
<path d="M2540 1225 c0 -8 7 -15 16 -15 14 0 14 3 4 15 -7 8 -14 15 -16 15 -2
0 -4 -7 -4 -15z"/>
<path d="M2678 1233 c7 -3 16 -2 19 1 4 3 -2 6 -13 5 -11 0 -14 -3 -6 -6z"/>
<path d="M2961 1224 c0 -11 3 -14 6 -6 3 7 2 16 -1 19 -3 4 -6 -2 -5 -13z"/>
<path d="M2610 1220 c-18 -12 -2 -12 25 0 13 6 15 9 5 9 -8 0 -22 -4 -30 -9z"/>
<path d="M2770 1222 c0 -14 23 -32 42 -32 10 0 18 5 18 11 0 5 5 7 10 4 6 -3
10 -1 10 5 0 6 -10 8 -25 4 -15 -4 -25 -2 -25 5 0 6 -7 11 -15 11 -8 0 -15 -4
-15 -8z"/>
<path d="M3118 1223 c7 -3 16 -2 19 1 4 3 -2 6 -13 5 -11 0 -14 -3 -6 -6z"/>
<path d="M2860 1210 c0 -7 3 -10 7 -7 3 4 3 10 0 14 -4 3 -7 0 -7 -7z"/>
<path d="M2545 1190 c-3 -5 -1 -10 4 -10 6 0 11 5 11 10 0 6 -2 10 -4 10 -3 0
-8 -4 -11 -10z"/>
<path d="M2888 1183 c-10 -2 -18 -9 -18 -14 0 -13 12 -11 34 6 20 15 16 17
-16 8z"/>
<path d="M2565 1169 c-4 -6 -5 -12 -2 -15 2 -3 7 2 10 11 7 17 1 20 -8 4z"/>
<path d="M2678 1173 c7 -3 16 -2 19 1 4 3 -2 6 -13 5 -11 0 -14 -3 -6 -6z"/>
<path d="M2806 1165 c-3 -8 -1 -15 3 -15 5 0 18 -3 28 -6 17 -5 17 -5 0 6 -9
6 -15 15 -12 21 4 5 2 9 -3 9 -6 0 -12 -7 -16 -15z"/>
<path d="M2530 1159 c0 -5 5 -7 10 -4 6 3 10 8 10 11 0 2 -4 4 -10 4 -5 0 -10
-5 -10 -11z"/>
<path d="M2750 1150 c0 -14 9 -21 35 -26 20 -3 39 -4 42 0 4 3 -6 6 -21 6 -19
0 -29 6 -33 20 -7 26 -23 26 -23 0z"/>
<path d="M2903 1143 c4 -3 10 -3 14 0 3 4 0 7 -7 7 -7 0 -10 -3 -7 -7z"/>
<path d="M2533 1133 c4 -3 10 -3 14 0 3 4 0 7 -7 7 -7 0 -10 -3 -7 -7z"/>
<path d="M2890 1074 c-14 -36 -13 -37 14 -17 13 10 21 24 19 30 -8 21 -23 15
-33 -13z"/>
<path d="M296 1073 c-11 -11 -6 -23 9 -23 8 0 15 4 15 9 0 13 -16 22 -24 14z"/>
<path d="M285 1029 c-4 -6 -5 -12 -2 -15 2 -3 7 2 10 11 7 17 1 20 -8 4z"/>
<path d="M313 1023 c4 -3 10 -3 14 0 3 4 0 7 -7 7 -7 0 -10 -3 -7 -7z"/>
</g>
</svg>
