<?xml version="1.0" standalone="no"?>
<!DOCTYPE svg PUBLIC "-//W3C//DTD SVG 20010904//EN"
 "http://www.w3.org/TR/2001/REC-SVG-20010904/DTD/svg10.dtd">
<svg version="1.0" xmlns="http://www.w3.org/2000/svg"
 width="450.000000pt" height="485.000000pt" viewBox="0 0 450.000000 485.000000"
 preserveAspectRatio="xMidYMid meet">
<metadata>
Created by potrace 1.10, written by Peter Selinger 2001-2011
</metadata>
<g transform="translate(0.000000,485.000000) scale(0.100000,-0.100000)"
fill="#000000" stroke="none">
<path d="M792 4830 c-10 -17 -9 -22 7 -32 15 -9 17 -15 9 -25 -10 -12 0 -18
25 -14 4 1 21 -12 37 -29 28 -29 53 -40 48 -21 -2 5 6 17 17 25 14 11 15 15 5
14 -8 -2 -15 4 -15 12 0 8 8 16 18 18 10 2 16 -2 15 -9 -2 -7 2 -13 9 -14 29
-1 21 -16 -24 -49 -26 -20 -56 -36 -66 -36 -17 0 -17 -2 0 -32 9 -18 17 -41
18 -50 1 -10 13 -27 26 -39 19 -17 20 -21 5 -15 -24 8 -48 -12 -41 -35 4 -13
1 -19 -8 -19 -21 0 -28 -26 -11 -40 8 -7 14 -19 14 -26 0 -8 7 -14 16 -14 8 0
13 -4 10 -9 -3 -4 5 -20 17 -35 18 -21 25 -24 35 -14 10 10 14 8 18 -10 7 -24
19 -29 29 -12 4 6 1 18 -7 27 -8 11 -9 17 -2 20 6 2 8 17 6 33 -4 28 -2 30 24
29 17 -1 22 -3 12 -6 -10 -2 -18 -8 -18 -13 0 -11 56 -24 69 -16 5 3 12 -10
16 -30 4 -25 10 -34 21 -30 20 8 18 -11 -3 -24 -12 -8 -14 -13 -6 -16 18 -8 4
-34 -19 -34 -26 0 -50 -24 -37 -37 7 -7 -1 -13 -24 -17 -18 -3 -42 -14 -53
-24 -10 -9 -29 -16 -41 -14 -21 3 -22 5 -7 27 12 18 12 24 2 28 -7 3 -3 6 9 6
12 1 24 -4 26 -9 3 -6 4 -5 3 2 -1 7 -16 17 -32 23 -16 5 -32 13 -35 18 -12
16 -62 37 -89 37 -46 0 -97 27 -104 54 -3 14 -15 27 -25 31 -11 3 -27 17 -36
31 -11 18 -23 24 -43 22 -22 -3 -27 1 -24 18 2 13 -4 24 -13 28 -9 3 -13 10
-10 16 3 5 1 10 -4 10 -6 0 -10 5 -8 12 1 7 -11 12 -30 12 -17 1 -35 4 -39 9
-12 12 -58 8 -80 -8 -12 -8 -24 -11 -28 -8 -3 3 -21 -2 -40 -12 l-34 -19 -36
37 c-20 20 -30 37 -23 37 6 0 4 5 -6 11 -9 5 -21 8 -25 5 -4 -2 -27 -1 -51 4
-53 10 -71 4 -71 -21 0 -14 -7 -19 -26 -19 -17 0 -28 -6 -31 -20 -3 -11 -12
-20 -19 -20 -11 0 -14 -26 -14 -129 l0 -129 35 -12 c19 -6 43 -9 54 -5 12 3
23 0 28 -8 4 -8 62 -28 128 -46 66 -17 145 -38 175 -46 87 -24 88 -23 93 43
l3 57 2 -62 2 -62 38 -10 c20 -5 93 -23 162 -40 69 -16 174 -41 234 -56 59
-14 118 -24 130 -22 20 4 20 4 -1 6 -18 1 -23 7 -23 30 0 16 -6 31 -12 34 -10
3 -10 7 1 20 9 11 10 17 2 17 -6 0 -11 9 -11 20 0 14 5 18 16 13 13 -5 13 -7
2 -14 -10 -7 -9 -9 4 -9 12 0 15 -6 10 -22 -4 -17 -2 -20 13 -15 12 5 16 3 12
-7 -5 -12 11 -26 28 -26 2 0 2 24 -1 53 -2 28 -1 45 3 37 3 -8 13 -20 21 -26
8 -6 12 -16 8 -22 -8 -14 4 -43 15 -36 5 3 9 -8 9 -24 0 -27 -2 -29 -35 -26
-19 1 -35 -2 -35 -6 0 -15 72 -24 103 -12 20 8 36 8 55 0 15 -6 55 -11 89 -13
49 -2 60 0 56 11 -6 16 15 18 36 5 7 -5 26 -5 41 -1 18 5 37 3 53 -5 16 -8 29
-9 35 -3 5 5 28 9 51 10 22 0 41 4 41 9 0 5 7 9 15 9 11 0 15 -12 16 -47 l1
-48 9 40 c11 45 25 57 57 50 12 -3 22 -2 22 3 0 5 21 8 48 8 l47 -1 5 135 c6
127 6 130 8 40 3 -121 8 -142 36 -138 20 3 21 8 19 118 -1 88 0 105 7 70 5
-25 9 -75 9 -112 l1 -68 53 1 c28 0 89 4 135 7 45 4 82 4 82 0 0 -5 -3 -8 -7
-8 -55 -2 -257 -21 -261 -25 -16 -15 21 -18 136 -8 70 5 128 9 130 8 1 -1 0
-9 -3 -17 -5 -11 -48 -17 -202 -28 -169 -11 -192 -15 -171 -26 20 -10 55 -10
188 2 90 7 165 12 168 10 2 -3 6 -36 9 -74 l4 -70 -88 -7 c-48 -3 -121 -10
-161 -13 l-73 -7 148 -59 c81 -32 151 -62 155 -65 3 -3 9 -22 13 -43 l7 -36
-54 -16 c-29 -8 -62 -23 -73 -34 -11 -10 -47 -29 -80 -42 -56 -22 -176 -96
-183 -112 -2 -5 -8 -8 -14 -8 -6 0 -17 -8 -24 -17 -13 -17 -14 -17 -8 0 10 29
-14 25 -241 -35 -60 -16 -120 -36 -132 -44 -13 -8 -23 -12 -23 -9 0 5 -38 -12
-100 -46 -8 -4 -38 -19 -66 -34 -29 -14 -58 -33 -65 -42 -10 -12 -10 -15 -1
-9 7 4 12 2 12 -4 0 -6 -8 -9 -18 -6 -13 4 -33 -8 -68 -41 l-49 -48 28 -3 c16
-2 26 -8 24 -15 -2 -7 -18 -11 -37 -9 -29 3 -40 -4 -99 -66 -41 -44 -80 -98
-102 -144 -89 -178 -116 -236 -129 -278 -7 -25 -17 -49 -22 -54 -4 -6 -8 -16
-8 -24 0 -7 -17 -39 -39 -70 -38 -56 -55 -103 -56 -152 0 -15 -5 -24 -13 -22
-8 1 -11 -5 -6 -22 3 -14 1 -33 -5 -43 -10 -17 -10 -17 -11 1 -1 53 -45 -61
-55 -142 -6 -42 -12 -55 -29 -62 -18 -8 -19 -9 -2 -9 16 -1 17 -6 11 -37 -10
-57 -23 -84 -40 -84 -8 0 -15 5 -15 10 0 6 -11 8 -26 4 -20 -5 -26 -2 -31 15
-4 14 -13 21 -29 21 -14 0 -41 7 -61 15 -19 8 -47 15 -62 15 -33 0 -172 57
-188 77 -6 8 -16 12 -21 9 -6 -3 -13 0 -16 6 -3 7 -4 2 -3 -11 2 -22 15 -29
122 -64 66 -22 129 -43 140 -47 11 -5 56 -21 100 -36 44 -15 83 -29 87 -33 8
-7 -18 -104 -63 -235 -37 -110 -81 -279 -114 -441 -26 -128 -46 -207 -55 -215
-3 -3 -6 -18 -6 -35 -1 -16 -9 -79 -19 -140 -9 -60 -16 -137 -15 -170 1 -33 1
-64 0 -70 -1 -5 -1 -36 0 -69 1 -50 -1 -58 -15 -52 -9 3 -13 2 -10 -4 3 -6 1
-10 -6 -10 -6 0 -30 -20 -53 -44 -34 -37 -46 -43 -69 -39 -22 4 -27 2 -27 -15
0 -12 9 -23 20 -27 16 -5 19 -12 14 -28 -14 -45 -25 -93 -30 -139 l-5 -48 166
0 c119 0 165 3 165 12 0 6 7 20 17 30 15 17 15 18 -10 18 -31 0 -33 13 -8 55
14 24 23 29 45 27 16 -2 36 4 47 14 18 16 19 16 19 -4 0 -28 7 -28 31 0 l18
23 1 -28 c0 -16 5 -27 13 -26 6 1 20 1 31 0 14 -1 16 -4 7 -14 -6 -8 -23 -13
-38 -12 -19 2 -20 1 -5 -2 12 -2 22 -11 22 -18 0 -17 -42 -30 -65 -21 -8 3
-15 2 -15 -3 0 -4 -11 -13 -25 -19 -47 -22 -27 -32 63 -32 61 1 93 5 106 15
11 8 36 15 55 14 32 0 33 -1 14 -9 -13 -5 -23 -12 -23 -14 0 -3 284 -5 630 -6
l630 0 0 26 c0 24 -3 26 -30 21 -25 -5 -30 -3 -30 12 0 13 10 20 33 25 25 5
29 9 17 16 -9 6 -16 6 -18 0 -7 -19 -32 -10 -32 11 0 11 4 18 9 15 4 -3 17 1
27 9 17 13 18 14 2 15 -21 0 -22 4 -8 31 6 10 17 19 25 19 11 0 14 16 13 74
-1 65 -4 73 -20 68 -10 -2 -18 -9 -18 -14 0 -6 -7 -5 -15 2 -32 27 -6 50 48
41 4 0 7 4 7 9 0 6 -16 10 -35 10 -46 0 -47 26 -1 34 l34 7 7 72 c11 113 6
131 -32 135 -39 4 -46 32 -9 32 14 0 28 5 31 10 4 6 -7 10 -24 10 -21 0 -31 5
-31 15 0 10 10 15 30 15 35 0 38 10 10 28 -32 20 -24 82 11 82 16 0 19 8 19
50 0 49 -1 50 -30 50 -55 0 -33 38 23 41 14 1 10 4 -11 8 -42 8 -42 25 0 31
31 5 33 8 41 60 4 30 6 75 5 100 -3 45 -3 45 -37 42 -24 -3 -32 0 -29 10 3 7
19 13 36 13 23 0 32 5 32 16 0 12 -7 14 -30 11 -23 -3 -30 0 -30 12 0 12 9 16
35 16 l35 0 0 59 c0 33 4 63 10 66 6 4 10 -18 10 -59 0 -76 14 -88 24 -20 9
71 7 164 -4 164 -5 0 -10 -11 -10 -24 0 -32 -20 -44 -27 -17 -5 20 -37 29 -46
14 -2 -5 -2 -2 0 5 1 8 3 20 3 28 0 8 9 14 20 14 11 0 20 5 20 10 0 6 -13 10
-30 10 -16 0 -30 5 -30 11 0 5 8 9 18 8 39 -3 42 1 43 54 0 42 2 47 9 27 5
-14 11 -46 15 -72 9 -72 23 -58 18 18 -3 44 -1 64 6 59 6 -3 11 -19 11 -36 0
-16 5 -29 10 -29 19 0 1 -354 -39 -770 -4 -41 -4 -90 0 -109 8 -36 4 -233 -9
-416 -7 -106 -8 -132 -4 -237 l2 -48 706 0 707 0 -7 31 c-3 17 -6 42 -6 55 0
13 -4 24 -10 24 -5 0 -10 -14 -10 -32 0 -42 -13 -27 -18 20 -5 60 -6 75 -4
122 2 33 5 41 12 30 5 -8 10 -30 10 -47 0 -18 5 -33 10 -33 6 0 10 16 10 35 0
35 13 47 23 22 3 -7 3 -61 0 -120 l-4 -107 72 0 72 0 -7 56 c-3 31 -11 64 -16
74 -6 11 -5 21 1 27 6 6 7 13 2 16 -13 8 -3 99 11 94 6 -2 12 -16 14 -30 4
-30 31 -37 55 -13 12 13 14 10 15 -17 1 -36 -21 -77 -42 -77 -14 0 -24 -62
-18 -107 3 -21 8 -23 72 -23 57 0 69 3 73 17 4 16 5 16 6 0 1 -15 7 -18 35
-14 19 2 39 8 45 11 6 4 11 1 12 -6 0 -7 4 -3 9 10 5 12 14 22 20 22 6 0 8 -5
4 -12 -5 -8 -2 -9 9 -5 10 3 17 2 17 -3 0 -5 -8 -10 -17 -13 -10 -2 -1 -4 19
-3 34 1 35 2 21 18 -8 9 -13 23 -10 30 4 9 6 8 6 -3 2 -35 35 -49 114 -49 44
0 86 5 98 12 18 11 23 10 26 0 4 -10 8 -10 21 0 12 10 16 10 19 1 7 -19 23
-15 23 5 0 10 7 27 15 38 13 18 14 17 15 -18 0 -40 8 -46 28 -26 9 9 12 9 12
-1 0 -20 44 -8 49 13 2 11 14 37 27 58 13 21 19 38 13 38 -7 0 -10 13 -7 35 3
28 0 35 -16 37 -18 3 -18 5 -5 18 9 8 14 20 12 26 -2 6 5 14 17 17 11 3 20 12
20 21 0 9 5 16 10 16 6 0 10 -4 10 -10 0 -5 4 -10 9 -10 5 0 7 8 4 19 -3 13 2
20 19 24 39 11 45 8 52 -23 3 -17 12 -30 20 -30 8 0 17 -6 19 -12 3 -8 6 -6 6
5 1 9 -3 17 -9 17 -12 0 -13 27 -1 32 11 4 -19 130 -33 140 -17 12 -28 9 -20
-4 5 -7 3 -8 -6 -3 -10 6 -9 11 5 21 12 9 15 17 8 26 -5 7 -10 38 -12 68 -1
30 -8 62 -15 70 -7 8 -17 27 -23 42 -9 20 -17 25 -32 21 -18 -5 -21 -13 -21
-60 0 -40 -3 -52 -12 -47 -7 3 -1 -5 15 -18 15 -14 27 -35 27 -47 0 -11 5 -21
10 -21 6 0 8 -11 4 -25 -4 -15 -2 -25 4 -25 6 0 10 -16 9 -35 -1 -20 -7 -35
-14 -35 -7 0 -13 -9 -13 -21 0 -15 -5 -19 -15 -15 -9 3 -15 0 -15 -10 0 -10
-6 -14 -15 -10 -9 3 -15 0 -15 -9 0 -8 -7 -15 -15 -15 -15 0 -20 16 -16 58 2
22 -6 26 -31 17 -9 -4 -13 -17 -10 -40 3 -27 1 -35 -12 -35 -9 0 -16 6 -16 13
0 8 -4 7 -10 -3 -5 -8 -10 -34 -10 -56 l0 -42 45 6 c30 3 45 1 45 -7 0 -6 -4
-11 -10 -11 -5 0 -10 -9 -10 -19 0 -14 -5 -18 -19 -14 -13 3 -18 10 -14 21 4
10 2 13 -5 8 -7 -4 -12 -16 -12 -27 0 -25 -16 -25 -23 1 -5 21 -29 29 -24 9 1
-6 -4 -14 -10 -16 -7 -3 -13 0 -13 7 0 8 -6 8 -21 0 -11 -6 -25 -9 -32 -7 -7
3 2 10 18 16 30 11 30 12 33 95 3 84 3 84 -20 79 -21 -6 -22 -5 -9 11 12 14
12 19 2 25 -10 6 -7 13 10 25 13 9 20 16 17 16 -4 0 -4 10 1 22 5 13 15 23 22
23 26 0 15 258 -13 320 -11 26 -12 26 -20 6 -9 -26 -27 -27 -34 -3 -3 9 -10
25 -15 35 -5 10 -7 22 -3 28 3 5 1 15 -4 22 -5 7 -7 29 -4 50 3 28 8 37 19 33
11 -5 14 2 11 32 -3 32 -6 37 -26 34 -18 -3 -23 3 -28 27 -4 16 -13 32 -21 35
-12 5 -13 9 -4 20 7 8 8 17 3 20 -12 7 -14 87 -2 101 7 9 4 20 -10 38 -11 14
-20 33 -20 42 0 13 -5 16 -23 11 -12 -4 -37 -9 -54 -13 -29 -5 -33 -10 -33
-37 -1 -22 -3 -27 -9 -16 -13 22 -20 109 -10 116 5 3 9 -6 9 -20 0 -28 15 -43
23 -22 3 8 14 12 24 10 26 -7 79 14 66 27 -6 6 -24 4 -50 -5 -42 -15 -53 -13
-53 11 0 9 13 13 39 13 22 0 43 5 47 12 12 19 15 91 5 143 -6 29 -6 54 0 61 5
6 4 15 -4 23 -9 10 -9 15 4 24 9 7 14 17 12 23 -2 7 3 18 11 27 11 10 15 35
14 87 0 40 4 75 9 79 6 3 11 26 11 51 2 44 21 83 23 45 0 -18 1 -17 9 3 5 12
16 25 25 28 19 8 22 110 3 117 -10 3 -10 8 1 21 12 14 12 19 2 26 -8 5 -10 13
-5 21 16 26 -9 169 -29 169 -5 0 -7 6 -4 14 3 8 -1 20 -8 26 -8 7 -13 16 -10
20 7 12 -15 110 -25 110 -14 0 -19 -42 -10 -98 5 -31 7 -58 5 -60 -3 -3 -1
-10 3 -16 13 -17 2 -128 -11 -123 -7 2 -11 13 -10 25 1 11 -4 25 -12 32 -11 9
-12 17 -4 31 5 10 6 19 2 19 -11 0 -14 58 -4 65 9 5 6 99 -4 116 -4 5 1 12 9
15 21 8 20 30 0 38 -13 5 -14 9 -4 21 10 12 9 16 -4 21 -10 4 -15 13 -12 21 4
8 -3 26 -14 40 -11 14 -20 31 -20 38 0 6 -9 20 -20 30 -25 22 -25 11 -4 -63
13 -42 14 -63 6 -89 -6 -18 -6 -35 -2 -38 5 -3 11 3 13 12 4 14 5 13 6 -4 0
-12 10 -38 21 -58 11 -19 15 -35 10 -35 -6 0 -10 5 -10 10 0 6 -5 10 -11 10
-7 0 -8 -7 -4 -17 4 -10 10 -24 13 -32 3 -9 1 -12 -5 -8 -7 5 -13 -21 -18 -74
-6 -66 -4 -83 9 -98 9 -10 16 -25 16 -34 0 -9 6 -16 13 -14 6 1 12 -8 12 -20
0 -11 3 -25 8 -29 4 -4 7 -2 7 6 0 10 3 10 15 0 13 -11 15 -8 15 20 0 19 3 31
6 27 10 -10 6 -129 -6 -167 -7 -19 -22 -75 -35 -125 -13 -49 -24 -83 -24 -76
-1 10 -4 12 -11 5 -6 -6 -6 -20 2 -40 9 -26 8 -35 -6 -55 l-18 -24 6 27 c5 22
3 26 -9 22 -19 -8 -19 -28 0 -48 19 -19 19 -18 -5 -46 l-20 -23 0 28 c0 38
-21 105 -33 105 -5 0 -6 -12 -2 -27 4 -19 3 -25 -4 -18 -5 6 -13 22 -16 37 -6
22 -4 28 9 28 9 0 16 7 16 16 0 10 -6 14 -15 10 -8 -3 -15 -1 -15 4 0 6 7 10
15 10 11 0 15 12 15 50 0 39 3 48 14 44 12 -5 15 4 14 44 -1 37 -5 49 -15 45
-7 -3 -13 -13 -13 -23 0 -31 -18 -32 -23 -3 -4 25 -4 24 -6 -7 -3 -40 -19 -87
-20 -57 -1 9 -6 17 -12 17 -8 0 -8 4 -1 13 5 6 6 21 2 32 -4 11 -5 26 -3 33 4
8 0 10 -11 6 -9 -3 -14 -10 -11 -14 8 -12 -97 -18 -120 -7 -16 8 -17 11 -5 15
8 3 20 12 26 20 7 10 16 12 25 6 22 -13 42 -14 56 -2 11 9 11 14 -3 29 -9 10
-13 26 -10 37 4 12 0 24 -11 33 -11 9 -14 10 -9 2 4 -8 1 -13 -8 -13 -9 0 -16
-5 -16 -11 0 -6 -13 3 -30 21 -16 18 -30 36 -30 41 0 4 -7 12 -16 17 -15 8
-15 11 0 34 9 13 13 28 9 31 -6 6 30 12 51 8 8 -2 -5 142 -14 157 -2 3 -2 150
0 160 1 4 1 17 0 29 -1 15 5 22 22 25 32 4 33 52 1 56 -12 2 -25 12 -28 23
-14 43 -75 7 -75 -45 0 -15 5 -37 11 -49 12 -22 12 -22 -10 -3 -18 16 -21 17
-21 3 0 -25 -46 -14 -75 17 -14 15 -23 31 -20 36 3 5 1 12 -5 15 -14 9 -2 77
16 91 11 9 10 14 -6 32 -11 12 -20 35 -20 52 0 21 -5 30 -16 30 -19 0 -44 24
-44 42 0 8 -5 19 -12 26 -6 6 -8 15 -4 19 4 5 13 0 20 -10 18 -23 30 -22 23 4
-4 16 -2 19 10 15 11 -5 13 -2 8 11 -4 10 -8 29 -10 43 -3 22 -2 23 11 6 7
-11 11 -23 7 -29 -3 -6 -1 -7 4 -4 17 11 37 -22 36 -56 l-2 -32 9 28 c5 16 7
34 4 41 -6 16 19 38 37 34 9 -2 15 8 17 24 3 23 -2 30 -25 39 -33 12 -92 10
-112 -5 -12 -9 -13 -7 -9 5 7 17 -48 66 -60 54 -4 -3 -2 -9 3 -13 17 -12 35
-51 27 -56 -9 -6 -42 29 -42 44 0 6 -4 10 -8 10 -4 0 -8 -25 -7 -55 0 -54 -7
-70 -19 -39 -4 10 -13 13 -26 9 -20 -6 -28 9 -10 20 17 10 11 25 -7 18 -13 -5
-15 -2 -10 17 7 26 -11 110 -23 110 -12 0 -50 37 -50 49 0 6 -6 11 -13 11 -16
0 -39 58 -25 62 6 2 3 10 -5 17 -14 11 -19 7 -40 -26 -13 -21 -30 -55 -37 -75
-12 -33 -12 -42 3 -73 9 -20 17 -44 17 -55 0 -30 -73 -95 -147 -132 -66 -32
-70 -33 -193 -32 -88 0 -138 5 -170 17 l-45 16 48 -3 c33 -2 199 16 212 24 1
0 1 9 2 21 1 14 -3 19 -12 15 -7 -2 -16 2 -19 10 -9 24 -7 36 5 28 7 -4 9 0 6
12 -3 11 -8 28 -11 40 -4 14 0 26 11 35 16 13 17 12 5 -2 -13 -17 -7 -49 9
-49 4 0 6 -6 3 -14 -3 -8 -1 -17 5 -21 6 -3 14 1 17 9 3 9 14 16 24 16 10 0
23 6 30 14 6 8 19 12 27 9 11 -4 14 -2 9 5 -4 7 -2 12 4 12 13 0 29 40 23 58
-4 9 -9 10 -19 1 -10 -8 -14 -8 -14 -1 0 10 59 32 86 32 15 0 24 23 16 37 -4
5 -14 12 -23 15 -9 4 -22 33 -33 75 -9 37 -22 87 -28 111 -6 25 -16 42 -25 42
-8 0 -12 -4 -9 -9 9 -13 -34 -1 -69 20 -16 11 -32 14 -35 9 -8 -12 -102 11
-107 26 -5 16 28 27 41 14 5 -5 18 -10 28 -10 14 0 18 8 18 35 0 34 10 42 44
36 15 -3 46 10 46 20 0 13 -44 11 -74 -2 -20 -10 -29 -8 -55 10 -33 24 -39 49
-19 84 7 12 12 27 13 32 0 6 6 27 14 48 12 35 16 38 40 33 14 -3 51 -10 81
-15 30 -6 67 -20 82 -31 26 -19 30 -20 44 -5 13 12 14 19 4 30 -11 13 -6 15
33 15 27 0 49 -6 57 -15 7 -8 19 -15 26 -15 23 0 -10 56 -37 63 -24 6 -17 27
10 27 9 0 43 16 75 35 72 43 107 40 125 -11 7 -19 19 -34 27 -34 13 0 33 35
48 83 5 14 20 17 98 19 223 5 833 26 966 34 76 4 102 9 102 19 0 11 -16 13
-67 10 -38 -2 -134 -7 -215 -10 -135 -5 -147 -4 -151 12 -4 17 -5 17 -6 1 -1
-15 -11 -18 -58 -19 -32 -1 -78 -3 -103 -4 -25 -2 -119 -6 -210 -9 -91 -4
-207 -9 -257 -12 -75 -5 -93 -4 -93 7 1 35 16 41 104 37 83 -3 101 3 77 27 -6
6 -12 42 -14 80 l-3 70 -2 -76 c-2 -70 -4 -77 -24 -83 -38 -10 -130 -7 -123 4
3 5 -2 63 -11 127 -9 65 -20 138 -23 163 l-6 45 -14 -62 c-13 -59 -12 -87 5
-225 9 -72 -10 -71 -104 4 -110 90 -163 125 -245 163 -103 47 -196 67 -302 67
-102 -1 -175 -18 -288 -66 -42 -19 -79 -30 -82 -26 -3 4 8 39 25 77 26 60 27
69 13 80 -12 10 -20 7 -39 -14 -13 -14 -24 -32 -24 -40 0 -8 -4 -12 -9 -8 -13
8 -18 -3 -26 -62 -6 -46 -5 -53 10 -53 23 0 15 -34 -9 -38 -15 -3 -18 0 -13
17 6 25 -12 42 -40 35 -11 -3 -24 -1 -27 5 -11 18 -26 13 -26 -9 0 -15 -7 -20
-29 -20 -16 0 -31 6 -34 14 -4 11 1 13 23 11 19 -3 30 1 34 11 7 20 -1 34 -19
34 -8 0 -17 5 -21 12 -5 8 0 9 14 6 15 -4 22 -2 22 8 0 19 -52 32 -58 14 -3
-7 -11 5 -18 26 -16 47 -17 64 -4 64 6 0 10 -11 10 -24 0 -14 5 -28 10 -31 15
-9 41 21 34 39 -4 11 -1 16 10 16 23 0 38 42 20 53 -8 5 -24 5 -35 2 -18 -6
-19 -5 -7 15 11 18 10 23 -6 35 -20 15 -41 11 -31 -6 4 -5 1 -9 -5 -9 -7 0
-10 6 -7 14 3 8 -1 17 -9 20 -8 3 -14 16 -14 29 0 13 -9 32 -20 42 -21 19 -27
55 -9 55 5 0 8 -4 5 -9 -3 -4 1 -17 9 -27 13 -18 14 -17 21 14 7 36 19 40 46
15 17 -15 18 -15 18 0 0 10 5 17 10 17 7 0 9 14 5 38 -6 35 -5 36 10 17 13
-17 17 -18 25 -5 5 8 6 18 4 22 -3 5 -2 7 3 6 4 -2 9 2 10 7 0 6 -3 9 -8 8 -5
-2 -9 2 -9 7 0 14 -755 14 -781 0 -13 -7 -19 -7 -19 0 0 7 -87 10 -258 10
-246 0 -258 -1 -270 -20z m125 -37 c-4 -3 -7 0 -7 7 0 7 3 10 7 7 3 -4 3 -10
0 -14z m770 -60 c-4 -3 -7 0 -7 7 0 7 3 10 7 7 3 -4 3 -10 0 -14z m-40 -35
c-3 -8 -6 -5 -6 6 -1 11 2 17 5 13 3 -3 4 -12 1 -19z m288 13 c3 -5 2 -12 -3
-15 -5 -3 -9 1 -9 9 0 17 3 19 12 6z m-977 -36 c-3 -3 -9 2 -12 12 -6 14 -5
15 5 6 7 -7 10 -15 7 -18z m777 -3 c-3 -3 -11 0 -18 7 -9 10 -8 11 6 5 10 -3
15 -9 12 -12z m-760 -22 c-3 -5 -12 -10 -18 -10 -7 0 -6 4 3 10 19 12 23 12
15 0z m32 -117 c-4 -3 -7 0 -7 7 0 7 3 10 7 7 3 -4 3 -10 0 -14z m208 -14 c10
-14 1 -21 -19 -13 -9 3 -13 10 -10 15 7 12 21 11 29 -2z m552 -6 c-4 -3 -7 0
-7 7 0 7 3 10 7 7 3 -4 3 -10 0 -14z m240 10 c-4 -3 -10 -3 -14 0 -3 4 0 7 7
7 7 0 10 -3 7 -7z m-1467 -30 c3 -2 5 -51 5 -108 0 -113 -3 -118 -58 -108 -24
5 -25 7 -29 111 -3 66 0 110 6 114 10 6 66 0 76 -9z m1261 3 c-7 -8 -11 -20
-10 -28 4 -31 -2 -68 -11 -68 -5 0 -10 14 -10 31 0 17 -4 28 -10 24 -5 -3 -2
8 8 24 9 17 23 31 31 31 10 0 11 -3 2 -14z m-541 -26 c0 -5 -5 -10 -11 -10 -5
0 -7 5 -4 10 3 6 8 10 11 10 2 0 4 -4 4 -10z m703 -7 c9 3 18 -1 22 -11 5 -14
7 -14 16 -2 7 11 8 6 3 -15 -8 -36 -14 -45 -14 -22 0 10 -7 17 -15 17 -10 0
-13 -7 -9 -27 4 -20 -1 -34 -15 -49 -11 -12 -17 -25 -14 -28 4 -3 1 -6 -5 -6
-16 0 -19 51 -5 79 6 13 9 38 7 55 -4 22 -3 27 4 17 6 -8 17 -11 25 -8z m-923
-13 c0 -5 -10 -10 -22 -10 -19 0 -20 2 -8 10 19 13 30 13 30 0z m707 -27 c-4
-3 -7 0 -7 7 0 7 3 10 7 7 3 -4 3 -10 0 -14z m-53 -115 c-6 -19 -34 -25 -34
-8 0 6 5 10 10 10 6 0 11 21 11 48 l1 47 8 -40 c5 -22 6 -48 4 -57z m94 25 c2
-41 -1 -53 -8 -43 -11 17 -11 100 0 100 4 0 8 -26 8 -57z m-41 25 c-3 -8 -6
-5 -6 6 -1 11 2 17 5 13 3 -3 4 -12 1 -19z m93 2 c8 -14 8 -20 0 -20 -15 0
-41 26 -33 34 11 11 22 6 33 -14z m215 -1 c10 -15 -1 -23 -20 -15 -9 3 -13 10
-10 16 8 13 22 13 30 -1z m-855 -28 c0 -17 -18 -21 -24 -6 -3 9 0 15 9 15 8 0
15 -4 15 -9z m557 -38 c-4 -3 -7 0 -7 7 0 7 3 10 7 7 3 -4 3 -10 0 -14z m-62
-22 c-3 -5 2 -17 11 -26 16 -15 16 -16 -1 -13 -17 3 -19 -5 -16 -97 1 -54 5
-103 7 -107 3 -4 25 -8 50 -8 l44 0 0 40 c0 22 5 40 10 40 6 0 10 -16 8 -37
l-3 -38 40 3 c27 1 35 -1 25 -7 -8 -5 -61 -12 -117 -15 -105 -8 -125 -3 -171
41 -20 19 -23 16 -20 -22 2 -31 4 -33 18 -20 23 21 30 19 29 -7 0 -22 -1 -22
-9 -3 -7 17 -9 17 -9 3 -1 -18 -17 -23 -44 -13 -10 4 -13 18 -10 45 4 42 -6
51 -27 25 -7 -8 -17 -15 -23 -15 -5 0 -2 9 8 20 10 11 24 20 32 20 7 0 13 11
13 24 0 14 5 28 10 31 6 4 10 3 9 -2 -4 -25 2 -63 11 -63 6 0 11 12 11 28 1
20 3 17 8 -13 4 -27 12 -41 24 -43 21 -4 23 28 5 59 -10 17 -10 23 0 26 7 3
13 26 14 56 l2 52 3 -47 c3 -35 8 -48 19 -48 13 0 15 9 9 49 -7 49 5 91 26 91
6 0 8 -4 4 -9z m-135 -69 c0 -13 -4 -20 -10 -17 -5 3 -10 21 -10 38 0 24 3 28
10 17 5 -8 10 -25 10 -38z m241 11 c0 -21 1 -53 2 -71 1 -17 -1 -32 -5 -32 -5
0 -9 12 -9 28 -1 15 -3 46 -4 70 -2 23 1 42 6 42 5 0 9 -17 10 -37z m-701 3
c0 -3 -5 -8 -12 -12 -7 -4 -8 -3 -4 4 7 12 16 16 16 8z m-73 -43 c-4 -3 -7 0
-7 7 0 7 3 10 7 7 3 -4 3 -10 0 -14z m830 0 c-4 -3 -7 0 -7 7 0 7 3 10 7 7 3
-4 3 -10 0 -14z m-925 -13 c10 0 18 -7 18 -15 0 -22 -43 -19 -57 4 -13 21 -5
37 11 21 5 -5 18 -10 28 -10z m628 0 c0 -5 -4 -10 -10 -10 -5 0 -10 5 -10 10
0 6 5 10 10 10 6 0 10 -4 10 -10z m-553 -27 c-4 -3 -10 -3 -14 0 -3 4 0 7 7 7
7 0 10 -3 7 -7z m293 -7 c0 -3 -4 -8 -10 -11 -5 -3 -10 -1 -10 4 0 6 5 11 10
11 6 0 10 -2 10 -4z m-350 -16 c0 -5 -15 -10 -32 -10 -25 0 -29 3 -18 10 20
13 50 13 50 0z m57 -82 c-2 -18 -4 -4 -4 32 0 36 2 50 4 33 2 -18 2 -48 0 -65z
m191 85 c-10 -2 -26 -2 -35 0 -10 3 -2 5 17 5 19 0 27 -2 18 -5z m1089 -85
c-3 -8 -6 -5 -6 6 -1 11 2 17 5 13 3 -3 4 -12 1 -19z m-859 5 c-10 -2 -26 -2
-35 0 -10 3 -2 5 17 5 19 0 27 -2 18 -5z m-78 -53 c-36 -11 -52 -11 -45 0 3 6
21 10 38 9 31 -1 31 -1 7 -9z m1140 -189 c-10 -21 -30 -37 -30 -26 0 14 21 45
31 45 6 0 6 -7 -1 -19z m-348 -36 c26 -14 54 -25 63 -25 9 0 15 -9 15 -25 l0
-26 -67 36 c-36 19 -78 35 -93 35 -14 0 -35 7 -46 15 -17 13 -15 14 31 15 35
0 65 -8 97 -25z m344 -242 c-4 -4 -11 -1 -16 7 -16 25 -11 35 7 17 9 -9 13
-20 9 -24z m336 7 c52 -15 84 -48 80 -82 -2 -17 1 -28 9 -28 7 0 9 -3 6 -7 -4
-3 -2 -12 4 -19 14 -17 1 -62 -22 -75 -11 -5 -19 -17 -20 -27 0 -10 -3 -12 -6
-4 -2 6 -9 12 -14 12 -6 0 -8 -4 -5 -9 3 -4 -6 -13 -19 -19 -14 -6 -29 -25
-35 -44 l-10 -33 5 33 c4 31 -1 37 -32 33 -7 -1 -13 6 -14 16 0 11 -3 13 -6 6
-2 -7 -11 -13 -19 -13 -8 0 -14 6 -14 13 0 8 -4 7 -10 -3 -8 -12 -11 -11 -17
9 -6 23 -7 24 -15 5 -6 -14 -7 -10 -3 14 3 24 1 32 -10 32 -17 0 -30 43 -19
61 4 8 3 9 -4 5 -7 -4 -12 -2 -12 5 0 23 36 38 95 40 33 1 52 3 43 6 -10 2
-18 13 -18 24 0 21 -25 26 -33 7 -3 -8 -6 -5 -6 6 -1 15 -6 17 -29 13 -15 -3
-34 -2 -42 4 -12 7 -12 9 -1 9 11 0 11 3 1 15 -11 14 -3 15 71 11 46 -2 101
-10 121 -16z m-857 -164 c-10 -14 -21 -26 -26 -26 -5 0 0 13 12 30 27 36 38
33 14 -4z m-268 -33 c-4 -3 -10 -3 -14 0 -3 4 0 7 7 7 7 0 10 -3 7 -7z m1240
-10 c-4 -3 -7 0 -7 7 0 7 3 10 7 7 3 -4 3 -10 0 -14z m-290 -10 c-4 -3 -7 0
-7 7 0 7 3 10 7 7 3 -4 3 -10 0 -14z m-927 -25 c0 -4 -7 -8 -16 -8 -13 0 -14
-3 -5 -14 17 -20 -12 -40 -45 -32 -15 4 -33 2 -42 -6 -15 -12 -16 -11 -3 5 15
19 2 24 -17 5 -7 -7 -12 -9 -12 -5 0 16 57 57 73 53 14 -3 16 0 12 14 -5 17
-3 18 25 7 16 -6 30 -15 30 -19z m1257 -5 c-4 -3 -10 -3 -14 0 -3 4 0 7 7 7 7
0 10 -3 7 -7z m160 0 c-4 -3 -10 -3 -14 0 -3 4 0 7 7 7 7 0 10 -3 7 -7z m23
-28 c0 -8 -7 -15 -15 -15 -16 0 -20 12 -8 23 11 12 23 8 23 -8z m-1691 -11
c-9 -11 -8 -14 5 -14 21 0 20 -6 -5 -31 -15 -15 -28 -19 -46 -14 -21 5 -24 3
-18 -15 4 -11 2 -20 -4 -20 -6 0 -11 7 -11 17 0 14 -2 15 -17 1 -38 -32 -49
-33 -29 -3 l19 30 -23 -20 c-20 -17 -23 -18 -17 -2 7 20 -3 23 -21 5 -24 -24
-11 2 16 32 23 24 37 31 74 32 26 1 45 5 43 8 -2 3 8 6 21 6 20 2 23 -1 13
-12z m461 6 c0 -5 -7 -10 -15 -10 -8 0 -15 5 -15 10 0 6 7 10 15 10 8 0 15 -4
15 -10z m-51 -16 c-7 -9 -16 -38 -19 -66 -6 -44 -5 -48 7 -32 7 10 13 26 13
37 0 10 4 16 9 13 12 -8 20 -66 9 -66 -4 0 -8 -5 -8 -11 0 -6 7 -8 16 -5 8 3
12 2 9 -3 -3 -6 3 -14 12 -20 17 -9 17 -10 0 -16 -9 -4 -24 -2 -32 5 -9 8 -15
8 -15 2 0 -6 9 -13 19 -17 11 -3 22 -12 25 -20 7 -20 -11 -68 -24 -60 -12 7
-2 35 14 35 6 0 0 6 -14 13 -24 12 -26 11 -38 -22 -7 -20 -12 -42 -11 -51 1
-8 1 -24 0 -34 -1 -20 -1 -20 -16 0 -17 22 -20 54 -5 54 6 0 10 12 9 28 l-1
27 -14 -33 c-21 -49 -34 -30 -19 28 13 48 4 73 -10 29 -4 -11 -9 -18 -11 -16
-7 7 18 57 28 57 5 0 7 4 3 9 -3 5 -1 13 5 16 8 5 8 11 0 20 -13 16 -69 10
-89 -10 -12 -12 -11 -13 7 -8 14 3 22 1 22 -7 0 -14 -51 -7 -102 15 l-33 14
25 9 c15 6 29 6 35 1 11 -11 45 -12 45 -1 0 4 -5 13 -12 20 -8 8 -4 14 17 22
34 13 69 5 45 -10 -8 -6 -10 -10 -4 -10 6 0 17 7 24 15 7 8 16 13 20 10 4 -3
13 2 20 10 11 13 10 14 -6 8 -17 -6 -17 -5 -6 10 8 8 20 13 28 10 8 -3 14 0
14 6 0 6 5 11 11 11 8 0 7 -5 -2 -16z m28 -21 c-4 -3 -7 0 -7 7 0 7 3 10 7 7
3 -4 3 -10 0 -14z m978 3 c14 -14 2 -36 -19 -36 -6 0 -4 4 4 10 19 12 8 22
-14 14 -9 -4 -15 -12 -12 -20 3 -8 -2 -11 -16 -9 -30 6 -30 9 -8 33 24 25 45
28 65 8z m-1312 -33 c-17 -27 -17 -27 0 -14 19 15 30 12 19 -6 -4 -7 -24 -14
-45 -16 -20 -2 -40 -7 -44 -12 -5 -4 -2 -5 5 -1 6 4 12 3 12 -2 0 -12 -49 -22
-55 -12 -6 9 10 22 53 44 19 10 30 21 26 28 -4 6 -3 8 4 4 6 -3 13 -2 17 4 3
5 11 10 16 10 5 0 2 -12 -8 -27z m1234 -19 c-3 -3 -12 -4 -19 -1 -8 3 -5 6 6
6 11 1 17 -2 13 -5z m-70 -21 c-4 -3 -7 0 -7 7 0 7 3 10 7 7 3 -4 3 -10 0 -14z
m-1408 -20 c-4 -22 2 -33 14 -27 9 6 9 5 0 -7 -10 -12 -9 -20 3 -37 15 -21 14
-21 -19 -7 -19 8 -37 11 -41 8 -12 -12 -6 18 9 47 14 27 37 42 34 23z m1853
-45 c-9 -9 -12 -7 -12 12 0 19 3 21 12 12 9 -9 9 -15 0 -24z m53 22 c-3 -5
-10 -10 -16 -10 -5 0 -9 5 -9 10 0 6 7 10 16 10 8 0 12 -4 9 -10z m-1998 -7
c-4 -3 -10 -3 -14 0 -3 4 0 7 7 7 7 0 10 -3 7 -7z m1913 -18 c0 -18 7 -26 25
-31 14 -3 25 -10 25 -15 0 -5 -7 -6 -15 -3 -8 4 -15 1 -15 -5 0 -6 9 -11 20
-11 11 0 20 -4 20 -10 0 -5 -8 -10 -19 -10 -32 0 -33 -57 -2 -87 l26 -25 -25
5 c-24 6 -24 5 5 -19 23 -19 27 -26 16 -33 -11 -7 -10 -11 5 -20 17 -9 17 -10
2 -11 -12 0 -18 -8 -18 -21 0 -18 -2 -20 -15 -9 -9 7 -14 19 -11 26 3 7 1 16
-4 19 -6 4 -10 -20 -10 -59 0 -59 11 -88 28 -71 3 3 0 10 -8 15 -8 5 -11 12
-7 16 10 10 37 -15 31 -30 -6 -16 22 -46 42 -46 8 0 14 -4 14 -9 0 -6 -12 -6
-31 -1 -26 8 -29 7 -19 -5 7 -8 20 -17 31 -20 10 -4 19 -10 19 -15 0 -5 -23 1
-51 12 -43 18 -52 19 -60 7 -5 -8 -8 38 -8 121 0 94 -3 136 -12 139 -7 2 -8 6
-1 10 5 3 13 38 16 76 6 59 5 67 -6 50 -12 -18 -13 -17 -18 20 -5 38 6 75 22
75 5 0 8 -11 8 -25z m-2053 -12 c-4 -3 -7 0 -7 7 0 7 3 10 7 7 3 -4 3 -10 0
-14z m128 -15 c-4 -18 -10 -35 -14 -38 -4 -3 -12 -16 -18 -30 -10 -23 -11 -22
-11 18 0 31 4 42 15 42 12 0 13 3 4 14 -9 11 -9 15 1 19 26 11 29 6 23 -25z
m335 28 c0 -2 -7 -7 -16 -10 -8 -3 -12 -2 -9 4 6 10 25 14 25 6z m-296 -33
c-9 -37 -14 -44 -24 -38 -8 5 16 65 26 65 2 0 1 -12 -2 -27z m706 17 c0 -5 -2
-10 -4 -10 -3 0 -8 5 -11 10 -3 6 -1 10 4 10 6 0 11 -4 11 -10z m1530 0 c0 -5
-2 -10 -4 -10 -3 0 -8 5 -11 10 -3 6 -1 10 4 10 6 0 11 -4 11 -10z m-2025 -30
c-9 -16 -11 -30 -6 -30 6 0 15 9 21 20 6 11 16 20 22 20 6 0 3 -9 -8 -21 -18
-20 -18 -22 -1 -34 9 -6 17 -17 17 -24 0 -14 -27 -15 -35 -1 -8 13 -25 13 -25
0 0 -6 -17 -28 -37 -48 -36 -37 -36 -37 -14 -4 12 17 18 32 13 32 -14 0 -75
-77 -90 -113 l-14 -32 30 35 30 35 -5 -28 c-3 -15 -9 -30 -14 -33 -5 -3 -9
-16 -9 -30 0 -16 -6 -24 -17 -24 -13 0 -14 -3 -5 -12 22 -22 13 -37 -20 -34
-25 2 -32 7 -30 20 2 13 -2 15 -22 10 -27 -6 -37 9 -13 20 10 5 10 7 0 12 -21
9 -15 24 9 24 17 0 19 3 10 12 -18 18 -15 30 7 26 28 -5 93 77 85 108 -4 14
-2 24 5 24 6 0 8 -8 5 -17 -5 -15 -3 -15 10 2 14 17 14 20 1 28 -24 13 -17 30
10 25 14 -3 25 -1 25 3 0 5 -7 9 -16 9 -8 0 -12 5 -8 11 3 6 16 8 28 5 15 -4
28 1 39 14 26 31 40 24 22 -10z m522 23 c-4 -3 -10 -3 -14 0 -3 4 0 7 7 7 7 0
10 -3 7 -7z m1220 -15 c-3 -8 -6 -5 -6 6 -1 11 2 17 5 13 3 -3 4 -12 1 -19z
m-2087 -2 c0 -3 -4 -8 -10 -11 -5 -3 -10 -1 -10 4 0 6 5 11 10 11 6 0 10 -2
10 -4z m187 -11 c2 -5 -8 -10 -22 -10 -25 0 -31 6 -18 19 9 9 36 3 40 -9z
m683 -5 c0 -11 -7 -20 -15 -20 -18 0 -19 6 -2 25 16 19 17 18 17 -5z m-936
-16 c24 -9 19 -24 -6 -20 -13 3 -27 5 -31 5 -11 1 2 21 13 21 4 0 15 -3 24 -6z
m2181 -4 c3 -5 1 -10 -4 -10 -6 0 -11 5 -11 10 0 6 2 10 4 10 3 0 8 -4 11 -10z
m-2125 -4 c0 -3 -4 -8 -10 -11 -5 -3 -10 -1 -10 4 0 6 5 11 10 11 6 0 10 -2
10 -4z m2157 -18 c-3 -8 -6 -5 -6 6 -1 11 2 17 5 13 3 -3 4 -12 1 -19z m83 6
c0 -8 -5 -12 -10 -9 -6 4 -8 11 -5 16 9 14 15 11 15 -7z m-51 -26 c0 -28 -2
-30 -9 -13 -12 28 -12 45 0 45 6 0 10 -15 9 -32z m-1362 5 c-4 -3 -7 0 -7 7 0
7 3 10 7 7 3 -4 3 -10 0 -14z m1248 7 c3 -5 4 -10 1 -10 -3 0 -8 5 -11 10 -3
6 -4 10 -1 10 3 0 8 -4 11 -10z m-2158 -17 c-4 -3 -7 0 -7 7 0 7 3 10 7 7 3
-4 3 -10 0 -14z m2315 0 c10 -9 18 -29 18 -44 0 -15 5 -40 11 -56 8 -22 12
-24 19 -13 8 13 10 12 10 -2 0 -10 6 -18 14 -18 8 0 18 -5 21 -11 4 -6 0 -9
-11 -7 -16 3 -18 -3 -15 -42 l3 -45 -21 19 c-21 19 -21 19 -21 -2 0 -11 5 -24
10 -27 6 -3 11 -23 11 -43 l2 -37 7 35 c6 27 8 18 9 -42 1 -72 -1 -78 -19 -78
-18 0 -24 -10 -21 -35 1 -5 -6 -1 -14 9 -8 11 -15 30 -15 43 0 13 -5 23 -11
23 -5 0 -9 -8 -8 -17 1 -10 1 -27 0 -38 -2 -19 -2 -19 -13 -1 -7 12 -8 48 -4
100 8 106 7 139 -4 150 -7 7 -10 -1 -11 -19 l-1 -30 -8 29 c-5 16 -7 43 -4 60
3 17 6 39 7 49 1 9 5 17 10 17 5 0 6 -11 3 -25 -4 -14 -2 -25 3 -25 12 0 21
63 14 105 -6 39 1 43 29 18z m-1402 -24 c0 -12 -5 -16 -15 -13 -8 4 -15 12
-15 18 0 7 7 13 15 13 8 0 15 -8 15 -18z m-460 7 c0 -3 -4 -8 -10 -11 -5 -3
-10 -1 -10 4 0 6 5 11 10 11 6 0 10 -2 10 -4z m113 -19 c-3 -5 5 -7 18 -5 18
2 24 -2 23 -14 -1 -10 4 -18 12 -18 8 0 14 -9 14 -20 0 -11 -5 -20 -11 -20 -8
0 -7 -6 2 -17 13 -15 11 -16 -17 -10 -24 5 -36 1 -49 -13 -10 -11 -22 -20 -27
-20 -5 0 0 10 12 22 11 12 20 25 20 30 0 15 -14 8 -37 -19 -20 -26 -22 -26
-23 -7 0 11 5 25 12 32 9 9 7 16 -7 32 -22 25 -14 36 15 20 29 -15 38 -5 11
12 -29 18 -26 28 8 25 16 -1 27 -6 24 -10z m-96 -4 c-4 -3 -10 -3 -14 0 -3 4
0 7 7 7 7 0 10 -3 7 -7z m279 -50 c-10 -10 -19 5 -10 18 6 11 8 11 12 0 2 -7
1 -15 -2 -18z m-752 -15 c-4 -6 -8 -24 -9 -39 -2 -15 -10 -38 -20 -51 l-17
-23 6 33 c4 24 2 32 -9 32 -8 0 -15 5 -15 10 0 6 7 10 15 10 9 0 20 12 25 26
6 14 15 22 20 19 6 -4 7 -11 4 -17z m840 -43 c3 -65 -9 -83 -17 -26 -5 39 2
96 10 87 3 -3 6 -30 7 -61z m-711 49 c3 -3 2 -14 -3 -23 -5 -9 -11 -24 -14
-33 -3 -12 -11 -15 -22 -11 -15 6 -15 7 2 20 15 11 16 15 5 22 -7 5 -10 14 -7
20 8 12 29 15 39 5z m779 -26 c-9 -9 -12 -7 -12 12 0 19 3 21 12 12 9 -9 9
-15 0 -24z m-157 -47 c0 -41 -3 -67 -9 -64 -5 3 -6 1 -2 -6 9 -14 -12 -83 -24
-76 -9 6 -5 78 10 154 5 29 10 55 10 57 0 2 3 4 8 4 4 0 7 -31 7 -69z m-588
42 c-4 -3 -7 0 -7 7 0 7 3 10 7 7 3 -4 3 -10 0 -14z m2073 7 c0 -5 -4 -10 -10
-10 -5 0 -10 5 -10 10 0 6 5 10 10 10 6 0 10 -4 10 -10z m-1260 -10 c0 -5 -5
-10 -11 -10 -5 0 -7 5 -4 10 3 6 8 10 11 10 2 0 4 -4 4 -10z m-940 -4 c0 -3
-5 -8 -12 -12 -7 -4 -8 -3 -4 4 7 12 16 16 16 8z m900 -17 c0 -5 -6 -9 -12 -9
-8 -1 -6 -6 5 -14 21 -16 22 -26 2 -26 -8 0 -15 -4 -15 -10 0 -5 5 -10 10 -10
6 0 10 -4 10 -10 0 -5 -7 -10 -15 -10 -8 0 -15 9 -15 20 0 13 -9 22 -25 26
-14 3 -25 10 -25 16 0 5 9 7 19 3 11 -3 22 -1 26 4 3 6 -6 13 -20 17 -39 10
-30 20 15 16 22 -2 40 -8 40 -13z m-783 -16 c-4 -3 -7 0 -7 7 0 7 3 10 7 7 3
-4 3 -10 0 -14z m2083 7 c0 -5 -2 -10 -4 -10 -3 0 -8 5 -11 10 -3 6 -1 10 4
10 6 0 11 -4 11 -10z m-1602 -19 c3 -10 -3 -12 -27 -9 -17 2 -31 1 -31 -4 0
-7 23 -12 43 -9 4 0 7 -6 7 -14 0 -10 -10 -15 -29 -15 -31 0 -33 -7 -47 -130
-13 -121 -26 -172 -42 -178 -10 -3 -12 5 -7 31 4 20 3 37 -3 41 -9 6 -16 -17
-36 -124 -2 -14 -3 13 -1 60 4 101 9 132 29 185 l16 40 -3 -42 c-6 -95 24 -25
38 87 7 59 -3 60 -22 2 l-13 -37 4 37 c3 26 15 46 38 67 34 32 77 38 86 12z
m339 2 c-4 -3 -7 0 -7 7 0 7 3 10 7 7 3 -4 3 -10 0 -14z m1438 7 c3 -5 1 -10
-4 -10 -6 0 -11 5 -11 10 0 6 2 10 4 10 3 0 8 -4 11 -10z m-2475 -10 c0 -5 -5
-10 -11 -10 -5 0 -7 5 -4 10 3 6 8 10 11 10 2 0 4 -4 4 -10z m90 0 c0 -5 -4
-10 -10 -10 -5 0 -10 5 -10 10 0 6 5 10 10 10 6 0 10 -4 10 -10z m500 -4 c0
-3 -5 -8 -12 -12 -7 -4 -8 -3 -4 4 7 12 16 16 16 8z m-93 -23 c-4 -3 -7 0 -7
7 0 7 3 10 7 7 3 -4 3 -10 0 -14z m43 -9 c0 -9 -8 -23 -17 -30 -17 -12 -17
-13 -1 -14 9 0 22 8 27 18 6 9 11 12 11 7 1 -37 -60 -46 -100 -15 -22 17 -23
19 -7 25 9 4 24 2 32 -5 11 -9 16 -7 27 9 15 25 28 27 28 5z m-631 -40 c3 -16
1 -17 -13 -5 -19 16 -21 34 -3 29 6 -3 14 -13 16 -24z m-25 -30 c9 -3 16 -15
16 -27 0 -19 -1 -20 -20 -2 -30 27 -28 41 4 29z m2446 -61 c0 -65 -10 -75 -25
-25 -4 15 -2 22 7 22 11 0 11 2 0 9 -9 5 -11 17 -6 34 12 49 24 28 24 -40z
m-2360 47 c0 -5 -2 -10 -4 -10 -3 0 -8 5 -11 10 -3 6 -1 10 4 10 6 0 11 -4 11
-10z m970 -25 c0 -12 7 -25 15 -29 8 -3 12 -12 9 -21 -5 -11 1 -15 22 -15 26
1 27 2 12 14 -10 7 -18 16 -18 20 0 11 35 7 48 -6 16 -16 16 -41 0 -32 -10 6
-10 4 0 -8 9 -11 9 -22 3 -39 -10 -24 -10 -24 -10 -2 -1 23 -28 43 -48 36 -8
-3 -9 -12 -3 -28 5 -14 5 -27 1 -29 -5 -3 -17 22 -27 57 -23 81 -29 121 -15
112 6 -3 11 -17 11 -30z m70 19 c0 -8 -4 -12 -10 -9 -5 3 -10 10 -10 16 0 5 5
9 10 9 6 0 10 -7 10 -16z m1510 1 c0 -8 -4 -15 -8 -15 -5 0 -9 7 -9 15 0 8 4
15 9 15 4 0 8 -7 8 -15z m-2393 -22 c-4 -3 -7 0 -7 7 0 7 3 10 7 7 3 -4 3 -10
0 -14z m873 -8 c0 -12 -29 -3 -34 10 -4 13 -2 14 14 5 11 -6 20 -13 20 -15z
m1676 5 c0 -11 -4 -20 -8 -20 -10 0 -11 24 -1 33 9 9 9 10 9 -13z m-199 3 c-4
-3 -10 -3 -14 0 -3 4 0 7 7 7 7 0 10 -3 7 -7z m59 -50 c15 -27 33 -52 41 -56
7 -4 13 -19 13 -31 0 -13 6 -26 13 -29 7 -3 12 -18 11 -33 -1 -16 -2 -39 -3
-51 -1 -15 -6 -21 -15 -17 -8 3 -13 14 -11 24 2 10 -4 21 -12 24 -14 6 -15 -2
-10 -54 3 -33 1 -60 -4 -60 -5 0 -9 10 -10 23 -1 16 -4 12 -11 -13 -5 -19 -14
-39 -19 -44 -12 -13 -12 25 0 57 11 28 3 109 -10 101 -5 -3 -9 11 -9 30 0 19
5 38 10 41 6 4 8 10 5 15 -6 10 -16 120 -11 120 2 0 16 -21 32 -47z m97 35
c21 -11 21 -11 2 -19 -11 -4 -29 -8 -40 -8 -19 0 -19 1 -3 13 10 7 15 16 11
19 -10 11 6 8 30 -5z m-2686 -15 c-4 -3 -7 0 -7 7 0 7 3 10 7 7 3 -4 3 -10 0
-14z m373 7 c0 -5 -5 -10 -11 -10 -5 0 -7 5 -4 10 3 6 8 10 11 10 2 0 4 -4 4
-10z m-433 -22 c-3 -8 -6 -5 -6 6 -1 11 2 17 5 13 3 -3 4 -12 1 -19z m2352 -4
c3 -16 1 -17 -13 -5 -19 16 -21 34 -3 29 6 -3 14 -13 16 -24z m246 16 c3 -5 2
-10 -4 -10 -5 0 -13 5 -16 10 -3 6 -2 10 4 10 5 0 13 -4 16 -10z m-2034 -21
c31 -16 13 -27 -30 -19 -24 4 -44 3 -50 -3 -6 -6 -14 -7 -18 -3 -11 11 27 36
55 36 13 0 32 -5 43 -11z m325 -23 c-5 -24 -3 -35 8 -39 10 -4 14 -21 14 -52
0 -44 -1 -46 -17 -31 -10 9 -21 13 -24 9 -4 -3 -7 3 -7 14 0 17 5 20 23 16
l22 -5 -22 19 c-20 16 -21 22 -11 61 13 50 23 56 14 8z m-456 9 c0 -16 -9 -19
-34 -9 -20 8 -11 24 15 24 10 0 19 -7 19 -15z m2663 -20 c-3 -9 -8 -14 -10
-11 -3 3 -2 9 2 15 9 16 15 13 8 -4z m-2550 -7 c42 -20 32 -28 -32 -25 -59 2
-68 11 -27 27 28 12 28 12 59 -2z m-130 -13 c0 -6 -7 -11 -16 -13 -12 -3 -15
1 -11 13 7 17 25 17 27 0z m-463 -31 c0 -8 -4 -12 -10 -9 -5 3 -10 10 -10 16
0 5 5 9 10 9 6 0 10 -7 10 -16z m2529 -27 l9 -32 1 33 c1 34 30 48 32 15 0
-17 1 -17 7 -1 18 46 40 -23 34 -109 -2 -27 -28 -31 -35 -5 -3 9 -5 -9 -6 -41
-1 -35 3 -56 9 -52 5 3 13 -7 17 -22 l7 -28 7 30 c7 29 7 29 8 3 1 -21 5 -25
21 -21 11 3 20 0 20 -6 0 -6 -13 -11 -29 -11 -17 0 -33 -5 -36 -11 -4 -6 0 -9
10 -7 33 6 28 -22 -4 -28 -29 -6 -31 -9 -31 -53 0 -33 -3 -42 -10 -31 -5 8
-10 27 -10 43 0 15 -4 27 -10 27 -5 0 -10 -11 -10 -24 0 -38 -20 -42 -22 -4 0
18 -1 41 0 51 1 9 -3 17 -8 17 -6 0 -10 -12 -10 -26 0 -23 -3 -25 -32 -19 -18
4 -45 9 -60 12 -26 5 -41 33 -18 33 6 0 10 -3 10 -7 0 -5 10 -9 23 -10 12 0
29 -3 37 -5 8 -1 16 2 18 7 1 6 -7 11 -18 11 -11 1 -26 6 -34 13 -7 6 -21 9
-30 5 -11 -4 -16 -1 -16 10 0 12 7 14 33 9 17 -3 40 -10 49 -14 19 -10 33 4
24 26 -3 8 -1 17 4 20 6 4 10 -8 10 -25 0 -20 4 -29 11 -24 6 3 8 16 5 29 -4
14 0 28 9 35 13 10 15 9 16 -11 1 -23 1 -23 9 3 4 15 5 47 2 70 -5 35 -7 39
-12 19 -13 -54 -25 -28 -27 59 -2 91 8 109 26 47z m-2500 5 c0 -9 1 -26 2 -37
3 -29 -12 -105 -22 -111 -5 -3 -9 -14 -9 -25 0 -10 -4 -19 -9 -19 -4 0 -14
-21 -21 -47 -7 -27 -17 -52 -21 -58 -11 -12 -11 -25 -1 -25 5 0 16 18 26 40
10 22 21 40 25 40 4 0 8 15 9 32 2 18 7 37 13 43 11 11 5 -49 -9 -85 -40 -102
-45 -110 -64 -104 -13 4 -24 -1 -34 -14 -13 -19 -15 -19 -49 -4 -33 15 -45 35
-26 46 4 3 17 -1 27 -9 24 -18 34 -19 34 -2 0 8 -11 19 -25 25 -26 12 -35 42
-12 42 7 0 22 -6 32 -14 18 -13 21 -10 38 28 18 39 28 70 41 126 6 22 5 22 -5
-2 -6 -16 -15 -28 -20 -28 -11 0 -11 3 1 34 7 20 6 27 -7 34 -11 7 -13 14 -6
26 8 15 11 15 36 -4 35 -28 35 -14 0 22 -20 21 -24 31 -15 40 8 8 15 8 26 -1
13 -11 16 -9 22 13 7 28 23 27 23 -2z m488 1 c-4 -3 -7 0 -7 7 0 7 3 10 7 7 3
-4 3 -10 0 -14z m1972 -65 c-1 -46 -4 -71 -6 -55 -2 15 -9 28 -14 28 -19 3
-24 4 -34 10 -5 4 -25 10 -42 14 -45 9 -43 29 2 22 45 -7 44 -1 -2 18 -29 12
-34 18 -23 25 19 12 75 -23 75 -46 0 -10 6 -19 13 -22 7 -2 11 4 10 15 -3 39
2 73 12 73 6 0 9 -33 9 -82z m-1329 8 c0 -10 8 -25 18 -32 14 -11 14 -15 3
-23 -8 -5 -9 -11 -3 -14 5 -4 9 -25 9 -47 0 -22 -2 -39 -4 -36 -5 5 -52 185
-53 200 0 6 7 1 15 -10 8 -10 15 -28 15 -38z m1487 17 c-4 -3 -7 0 -7 7 0 7 3
10 7 7 3 -4 3 -10 0 -14z m-2360 -10 c-4 -3 -7 0 -7 7 0 7 3 10 7 7 3 -4 3
-10 0 -14z m2548 -3 c3 -5 1 -10 -4 -10 -6 0 -11 5 -11 10 0 6 2 10 4 10 3 0
8 -4 11 -10z m-1808 -22 c-3 -8 -6 -5 -6 6 -1 11 2 17 5 13 3 -3 4 -12 1 -19z
m43 -9 c0 -5 -4 -9 -10 -9 -5 0 -10 7 -10 16 0 8 5 12 10 9 6 -3 10 -10 10
-16z m1577 14 c-4 -3 -10 -3 -14 0 -3 4 0 7 7 7 7 0 10 -3 7 -7z m20 -15 c-3
-8 -6 -5 -6 6 -1 11 2 17 5 13 3 -3 4 -12 1 -19z m-2370 -5 c-4 -3 -7 0 -7 7
0 7 3 10 7 7 3 -4 3 -10 0 -14z m-227 -3 c0 -5 -4 -10 -10 -10 -5 0 -10 5 -10
10 0 6 5 10 10 10 6 0 10 -4 10 -10z m431 -27 c-9 -16 -10 -14 -11 12 0 21 3
26 11 18 8 -8 8 -16 0 -30z m229 10 c0 -5 -5 -15 -10 -23 -8 -12 -10 -11 -10
8 0 12 5 22 10 22 6 0 10 -3 10 -7z m287 -10 c-4 -3 -7 0 -7 7 0 7 3 10 7 7 3
-4 3 -10 0 -14z m-1080 0 c-4 -3 -10 -3 -14 0 -3 4 0 7 7 7 7 0 10 -3 7 -7z
m1123 -3 c0 -5 -4 -10 -10 -10 -5 0 -10 5 -10 10 0 6 5 10 10 10 6 0 10 -4 10
-10z m-1010 -21 c0 -5 -4 -9 -10 -9 -5 0 -10 7 -10 16 0 8 5 12 10 9 6 -3 10
-10 10 -16z m528 2 c8 -4 12 -19 10 -32 -3 -23 -4 -23 -21 9 -17 32 -14 39 11
23z m-30 -31 c19 -25 27 -29 50 -23 15 3 32 13 39 22 7 9 12 12 12 6 0 -5 -6
-19 -14 -29 -9 -12 -11 -22 -6 -26 6 -3 3 -20 -6 -40 -21 -45 -23 -47 -31 -33
-6 9 -15 9 -36 -2 -16 -8 -37 -15 -49 -15 -19 0 -19 1 -3 19 10 11 28 22 42
25 13 4 24 11 24 16 0 13 -6 13 -41 -6 -17 -8 -33 -13 -36 -10 -8 8 16 34 37
41 19 6 18 7 0 41 -22 39 -24 44 -12 44 5 0 18 -14 30 -30z m2262 -20 c0 -5
-5 -10 -11 -10 -5 0 -7 5 -4 10 3 6 8 10 11 10 2 0 4 -4 4 -10z m-2143 -27
c-4 -3 -7 0 -7 7 0 7 3 10 7 7 3 -4 3 -10 0 -14z m283 -29 c0 -8 -6 -11 -15
-8 -8 4 -22 1 -30 -6 -14 -11 -39 -9 -81 7 -10 4 -15 2 -11 -4 3 -5 3 -23 -2
-39 l-8 -29 -7 39 c-10 51 1 60 52 43 38 -13 43 -13 58 4 17 19 44 15 44 -7z
m1745 6 c-3 -5 -1 -10 5 -12 6 -2 12 -14 15 -27 9 -48 18 -36 18 23 -1 17 1
17 18 -5 10 -13 16 -31 12 -39 -3 -8 -6 -45 -6 -82 l0 -67 -29 15 c-15 8 -28
21 -28 28 0 8 -4 16 -9 18 -5 2 -12 40 -16 86 -6 73 -5 81 9 76 9 -3 14 -10
11 -14z m-2775 -10 c0 -24 -9 -25 -36 -5 -14 11 -15 14 -3 9 10 -3 20 -1 24 5
10 16 15 13 15 -9z m2736 -37 c-10 -10 -19 5 -10 18 6 11 8 11 12 0 2 -7 1
-15 -2 -18z m-1703 -6 c24 -20 26 -27 18 -54 -5 -17 -14 -40 -21 -50 -9 -14
-10 -7 -5 34 5 46 3 54 -15 65 -20 13 -27 28 -12 28 5 0 21 -10 35 -23z m-590
0 c3 -9 17 -12 39 -10 l33 4 -24 -20 c-17 -16 -19 -21 -8 -21 9 0 19 5 22 10
9 14 25 12 25 -3 0 -7 -9 -18 -20 -25 -26 -16 -25 -24 5 -60 28 -34 31 -48 12
-55 -10 -4 -13 2 -9 20 3 17 1 24 -6 19 -6 -4 -18 6 -27 24 -8 16 -19 30 -24
30 -8 0 -23 32 -36 78 -7 23 9 31 18 9z m663 -43 c17 -14 17 -15 1 -10 -10 3
-23 6 -28 6 -5 0 -9 5 -9 10 0 14 13 12 36 -6z m173 -41 l-1 -48 -8 40 c-7 37
-5 55 6 55 2 0 3 -21 3 -47z m1288 30 c-4 -3 -7 0 -7 7 0 7 3 10 7 7 3 -4 3
-10 0 -14z m-2150 -10 c-4 -3 -7 0 -7 7 0 7 3 10 7 7 3 -4 3 -10 0 -14z m453
13 c0 -2 -8 -10 -17 -17 -16 -13 -17 -12 -4 4 13 16 21 21 21 13z m90 -6 c0
-5 -2 -10 -4 -10 -3 0 -8 5 -11 10 -3 6 -1 10 4 10 6 0 11 -4 11 -10z m1947
-6 c3 -8 1 -20 -4 -25 -7 -7 -12 -2 -15 15 -6 28 9 36 19 10z m430 -1 c-4 -3
-7 0 -7 7 0 7 3 10 7 7 3 -4 3 -10 0 -14z m-2223 -24 c15 -14 1 -21 -28 -13
-14 3 -26 13 -26 21 0 15 35 10 54 -8z m136 17 c0 -3 -5 -8 -12 -12 -7 -4 -8
-3 -4 4 7 12 16 16 16 8z m-357 -43 c-22 -17 -27 -10 -13 17 10 18 14 20 21 9
6 -9 3 -18 -8 -26z m2454 5 c-3 -7 -5 -2 -5 12 0 14 2 19 5 13 2 -7 2 -19 0
-25z m-3430 5 c-4 -3 -7 0 -7 7 0 7 3 10 7 7 3 -4 3 -10 0 -14z m26 -11 c-3
-12 -9 -19 -14 -16 -5 3 -4 14 2 25 13 26 20 21 12 -9z m511 3 c30 -46 11 -50
-22 -5 -17 22 -19 30 -8 30 7 0 21 -11 30 -25z m194 3 c5 -25 -31 -41 -54 -24
-16 12 -16 16 -4 30 17 21 54 17 58 -6z m309 5 c-4 -3 -7 0 -7 7 0 7 3 10 7 7
3 -4 3 -10 0 -14z m1652 -55 c1 -38 21 -36 21 2 0 17 5 30 10 30 6 0 10 -13
10 -29 0 -28 2 -29 30 -21 26 7 30 6 30 -11 0 -10 -3 -18 -7 -18 -24 4 -53 -2
-53 -11 0 -5 13 -7 30 -3 23 4 30 2 30 -11 0 -9 -3 -15 -7 -15 -5 1 -18 1 -30
0 -21 -1 -23 -6 -23 -64 0 -37 5 -69 13 -76 10 -11 10 -13 0 -7 -9 5 -13 0
-13 -13 0 -17 6 -21 30 -21 17 0 30 -4 30 -9 0 -5 -13 -12 -30 -16 -16 -4 -30
-11 -30 -17 0 -5 12 -7 30 -3 23 5 30 3 30 -9 0 -10 -9 -16 -23 -16 -32 0 -40
-10 -21 -25 9 -6 14 -20 11 -31 -4 -17 -6 -17 -12 4 -5 16 -13 22 -25 19 -14
-3 -16 0 -12 17 3 14 1 18 -6 11 -12 -11 -16 -46 -14 -127 2 -62 22 -82 22
-23 0 43 16 46 25 4 6 -26 11 -30 31 -26 18 3 24 0 24 -14 0 -13 -7 -19 -24
-19 -14 0 -28 -4 -31 -10 -4 -6 6 -7 25 -4 23 5 30 3 30 -9 0 -10 -11 -17 -27
-19 -21 -2 -28 -9 -28 -28 -3 -67 -5 -75 -15 -60 -5 8 -10 30 -10 48 0 17 -4
32 -10 32 -5 0 -10 -13 -10 -30 0 -16 -4 -30 -10 -30 -6 0 -10 58 -10 154 0
150 -1 154 -20 149 -16 -4 -19 -2 -14 11 3 9 12 16 20 16 8 0 14 8 13 18 0 10
-3 12 -6 5 -7 -18 -23 -16 -23 2 0 8 7 15 15 15 11 0 15 11 15 36 0 21 4 33
10 29 6 -3 10 -17 10 -31 0 -13 5 -24 11 -24 12 0 10 158 -2 166 -5 3 -9 -6
-9 -20 0 -14 -4 -26 -10 -26 -5 0 -10 23 -10 51 0 46 -2 50 -20 44 -15 -5 -20
-2 -20 10 0 12 6 16 20 12 18 -5 20 0 21 56 1 46 3 56 9 37 4 -14 8 -37 9 -52z
m-1366 47 c4 -8 2 -17 -3 -20 -6 -4 -10 3 -10 14 0 25 6 27 13 6z m-1027 -82
c-10 -10 -19 5 -10 18 6 11 8 11 12 0 2 -7 1 -15 -2 -18z m369 17 c3 -5 2 -10
-4 -10 -5 0 -13 5 -16 10 -3 6 -2 10 4 10 5 0 13 -4 16 -10z m70 0 c3 -5 1
-10 -4 -10 -6 0 -11 5 -11 10 0 6 2 10 4 10 3 0 8 -4 11 -10z m185 -1 c0 -15
-47 -59 -64 -59 -7 0 -21 7 -32 16 -18 15 -18 15 5 10 16 -3 32 3 50 20 28 26
41 30 41 13z m1727 -6 c-4 -3 -7 0 -7 7 0 7 3 10 7 7 3 -4 3 -10 0 -14z m393
0 c24 -5 50 -9 77 -12 7 0 10 -8 6 -17 -5 -12 -7 -13 -14 -2 -11 18 -32 -3
-23 -25 5 -15 8 -15 32 -1 15 9 20 10 11 3 -9 -8 -17 -18 -18 -24 0 -5 -4 -24
-7 -41 -3 -17 -7 -46 -8 -65 -6 -67 -5 -66 -16 -49 -5 8 -10 12 -12 10 -2 -3
-8 -14 -14 -25 -6 -11 -20 -22 -30 -24 -18 -3 -18 -2 -1 16 17 20 20 73 5 84
-5 3 -4 17 1 31 5 14 7 35 4 47 -3 12 -1 21 6 21 6 0 11 -8 11 -17 0 -13 3
-14 12 -5 10 10 9 15 -2 26 -19 19 -71 10 -63 -10 7 -18 -1 -18 -17 1 -10 12
-8 16 11 24 22 9 21 10 -11 11 l-35 1 28 15 c33 18 33 22 5 35 -20 8 -19 9 7
3 17 -3 41 -8 55 -11z m-2270 -3 c0 -5 -4 -10 -10 -10 -5 0 -10 5 -10 10 0 6
5 10 10 10 6 0 10 -4 10 -10z m176 -59 c-9 -10 -12 -22 -6 -30 4 -8 6 -20 3
-28 -5 -11 -9 -11 -23 2 -10 9 -21 12 -24 7 -3 -5 1 -15 9 -22 18 -15 20 -40
4 -40 -16 0 -38 31 -39 53 0 9 5 17 10 17 6 0 10 7 10 16 0 8 13 29 30 47 16
18 31 37 31 42 1 6 4 -3 6 -18 3 -17 -2 -36 -11 -46z m1881 62 c-4 -3 -10 -3
-14 0 -3 4 0 7 7 7 7 0 10 -3 7 -7z m-229 -13 c19 0 22 -5 22 -42 0 -33 -3
-39 -12 -30 -7 7 -27 12 -45 12 -23 0 -33 5 -33 15 0 12 9 14 43 9 39 -5 41
-4 23 10 -11 9 -30 16 -43 16 -13 0 -23 5 -23 11 0 7 9 9 23 5 12 -3 32 -6 45
-6z m-2281 -17 c-4 -3 -7 0 -7 7 0 7 3 10 7 7 3 -4 3 -10 0 -14z m-397 -3 c0
-5 -4 -10 -10 -10 -5 0 -10 5 -10 10 0 6 5 10 10 10 6 0 10 -4 10 -10z m27
-17 c-4 -3 -7 0 -7 7 0 7 3 10 7 7 3 -4 3 -10 0 -14z m328 -4 c-10 -15 -25
-10 -19 6 4 8 10 12 15 9 5 -3 7 -10 4 -15z m825 0 c0 -18 -2 -19 -15 -5 -8 8
-15 17 -15 20 0 3 7 6 15 6 9 0 15 -9 15 -21z m1766 0 c19 -22 19 -22 -3 -8
-13 8 -23 17 -23 21 0 12 6 9 26 -13z m-206 -14 c0 -8 -7 -15 -15 -15 -16 0
-20 12 -8 23 11 12 23 8 23 -8z m-2355 -5 c3 -5 1 -10 -4 -10 -6 0 -11 5 -11
10 0 6 2 10 4 10 3 0 8 -4 11 -10z m551 -2 c3 -4 -11 -8 -30 -8 -19 0 -38 4
-41 10 -3 5 9 9 30 8 20 -1 38 -5 41 -10z m-946 -13 c0 -8 -4 -15 -10 -15 -5
0 -10 7 -10 15 0 8 5 15 10 15 6 0 10 -7 10 -15z m37 -12 c-4 -3 -7 0 -7 7 0
7 3 10 7 7 3 -4 3 -10 0 -14z m660 10 c-4 -3 -10 -3 -14 0 -3 4 0 7 7 7 7 0
10 -3 7 -7z m503 -3 c16 -9 18 -24 19 -142 1 -121 3 -134 21 -147 26 -18 25
-31 -2 -32 l-23 0 23 -16 c27 -19 28 -33 3 -33 -24 0 -31 -26 -31 -117 0 -62
3 -74 20 -83 21 -11 28 -40 10 -40 -6 0 -6 -7 2 -19 9 -15 8 -22 -5 -36 -15
-14 -17 -15 -17 -1 0 9 -4 16 -8 16 -11 0 -32 -105 -32 -157 0 -35 3 -42 22
-45 13 -2 24 -11 26 -21 3 -16 -1 -18 -27 -12 -40 9 -40 -3 -1 -17 36 -12 34
-34 -3 -31 -22 1 -26 -3 -32 -38 -10 -60 -25 -57 -25 5 0 63 -12 72 -28 24 -9
-28 -10 -22 -7 42 6 124 25 204 25 106 0 -59 15 -52 25 11 4 27 9 52 12 57 3
4 7 28 9 52 4 50 -13 60 -22 14 -12 -57 -24 -30 -18 40 4 53 2 70 -7 70 -8 0
-6 5 4 13 10 7 22 37 28 72 5 33 14 77 18 98 8 35 6 40 -15 49 -12 6 -25 17
-29 26 -4 12 1 13 26 8 27 -5 30 -4 19 9 -7 8 -19 15 -26 15 -8 0 -14 7 -14
16 0 13 7 15 31 10 l31 -6 -3 98 c-2 58 -8 105 -16 117 -22 34 -16 43 17 25z
m187 -22 c-3 -8 -6 -5 -6 6 -1 11 2 17 5 13 3 -3 4 -12 1 -19z m1623 12 c0 -5
-2 -10 -4 -10 -3 0 -8 5 -11 10 -3 6 -1 10 4 10 6 0 11 -4 11 -10z m80 -4 c0
-2 -7 -6 -15 -10 -8 -3 -15 -1 -15 4 0 6 7 10 15 10 8 0 15 -2 15 -4z m-1820
-26 c0 -5 -4 -10 -9 -10 -6 0 -13 5 -16 10 -3 6 1 10 9 10 9 0 16 -4 16 -10z
m-703 -7 c-4 -3 -10 -3 -14 0 -3 4 0 7 7 7 7 0 10 -3 7 -7z m830 -33 c0 -22
-4 -40 -8 -40 -5 0 -9 18 -9 40 0 22 4 40 9 40 4 0 8 -18 8 -40z m63 30 c0 -5
-4 -10 -10 -10 -5 0 -10 -7 -10 -15 0 -8 5 -15 10 -15 6 0 10 -7 10 -16 0 -8
-4 -12 -10 -9 -6 4 -10 -13 -11 -42 l-1 -48 -12 49 c-16 67 -10 116 15 116 10
0 19 -4 19 -10z m-870 -40 c0 -5 -4 -10 -10 -10 -5 0 -10 5 -10 10 0 6 5 10
10 10 6 0 10 -4 10 -10z m-33 -32 c-3 -8 -6 -5 -6 6 -1 11 2 17 5 13 3 -3 4
-12 1 -19z m2563 -3 c0 -8 -7 -15 -16 -15 -14 0 -14 3 -4 15 7 8 14 15 16 15
2 0 4 -7 4 -15z m-100 -11 c0 -6 6 -17 14 -23 7 -6 23 -38 35 -71 12 -33 27
-62 32 -66 7 -4 9 1 4 15 -7 24 10 29 19 6 8 -23 23 -18 30 11 4 15 10 24 13
20 11 -10 5 -67 -9 -83 -10 -12 -13 -59 -13 -179 0 -134 -2 -160 -13 -151 -11
9 -12 4 -6 -28 5 -27 4 -36 -5 -31 -8 5 -11 -7 -10 -41 0 -36 3 -43 9 -28 7
17 9 15 9 -12 1 -23 6 -33 17 -33 20 0 8 -19 -20 -30 -19 -8 -19 -9 7 -9 15
-1 27 -5 27 -11 0 -5 -12 -16 -27 -24 -16 -8 -22 -15 -15 -16 6 0 12 -7 12
-15 0 -8 -6 -14 -12 -12 -9 1 -15 -19 -19 -63 -3 -36 -5 -66 -4 -67 0 -1 17 2
38 6 44 10 48 -2 10 -24 l-28 -16 28 4 c40 6 33 -12 -13 -31 -37 -16 -39 -19
-45 -72 -3 -30 -8 -67 -10 -82 -4 -26 -3 -26 33 -21 43 7 51 17 52 58 l1 30
14 -33 c8 -19 14 -57 13 -85 -2 -42 2 -59 23 -89 14 -21 29 -35 32 -31 14 13
6 -33 -8 -51 -8 -11 -15 -30 -15 -42 0 -12 -10 -29 -22 -38 -14 -9 -16 -13 -6
-10 13 4 16 0 15 -15 -2 -26 -5 -26 -28 0 -17 20 -18 20 -73 3 -31 -10 -59
-15 -63 -11 -9 10 -9 103 1 157 l8 45 -23 -35 c-13 -19 -22 -42 -20 -52 1 -9
-3 -20 -10 -24 -8 -4 -9 -3 -5 4 4 7 3 12 -3 12 -6 0 -8 7 -5 15 4 8 1 15 -5
15 -7 0 -11 -20 -11 -50 0 -42 -2 -48 -17 -43 -11 4 -12 8 -5 11 8 2 9 9 3 20
-13 24 -23 444 -11 462 7 11 10 5 10 -22 0 -36 12 -49 25 -28 3 6 17 10 31 10
13 0 24 4 24 9 0 5 -9 7 -21 4 -12 -4 -25 0 -31 8 -8 11 -9 10 -4 -3 3 -10 0
-20 -5 -24 -7 -4 -9 5 -7 22 3 26 6 29 34 26 30 -3 32 -1 43 42 6 25 11 63 11
85 0 39 -1 41 -31 41 -41 0 -33 24 9 28 41 4 42 22 1 22 -17 0 -28 4 -24 10 3
6 17 10 31 10 24 0 24 2 24 84 l0 85 -45 7 c-35 5 -50 3 -63 -10 -17 -15 -18
-13 -16 25 2 48 4 50 33 42 23 -6 23 -6 -5 -18 l-29 -12 30 -6 c17 -4 46 -3
65 2 l35 8 -32 7 c-36 8 -45 26 -13 26 14 0 20 7 20 21 0 22 -22 49 -40 49 -6
0 -9 4 -5 9 9 16 -15 24 -31 10 -14 -12 -14 -14 3 -20 17 -7 17 -8 0 -8 -23
-1 -33 27 -18 50 9 15 8 19 -3 19 -11 0 -14 15 -13 64 2 67 9 71 44 25 12 -15
16 -15 53 4 37 18 41 22 34 46 -4 14 -7 39 -7 54 0 16 -3 24 -6 18 -10 -15
-56 49 -52 73 1 10 -2 15 -7 12 -19 -11 -24 15 -7 34 13 14 13 19 3 23 -7 3
-3 4 10 4 12 -1 22 -6 22 -13z m-1923 -11 c-4 -3 -7 0 -7 7 0 7 3 10 7 7 3 -4
3 -10 0 -14z m-237 -18 c0 -8 -4 -15 -10 -15 -5 0 -10 7 -10 15 0 8 5 15 10
15 6 0 10 -7 10 -15z m540 -4 c0 -11 -4 -23 -10 -26 -6 -4 -10 5 -10 19 0 14
5 26 10 26 6 0 10 -9 10 -19z m1780 -12 c0 -5 -4 -9 -10 -9 -5 0 -10 7 -10 16
0 8 5 12 10 9 6 -3 10 -10 10 -16z m-2350 -10 c0 -5 -4 -9 -10 -9 -5 0 -10 7
-10 16 0 8 5 12 10 9 6 -3 10 -10 10 -16z m1807 4 c-4 -3 -7 0 -7 7 0 7 3 10
7 7 3 -4 3 -10 0 -14z m73 2 c0 -8 -4 -15 -9 -15 -13 0 -22 16 -14 24 11 11
23 6 23 -9z m-2737 -17 c4 -12 4 -33 0 -47 -5 -20 -3 -23 10 -18 25 9 36 -20
24 -64 -12 -49 -27 -51 -27 -4 0 49 -16 44 -24 -7 -14 -88 -17 -168 -7 -168 6
0 11 11 11 24 0 13 3 38 6 56 9 42 24 19 24 -37 0 -39 2 -43 25 -43 16 0 25
-6 25 -15 0 -10 -10 -15 -30 -15 -20 0 -30 -5 -30 -15 0 -10 10 -15 30 -15 42
0 40 -28 -2 -32 -28 -3 -33 -7 -35 -31 -1 -16 -6 -34 -11 -40 -5 -7 -12 -38
-16 -69 -6 -53 -4 -58 13 -58 32 0 50 -11 44 -26 -3 -8 -19 -14 -39 -14 -19 0
-34 -4 -34 -10 0 -5 13 -10 29 -10 36 0 50 -19 28 -35 -10 -7 -18 -24 -19 -39
-1 -14 -7 -25 -13 -23 -5 3 -9 16 -8 31 1 14 -2 26 -6 26 -9 0 -21 -59 -21
-108 0 -30 2 -32 25 -26 29 7 44 -18 25 -41 -10 -12 -10 -15 0 -15 11 0 11 -4
-7 -46 -2 -6 3 -19 12 -28 10 -9 12 -16 5 -16 -8 0 -9 -10 -5 -29 3 -17 2 -32
-4 -36 -6 -3 -11 -1 -11 4 0 18 -3 25 -16 39 -23 22 -36 14 -30 -20 l5 -33
-17 37 c-12 27 -22 36 -34 32 -14 -4 -17 6 -23 59 -4 36 -4 80 0 98 11 50 6
142 -8 151 -9 5 -6 11 8 23 19 14 19 16 3 26 -22 12 -23 29 -4 29 10 0 19 19
26 55 6 30 16 55 22 55 7 0 9 -20 6 -55 -3 -30 -1 -55 4 -55 4 0 8 9 8 20 0
30 1 34 10 45 4 6 11 28 15 50 3 22 8 50 11 63 8 39 -15 24 -26 -18 -15 -56
-34 -52 -26 4 7 43 6 45 -20 48 -32 4 -45 28 -15 28 14 0 19 5 15 15 -4 8 -12
15 -20 15 -8 0 -14 7 -14 15 0 10 10 15 33 15 l33 0 12 70 c18 104 16 127 -10
136 -21 6 -21 7 -3 20 10 7 22 11 26 8 5 -3 9 1 9 9 0 8 -7 17 -15 21 -22 8
-18 26 5 26 11 0 20 7 20 15 0 23 17 18 23 -7z m2964 5 c-4 -3 -7 0 -7 7 0 7
3 10 7 7 3 -4 3 -10 0 -14z m383 -40 c0 -41 -9 -63 -26 -63 -16 0 -19 16 -4
25 6 3 10 27 10 53 0 34 3 43 10 32 5 -8 10 -29 10 -47z m-3300 12 c0 -8 -4
-15 -10 -15 -5 0 -10 7 -10 15 0 8 5 15 10 15 6 0 10 -7 10 -15z m807 -7 c-3
-8 -6 -5 -6 6 -1 11 2 17 5 13 3 -3 4 -12 1 -19z m1883 7 c0 -8 -4 -15 -9 -15
-13 0 -22 16 -14 24 11 11 23 6 23 -9z m-2105 -5 c3 -5 2 -10 -4 -10 -5 0 -13
5 -16 10 -3 6 -2 10 4 10 5 0 13 -4 16 -10z m2272 -32 c-3 -8 -6 -5 -6 6 -1
11 2 17 5 13 3 -3 4 -12 1 -19z m-2227 2 c0 -5 -4 -10 -9 -10 -6 0 -13 5 -16
10 -3 6 1 10 9 10 9 0 16 -4 16 -10z m2097 -27 c-4 -3 -7 0 -7 7 0 7 3 10 7 7
3 -4 3 -10 0 -14z m66 -3 c3 -11 2 -20 -3 -20 -12 0 -31 26 -23 33 11 12 21 7
26 -13z m-2639 -27 c12 -73 5 -101 -10 -38 -16 73 -16 75 -5 75 4 0 11 -17 15
-37z m446 27 c0 -5 -4 -10 -9 -10 -6 0 -13 5 -16 10 -3 6 1 10 9 10 9 0 16 -4
16 -10z m300 -6 c0 -14 -3 -14 -15 -4 -8 7 -15 14 -15 16 0 2 7 4 15 4 8 0 15
-7 15 -16z m-713 -11 c-4 -3 -7 0 -7 7 0 7 3 10 7 7 3 -4 3 -10 0 -14z m460
-15 c-3 -7 -5 -2 -5 12 0 14 2 19 5 13 2 -7 2 -19 0 -25z m259 -55 c-8 -8 -66
53 -66 70 0 6 16 -5 36 -26 20 -21 34 -41 30 -44z m2364 42 c-13 -16 -40 -21
-40 -7 0 10 42 32 49 26 2 -2 -2 -10 -9 -19z m-2640 5 c0 -5 -2 -10 -4 -10 -3
0 -8 5 -11 10 -3 6 -1 10 4 10 6 0 11 -4 11 -10z m310 0 c0 -5 -4 -10 -10 -10
-5 0 -10 5 -10 10 0 6 5 10 10 10 6 0 10 -4 10 -10z m-1040 -16 c0 -8 -4 -12
-10 -9 -5 3 -10 10 -10 16 0 5 5 9 10 9 6 0 10 -7 10 -16z m300 -15 c0 -6 -4
-7 -10 -4 -5 3 -10 11 -10 16 0 6 5 7 10 4 6 -3 10 -11 10 -16z m2657 -11 c-3
-8 -6 -5 -6 6 -1 11 2 17 5 13 3 -3 4 -12 1 -19z m-1872 2 c3 -5 1 -10 -4 -10
-6 0 -11 5 -11 10 0 6 2 10 4 10 3 0 8 -4 11 -10z m332 -17 c-4 -3 -7 0 -7 7
0 7 3 10 7 7 3 -4 3 -10 0 -14z m-790 -10 c-4 -3 -7 0 -7 7 0 7 3 10 7 7 3 -4
3 -10 0 -14z m428 -3 c3 -5 -1 -10 -9 -10 -9 0 -16 5 -16 10 0 6 4 10 9 10 6
0 13 -4 16 -10z m1775 -30 c0 -11 -7 -20 -15 -20 -13 0 -14 4 -5 20 6 11 13
20 15 20 3 0 5 -9 5 -20z m-2160 0 c0 -5 -4 -10 -10 -10 -5 0 -10 5 -10 10 0
6 5 10 10 10 6 0 10 -4 10 -10z m790 6 c0 -3 -4 -8 -10 -11 -5 -3 -10 -1 -10
4 0 6 5 11 10 11 6 0 10 -2 10 -4z m1330 -12 c0 -8 -5 -12 -10 -9 -6 4 -8 11
-5 16 9 14 15 11 15 -7z m-1356 -10 c3 -8 2 -12 -4 -9 -6 3 -10 10 -10 16 0
14 7 11 14 -7z m-534 -15 c0 -6 -4 -7 -10 -4 -5 3 -10 11 -10 16 0 6 5 7 10 4
6 -3 10 -11 10 -16z m2100 11 c0 -5 -2 -10 -4 -10 -3 0 -8 5 -11 10 -3 6 -1
10 4 10 6 0 11 -4 11 -10z m-3020 -14 c0 -8 -4 -18 -10 -21 -5 -3 -10 3 -10
14 0 12 5 21 10 21 6 0 10 -6 10 -14z m2846 -23 c-10 -10 -19 5 -10 18 6 11 8
11 12 0 2 -7 1 -15 -2 -18z m-1958 -1 c2 -7 -3 -12 -12 -12 -9 0 -16 7 -16 16
0 17 22 14 28 -4z m1922 2 c0 -8 -5 -12 -10 -9 -6 4 -8 11 -5 16 9 14 15 11
15 -7z m-1850 -15 c0 -6 -4 -7 -10 -4 -5 3 -10 11 -10 16 0 6 5 7 10 4 6 -3
10 -11 10 -16z m-1053 -11 c-3 -8 -6 -5 -6 6 -1 11 2 17 5 13 3 -3 4 -12 1
-19z m1014 -11 c-1 -12 -15 -9 -19 4 -3 6 1 10 8 8 6 -3 11 -8 11 -12z m2349
-27 c0 -5 -5 -10 -11 -10 -5 0 -7 5 -4 10 3 6 8 10 11 10 2 0 4 -4 4 -10z
m-3360 -9 c0 -6 -4 -13 -10 -16 -5 -3 -10 1 -10 9 0 9 5 16 10 16 6 0 10 -4
10 -9z m367 -23 c-3 -8 -6 -5 -6 6 -1 11 2 17 5 13 3 -3 4 -12 1 -19z m51 1
c-2 -6 -8 -10 -13 -10 -5 0 -11 4 -13 10 -2 6 4 11 13 11 9 0 15 -5 13 -11z
m3049 -56 c-2 -16 -4 -5 -4 22 0 28 2 40 4 28 2 -13 2 -35 0 -50z m-2700 30
c-4 -3 -7 0 -7 7 0 7 3 10 7 7 3 -4 3 -10 0 -14z m2247 -18 c2 -17 5 -31 5
-32 1 -1 12 2 26 7 21 8 25 7 25 -10 0 -15 -7 -20 -24 -20 -14 0 -28 -5 -32
-12 -5 -8 2 -9 24 -5 24 5 32 3 32 -8 0 -8 -7 -16 -15 -16 -8 -1 -21 -2 -27
-3 -8 0 -15 -22 -19 -51 -6 -52 -9 -43 -13 38 -4 86 -21 44 -24 -61 -4 -108 2
-148 18 -122 5 9 5 19 -2 27 -23 28 2 24 26 -3 20 -23 22 -31 12 -39 -8 -6
-11 -25 -9 -50 4 -49 -4 -88 -17 -80 -6 3 -10 22 -10 41 0 43 -20 45 -21 2
l-1 -33 -8 30 c-12 46 -12 425 0 425 6 0 10 -14 10 -31 0 -20 4 -29 13 -26 6
2 11 12 9 22 -4 18 6 51 13 44 2 -3 6 -18 9 -34z m543 18 c-4 -3 -7 0 -7 7 0
7 3 10 7 7 3 -4 3 -10 0 -14z m-3187 -18 c0 -8 -4 -15 -10 -15 -5 0 -10 7 -10
15 0 8 5 15 10 15 6 0 10 -7 10 -15z m40 -10 c0 -8 -4 -15 -10 -15 -5 0 -10 7
-10 15 0 8 5 15 10 15 6 0 10 -7 10 -15z m-215 -23 c-8 -8 -25 10 -19 20 4 6
9 5 15 -3 4 -7 6 -15 4 -17z m712 -9 c-4 -3 -7 0 -7 7 0 7 3 10 7 7 3 -4 3
-10 0 -14z m193 7 c0 -5 -4 -10 -10 -10 -5 0 -10 5 -10 10 0 6 5 10 10 10 6 0
10 -4 10 -10z m1797 -32 c-3 -8 -6 -5 -6 6 -1 11 2 17 5 13 3 -3 4 -12 1 -19z
m43 7 c0 -8 -7 -15 -15 -15 -9 0 -12 6 -9 15 4 8 10 15 15 15 5 0 9 -7 9 -15z
m-1880 -25 c0 -5 -4 -10 -10 -10 -5 0 -10 5 -10 10 0 6 5 10 10 10 6 0 10 -4
10 -10z m37 -7 c-4 -3 -7 0 -7 7 0 7 3 10 7 7 3 -4 3 -10 0 -14z m2438 -15
l14 -33 -2 29 c-1 21 3 30 16 32 11 1 17 -4 17 -17 0 -12 7 -19 20 -19 23 0
27 -15 5 -24 -22 -8 -18 -26 7 -26 19 0 20 -1 5 -17 -9 -11 -13 -28 -10 -45 4
-20 0 -27 -16 -33 -25 -8 -27 -45 -6 -90 l14 -30 -6 30 c-5 25 -4 28 8 18 21
-17 24 -73 4 -73 -8 0 -15 -4 -15 -9 0 -5 8 -8 18 -7 12 1 18 -7 19 -29 1 -16
0 -24 -3 -17 -11 24 -23 11 -17 -18 7 -37 -14 -41 -23 -5 -10 41 -19 28 -16
-22 3 -47 2 -47 -12 -23 -9 14 -15 33 -16 43 0 13 -6 17 -22 15 -27 -4 -35 18
-8 25 11 3 20 10 20 16 0 7 -10 9 -25 5 -19 -5 -25 -2 -25 10 0 8 11 18 24 22
20 5 23 10 17 27 -5 12 -11 45 -15 72 -4 28 -9 62 -12 78 -4 20 -2 27 10 27
12 0 14 11 10 60 -3 33 -3 60 0 60 3 0 13 -15 21 -32z m-595 7 c0 -8 -4 -15
-10 -15 -5 0 -10 7 -10 15 0 8 5 15 10 15 6 0 10 -7 10 -15z m-40 -10 c0 -8
-2 -15 -4 -15 -2 0 -6 7 -10 15 -3 8 -1 15 4 15 6 0 10 -7 10 -15z m600 -56
c0 -11 -4 -17 -10 -14 -5 3 -10 13 -10 21 0 8 5 14 10 14 6 0 10 -9 10 -21z
m-3560 -8 c0 -6 -4 -13 -10 -16 -5 -3 -10 1 -10 9 0 9 5 16 10 16 6 0 10 -4
10 -9z m3214 -142 c5 -61 4 -78 -4 -61 -5 13 -8 28 -5 33 4 5 0 6 -8 3 -11 -4
-13 4 -11 33 1 21 3 56 4 78 2 64 17 12 24 -86z m-2824 91 c0 -11 -4 -20 -10
-20 -5 0 -10 9 -10 20 0 11 5 20 10 20 6 0 10 -9 10 -20z m2708 2 c6 -18 -15
-14 -22 4 -4 10 -1 14 6 12 6 -2 14 -10 16 -16z m-3117 -25 c-8 -8 -11 -7 -11
4 0 20 13 34 18 19 3 -7 -1 -17 -7 -23z m452 8 c-3 -8 -9 -15 -14 -15 -10 0
-12 24 -3 33 11 11 24 -3 17 -18z m-426 -2 c-4 -3 -7 0 -7 7 0 7 3 10 7 7 3
-4 3 -10 0 -14z m840 0 c-4 -3 -7 0 -7 7 0 7 3 10 7 7 3 -4 3 -10 0 -14z
m-467 -39 c0 -8 -5 -12 -10 -9 -6 4 -8 11 -5 16 9 14 15 11 15 -7z m477 -1
c-4 -3 -7 0 -7 7 0 7 3 10 7 7 3 -4 3 -10 0 -14z m-436 -16 c-13 -13 -26 -3
-16 12 3 6 11 8 17 5 6 -4 6 -10 -1 -17z m2709 1 c0 -16 -3 -19 -11 -11 -6 6
-8 16 -5 22 11 17 16 13 16 -11z m-2010 -19 c0 -5 -4 -9 -10 -9 -5 0 -10 7
-10 16 0 8 5 12 10 9 6 -3 10 -10 10 -16z m50 1 c0 -5 -4 -10 -10 -10 -5 0
-10 5 -10 10 0 6 5 10 10 10 6 0 10 -4 10 -10z m1790 -6 c0 -8 -5 -12 -10 -9
-6 4 -8 11 -5 16 9 14 15 11 15 -7z m40 12 c0 -3 -4 -8 -10 -11 -5 -3 -10 -1
-10 4 0 6 5 11 10 11 6 0 10 -2 10 -4z m130 -31 c0 -8 -4 -15 -10 -15 -5 0
-10 7 -10 15 0 8 5 15 10 15 6 0 10 -7 10 -15z m-2010 -20 c0 -8 -4 -15 -10
-15 -5 0 -10 7 -10 15 0 8 5 15 10 15 6 0 10 -7 10 -15z m1880 6 c0 -6 -4 -13
-10 -16 -5 -3 -10 1 -10 9 0 9 5 16 10 16 6 0 10 -4 10 -9z m-1843 -18 c-4 -3
-7 0 -7 7 0 7 3 10 7 7 3 -4 3 -10 0 -14z m1803 7 c0 -5 -5 -10 -11 -10 -5 0
-7 5 -4 10 3 6 8 10 11 10 2 0 4 -4 4 -10z m-1373 -17 c-4 -3 -7 0 -7 7 0 7 3
10 7 7 3 -4 3 -10 0 -14z m1788 -32 c3 -5 1 -12 -5 -16 -5 -3 -10 1 -10 9 0
18 6 21 15 7z m-1975 -55 c0 -41 2 -45 27 -48 18 -2 29 -10 31 -22 4 -16 0
-18 -27 -13 -23 5 -31 3 -31 -8 0 -10 10 -15 31 -15 20 0 29 -4 26 -12 -2 -7
-17 -13 -33 -13 -31 0 -31 0 -33 -80 -1 -24 -5 -35 -10 -30 -11 11 -17 192 -7
202 3 3 6 24 6 45 0 21 5 38 10 38 6 0 10 -20 10 -44z m-1410 -2 c0 -10 -6
-14 -14 -11 -8 3 -17 1 -20 -6 -2 -7 -5 -2 -5 11 -1 16 5 22 19 22 12 0 20 -7
20 -16z m3051 -89 c5 4 9 25 9 48 0 50 21 38 22 -13 1 -28 4 -31 25 -27 31 6
30 -11 -2 -19 -35 -9 -31 -22 8 -26 l32 -4 -27 -13 c-22 -11 -28 -21 -28 -47
0 -18 -4 -35 -9 -38 -10 -7 -21 17 -21 45 0 17 -19 28 -21 12 0 -5 -1 -47 -2
-94 -2 -77 0 -85 16 -81 9 2 17 -1 17 -8 0 -15 26 -41 34 -33 3 4 6 -1 6 -10
0 -9 -4 -17 -10 -17 -5 0 -10 -18 -10 -40 0 -22 -4 -40 -10 -40 -5 0 -10 15
-10 34 0 19 -4 38 -10 41 -6 4 -10 -5 -10 -19 0 -32 -16 -34 -23 -3 -8 34 -8
387 1 427 6 32 7 30 10 -23 2 -33 7 -55 13 -52z m-1694 43 c-3 -7 -5 -2 -5 12
0 14 2 19 5 13 2 -7 2 -19 0 -25z m80 15 c-4 -3 -7 0 -7 7 0 7 3 10 7 7 3 -4
3 -10 0 -14z m-1077 -8 c0 -8 -4 -15 -10 -15 -5 0 -10 7 -10 15 0 8 5 15 10
15 6 0 10 -7 10 -15z m-374 -32 c-11 -11 -17 4 -9 23 7 18 8 18 11 1 2 -10 1
-21 -2 -24z m424 29 c0 -13 -12 -22 -22 -16 -10 6 -1 24 13 24 5 0 9 -4 9 -8z
m-446 -17 c-4 -8 -8 -15 -10 -15 -2 0 -4 7 -4 15 0 8 4 15 10 15 5 0 7 -7 4
-15z m3413 -22 c-4 -3 -7 0 -7 7 0 7 3 10 7 7 3 -4 3 -10 0 -14z m-3097 -8 c0
-8 -2 -15 -4 -15 -2 0 -6 7 -10 15 -3 8 -1 15 4 15 6 0 10 -7 10 -15z m417 8
c-4 -3 -10 -3 -14 0 -3 4 0 7 7 7 7 0 10 -3 7 -7z m663 -14 c0 -11 -4 -17 -10
-14 -5 3 -10 13 -10 21 0 8 5 14 10 14 6 0 10 -9 10 -21z m2486 -3 c-4 -15 -1
-26 6 -28 7 -3 8 -10 4 -17 -6 -9 -12 -9 -18 -3 -7 7 -23 3 -50 -14 -40 -25
-61 -25 -51 1 3 9 18 15 38 15 34 0 61 22 50 40 -3 5 -1 10 5 10 6 0 8 5 5 10
-3 6 -1 10 5 10 8 0 10 -9 6 -24z m-3496 5 c0 -6 -4 -13 -10 -16 -5 -3 -10 1
-10 9 0 9 5 16 10 16 6 0 10 -4 10 -9z m45 0 c3 -5 1 -12 -5 -16 -5 -3 -10 1
-10 9 0 18 6 21 15 7z m-448 -33 c-3 -7 -5 -2 -5 12 0 14 2 19 5 13 2 -7 2
-19 0 -25z m714 9 c-10 -9 -11 -8 -5 6 3 10 9 15 12 12 3 -3 0 -11 -7 -18z
m39 -7 c0 -4 -7 -11 -16 -14 -13 -5 -14 -4 -6 7 7 8 8 18 4 22 -4 5 -1 5 6 1
6 -4 12 -11 12 -16z m2300 10 c0 -5 -4 -10 -10 -10 -5 0 -10 5 -10 10 0 6 5
10 10 10 6 0 10 -4 10 -10z m700 -7 c0 -10 5 -35 11 -55 10 -37 11 -37 33 -23
21 14 36 12 36 -6 0 -4 -13 -12 -29 -17 -23 -8 -28 -15 -24 -30 2 -11 0 -23
-7 -27 -7 -4 -14 1 -17 14 -9 33 -25 25 -18 -9 4 -18 2 -30 -3 -30 -6 0 -13
13 -17 29 -5 23 -11 28 -23 24 -16 -6 -16 -5 -1 13 22 25 14 42 -16 36 -33 -6
-32 16 1 24 21 5 24 11 20 30 -8 32 2 31 14 -1 15 -38 32 -31 24 10 -4 23 -2
35 5 35 6 0 11 -8 11 -17z m-2580 -3 c0 -5 -4 -10 -10 -10 -5 0 -10 5 -10 10
0 6 5 10 10 10 6 0 10 -4 10 -10z m50 -10 c0 -5 -4 -10 -10 -10 -5 0 -10 5
-10 10 0 6 5 10 10 10 6 0 10 -4 10 -10z m-470 -20 c0 -5 -5 -10 -11 -10 -5 0
-7 5 -4 10 3 6 8 10 11 10 2 0 4 -4 4 -10z m2300 -5 c0 -8 -4 -15 -10 -15 -5
0 -10 7 -10 15 0 8 5 15 10 15 6 0 10 -7 10 -15z m-1880 -16 c0 -5 -4 -9 -10
-9 -5 0 -10 7 -10 16 0 8 5 12 10 9 6 -3 10 -10 10 -16z m-483 -6 c-4 -3 -7 0
-7 7 0 7 3 10 7 7 3 -4 3 -10 0 -14z m520 -5 c-3 -8 -6 -5 -6 6 -1 11 2 17 5
13 3 -3 4 -12 1 -19z m-494 -3 c-3 -9 -8 -14 -10 -11 -3 3 -2 9 2 15 9 16 15
13 8 -4z m54 -5 c12 0 12 -2 -1 -16 -14 -13 -18 -14 -30 -1 -11 11 -12 17 -3
26 8 8 13 8 15 1 2 -5 10 -10 19 -10z m3143 10 c0 -5 -4 -10 -10 -10 -5 0 -10
5 -10 10 0 6 5 10 10 10 6 0 10 -4 10 -10z m-493 -17 c-4 -3 -10 -3 -14 0 -3
4 0 7 7 7 7 0 10 -3 7 -7z m-2683 -38 c-5 -12 -1 -12 26 1 17 9 34 13 38 10 3
-4 -4 -9 -16 -13 -12 -3 -20 -9 -17 -13 2 -4 -16 -11 -40 -17 -36 -8 -49 -7
-62 4 -10 8 -13 12 -8 10 6 -3 23 5 39 18 31 25 49 25 40 0z m643 -2 c-4 -3
-7 0 -7 7 0 7 3 10 7 7 3 -4 3 -10 0 -14z m-1384 -106 c3 -96 1 -109 -16 -125
-19 -16 -19 -16 -12 8 7 23 6 24 -9 9 -10 -9 -24 -47 -32 -85 -17 -82 -17 -84
-4 -84 6 0 10 6 8 12 -3 18 20 58 34 58 7 0 9 -13 5 -35 -6 -34 -4 -35 24 -35
41 0 33 -22 -10 -31 -46 -10 -67 -32 -23 -24 44 7 39 -16 -6 -29 -19 -5 -32
-16 -32 -25 -1 -13 -2 -13 -11 2 -6 11 -9 30 -6 43 3 16 0 23 -7 21 -6 -2 -11
-13 -11 -24 0 -21 -14 -45 -16 -27 -4 55 -4 81 3 94 4 8 17 48 29 88 19 66 39
102 57 102 4 0 8 34 9 76 1 72 10 131 18 122 2 -2 6 -52 8 -111z m259 84 c28
3 37 -2 40 -23 2 -18 8 -22 30 -20 37 4 44 -15 8 -23 -29 -6 -30 -8 -24 -47 6
-32 4 -40 -7 -36 -7 2 -17 19 -21 37 -12 44 -29 29 -22 -20 6 -33 4 -38 -9
-33 -9 3 -19 19 -22 36 -7 28 -10 30 -40 25 -23 -4 -35 -1 -39 8 -7 18 3 25
36 25 19 0 28 5 28 16 0 13 -7 15 -35 11 -25 -4 -35 -2 -35 8 0 14 21 25 51
25 13 0 19 7 19 23 1 21 1 21 14 4 8 -10 20 -17 28 -16z m1223 -96 c21 0 31
-6 33 -18 3 -16 0 -18 -20 -12 -36 11 -40 11 -45 -2 -3 -7 9 -13 29 -15 21 -2
33 -8 33 -18 0 -8 -7 -13 -15 -11 -8 1 -25 4 -37 5 -28 1 -30 8 -28 71 3 79 7
94 14 45 6 -41 8 -44 36 -45z m1660 65 c-3 -4 2 -10 10 -14 19 -7 19 -23 0
-23 -8 0 -12 4 -10 8 3 3 -2 12 -10 19 -16 13 -10 35 6 24 5 -3 7 -9 4 -14z
m-3113 -22 c-9 -9 -12 -7 -12 12 0 19 3 21 12 12 9 -9 9 -15 0 -24z m658 1 c6
-10 7 -19 2 -19 -5 0 -14 12 -20 26 -14 29 2 24 18 -7z m95 21 c-3 -5 -12 -10
-18 -10 -7 0 -6 4 3 10 19 12 23 12 15 0z m3392 -7 c-4 -3 -7 0 -7 7 0 7 3 10
7 7 3 -4 3 -10 0 -14z m-3447 3 c0 -3 -5 -8 -12 -12 -7 -4 -8 -3 -4 4 7 12 16
16 16 8z m18 -67 c-3 -8 -7 -3 -11 10 -4 17 -3 21 5 13 5 -5 8 -16 6 -23z m70
-2 c1 -16 -2 -26 -6 -23 -5 3 -33 -3 -61 -14 -40 -14 -50 -15 -41 -4 7 8 21
14 31 14 11 0 27 9 36 19 9 11 21 18 27 15 6 -3 3 1 -8 10 -18 15 -18 15 1 13
13 -1 20 -9 21 -30z m2379 11 c-3 -8 -6 -5 -6 6 -1 11 2 17 5 13 3 -3 4 -12 1
-19z m-3165 -20 c-9 -9 -12 -7 -12 12 0 19 3 21 12 12 9 -9 9 -15 0 -24z m675
4 c-10 -10 -17 -24 -17 -30 0 -6 -6 -9 -14 -6 -8 3 -12 13 -9 25 3 12 11 18
19 15 7 -3 16 -1 19 4 4 6 9 10 12 10 3 0 -1 -8 -10 -18z m2350 -9 c-4 -3 -7
0 -7 7 0 7 3 10 7 7 3 -4 3 -10 0 -14z m-1640 -15 c-3 -8 -6 -5 -6 6 -1 11 2
17 5 13 3 -3 4 -12 1 -19z m-237 -2 c0 -3 -4 -8 -10 -11 -5 -3 -10 -1 -10 4 0
6 5 11 10 11 6 0 10 -2 10 -4z m40 -12 c0 -8 -5 -12 -10 -9 -6 4 -8 11 -5 16
9 14 15 11 15 -7z m-400 2 c0 -3 -5 -8 -12 -12 -7 -4 -8 -3 -4 4 7 12 16 16
16 8z m2250 -11 c0 -8 -4 -15 -10 -15 -5 0 -10 7 -10 15 0 8 5 15 10 15 6 0
10 -7 10 -15z m-2293 -12 c-4 -3 -7 0 -7 7 0 7 3 10 7 7 3 -4 3 -10 0 -14z
m-460 0 c-4 -3 -10 -3 -14 0 -3 4 0 7 7 7 7 0 10 -3 7 -7z m433 -2 c0 -5 -7
-12 -16 -15 -21 -8 -24 -8 -24 5 0 5 5 7 10 4 6 -3 10 -1 10 4 0 6 5 11 10 11
6 0 10 -4 10 -9z m817 -8 c-4 -3 -7 0 -7 7 0 7 3 10 7 7 3 -4 3 -10 0 -14z
m-392 -3 c3 -5 1 -10 -4 -10 -6 0 -11 5 -11 10 0 6 2 10 4 10 3 0 8 -4 11 -10z
m2625 6 c0 -3 -4 -8 -10 -11 -5 -3 -10 -1 -10 4 0 6 5 11 10 11 6 0 10 -2 10
-4z m-3457 -21 c36 -9 29 -31 -9 -28 -16 2 -33 3 -39 4 -5 0 -20 -3 -33 -6
-18 -6 -21 -4 -16 9 8 22 1 20 -22 -5 -19 -21 -19 -21 1 -18 17 4 20 -2 23
-43 3 -39 0 -48 -13 -48 -9 0 -14 3 -12 8 3 4 -1 21 -8 37 -12 26 -13 27 -14
8 -1 -31 -15 -35 -35 -12 -19 22 -17 56 2 52 25 -6 11 15 -14 21 -16 4 -23 11
-18 16 18 17 148 20 207 5z m877 5 c0 -5 -4 -10 -10 -10 -5 0 -10 5 -10 10 0
6 5 10 10 10 6 0 10 -4 10 -10z m157 -22 c-3 -8 -6 -5 -6 6 -1 11 2 17 5 13 3
-3 4 -12 1 -19z m2513 8 c0 -8 -4 -18 -10 -21 -5 -3 -10 3 -10 14 0 12 5 21
10 21 6 0 10 -6 10 -14z m-3143 -13 c0 -20 -22 -45 -31 -36 -3 4 -6 1 -6 -6 0
-7 -5 -9 -11 -6 -6 4 -8 13 -5 20 3 8 -3 16 -12 18 -13 4 -11 5 5 6 12 0 23
-5 25 -11 3 -8 9 -4 17 10 14 27 18 28 18 5z m71 -47 c-1 -36 -6 -62 -11 -59
-5 3 -6 26 -3 52 5 31 4 41 -3 32 -8 -12 -12 -12 -25 -2 -9 7 -13 18 -10 23 4
6 10 5 15 -3 6 -11 9 -10 15 4 14 37 25 14 22 -47z m579 37 c-4 -3 -7 0 -7 7
0 7 3 10 7 7 3 -4 3 -10 0 -14z m2330 -5 c-3 -8 -6 -5 -6 6 -1 11 2 17 5 13 3
-3 4 -12 1 -19z m-3075 -40 c-6 -6 -9 0 -9 18 0 23 1 24 9 10 7 -12 7 -21 0
-28z m25 15 c-4 -3 -7 0 -7 7 0 7 3 10 7 7 3 -4 3 -10 0 -14z m700 0 c-4 -3
-7 0 -7 7 0 7 3 10 7 7 3 -4 3 -10 0 -14z m-1098 -22 c-15 -5 -22 6 -14 19 6
9 10 9 16 -1 5 -8 4 -15 -2 -18z m491 19 c0 12 2 12 13 1 10 -11 10 -14 0 -18
-7 -3 -13 -11 -13 -19 0 -8 -8 -14 -17 -14 -14 0 -15 2 -4 9 16 11 5 34 -12
24 -7 -4 -6 1 2 11 11 13 16 14 22 4 7 -10 9 -10 9 2z m627 -17 c-4 -3 -7 0
-7 7 0 7 3 10 7 7 3 -4 3 -10 0 -14z m2355 -69 c29 -6 30 -8 14 -20 -10 -7
-25 -10 -33 -7 -13 5 -15 1 -9 -20 3 -15 2 -27 -3 -27 -5 0 -12 11 -15 25 -6
25 -26 35 -26 14 0 -8 -5 -7 -15 1 -11 9 -14 22 -9 44 9 46 24 56 24 16 0 -18
3 -30 8 -26 4 4 7 11 7 14 1 4 5 21 10 37 l9 30 4 -37 c3 -32 7 -38 34 -44z
m-3945 59 c-4 -3 -10 -3 -14 0 -3 4 0 7 7 7 7 0 10 -3 7 -7z m870 -20 c-3 -3
-11 -2 -17 2 -9 6 -9 10 1 16 14 8 27 -7 16 -18z m2838 0 c14 -24 16 -25 12
-5 -3 12 -1 22 4 22 5 0 9 -6 9 -14 0 -16 28 -30 50 -27 20 4 13 -3 -32 -28
-50 -28 -64 -20 -65 34 -1 25 1 45 3 45 2 0 11 -12 19 -27z m-2800 -23 c3 -5
-1 -10 -9 -10 -8 0 -18 5 -21 10 -3 6 1 10 9 10 8 0 18 -4 21 -10z m-70 -20
c-2 -29 -10 -33 -13 -5 -1 14 2 25 6 25 5 0 8 -9 7 -20z m130 -2 c-14 -11 -29
-18 -32 -14 -10 9 14 32 37 33 20 2 19 0 -5 -19z m2402 5 c-4 -3 -7 0 -7 7 0
7 3 10 7 7 3 -4 3 -10 0 -14z m-2500 0 c-4 -3 -10 -3 -14 0 -3 4 0 7 7 7 7 0
10 -3 7 -7z m2948 -3 c3 -5 4 -10 1 -10 -3 0 -8 5 -11 10 -3 6 -4 10 -1 10 3
0 8 -4 11 -10z m-2810 -10 c3 -5 4 -10 1 -10 -3 0 -8 5 -11 10 -3 6 -4 10 -1
10 3 0 8 -4 11 -10z m2255 -6 c0 -8 -4 -12 -10 -9 -5 3 -10 10 -10 16 0 5 5 9
10 9 6 0 10 -7 10 -16z m-2353 0 c-3 -3 -12 -4 -19 -1 -8 3 -5 6 6 6 11 1 17
-2 13 -5z m54 -51 c-9 -7 -23 -12 -31 -12 -12 0 -11 2 3 10 9 5 17 18 17 28 0
28 14 35 21 9 3 -14 -1 -27 -10 -35z m-151 38 c0 -5 -7 -12 -16 -15 -14 -5
-15 -4 -4 9 14 17 20 19 20 6z m840 -7 c0 -8 -4 -12 -10 -9 -5 3 -10 10 -10
16 0 5 5 9 10 9 6 0 10 -7 10 -16z m2118 -1 c12 8 8 -34 -7 -64 -7 -15 -24
-32 -37 -38 -23 -10 -24 -10 -13 11 10 18 9 20 -5 15 -21 -8 -32 34 -16 60 9
15 10 12 6 -16 -5 -30 -4 -33 14 -28 11 3 20 1 20 -4 0 -5 5 -9 11 -9 6 0 9 8
7 18 -2 9 -9 16 -14 15 -11 -2 -15 23 -8 46 3 10 7 11 19 1 8 -6 18 -9 23 -7z
m62 7 c0 -5 -4 -10 -9 -10 -5 0 -8 -8 -6 -17 1 -10 0 -12 -2 -5 -3 6 -8 12
-13 12 -5 0 -7 7 -4 15 7 17 34 21 34 5z m-2820 -13 c0 -8 -9 -22 -20 -32 -11
-10 -20 -13 -20 -7 0 6 8 16 18 21 10 6 12 11 4 11 -7 0 -10 5 -7 10 9 14 25
12 25 -3z m698 -10 c2 -10 -3 -17 -12 -17 -18 0 -29 16 -21 31 9 14 29 6 33
-14z m2252 3 c0 -5 -7 -7 -15 -4 -8 4 -15 8 -15 10 0 2 7 4 15 4 8 0 15 -4 15
-10z m-2793 -17 c-4 -3 -7 0 -7 7 0 7 3 10 7 7 3 -4 3 -10 0 -14z m198 7 c3
-5 1 -10 -4 -10 -6 0 -11 5 -11 10 0 6 2 10 4 10 3 0 8 -4 11 -10z m45 -6 c0
-8 -5 -12 -10 -9 -6 4 -8 11 -5 16 9 14 15 11 15 -7z m1807 -6 c-3 -8 -6 -5
-6 6 -1 11 2 17 5 13 3 -3 4 -12 1 -19z m43 12 c0 -5 -4 -10 -10 -10 -5 0 -10
5 -10 10 0 6 5 10 10 10 6 0 10 -4 10 -10z m270 -6 c0 -8 -5 -12 -10 -9 -6 4
-8 11 -5 16 9 14 15 11 15 -7z m105 -4 c-3 -5 -11 -10 -16 -10 -6 0 -7 5 -4
10 3 6 11 10 16 10 6 0 7 -4 4 -10z m-3037 -12 c-7 -19 -35 -21 -41 -3 -5 11
0 15 19 15 16 0 24 -5 22 -12z m1052 -4 c0 -8 -4 -12 -10 -9 -5 3 -10 10 -10
16 0 5 5 9 10 9 6 0 10 -7 10 -16z m55 -14 c-3 -5 -10 -10 -16 -10 -5 0 -9 5
-9 10 0 6 7 10 16 10 8 0 12 -4 9 -10z m2095 -5 c-5 -7 -6 -16 -2 -20 4 -5 1
-5 -5 -1 -18 10 -16 33 2 33 10 0 12 -4 5 -12z m-2440 -5 c0 -5 -4 -10 -10
-10 -5 0 -10 5 -10 10 0 6 5 10 10 10 6 0 10 -4 10 -10z m50 0 c0 -5 -4 -10
-10 -10 -5 0 -10 5 -10 10 0 6 5 10 10 10 6 0 10 -4 10 -10z m2220 0 c0 -5 -7
-10 -16 -10 -8 0 -12 5 -9 10 3 6 10 10 16 10 5 0 9 -4 9 -10z m477 -7 c-4 -3
-7 0 -7 7 0 7 3 10 7 7 3 -4 3 -10 0 -14z m-3550 -10 c-4 -3 -7 0 -7 7 0 7 3
10 7 7 3 -4 3 -10 0 -14z m183 13 c0 -3 -5 -8 -12 -12 -7 -4 -8 -3 -4 4 7 12
16 16 16 8z m827 -28 c-3 -8 -6 -5 -6 6 -1 11 2 17 5 13 3 -3 4 -12 1 -19z
m2020 15 c-4 -3 -10 -3 -14 0 -3 4 0 7 7 7 7 0 10 -3 7 -7z m-2722 -10 c-11
-3 -23 -10 -27 -17 -5 -7 -8 -7 -8 0 0 16 11 24 34 23 20 -1 20 -1 1 -6z m70
-13 c3 -5 1 -10 -4 -10 -6 0 -11 5 -11 10 0 6 2 10 4 10 3 0 8 -4 11 -10z m32
-7 c-4 -3 -7 0 -7 7 0 7 3 10 7 7 3 -4 3 -10 0 -14z m53 9 c0 -5 -7 -9 -15 -9
-8 0 -12 4 -9 9 7 10 24 10 24 0z"/>
<path d="M1642 4106 c-1 -13 5 -29 13 -36 13 -11 15 -7 15 24 0 41 -24 51 -28
12z"/>
<path d="M1640 4041 c0 -10 7 -18 15 -18 8 0 15 6 15 13 0 6 -7 14 -15 18 -10
3 -15 -1 -15 -13z"/>
<path d="M1683 3243 c4 -3 10 -3 14 0 3 4 0 7 -7 7 -7 0 -10 -3 -7 -7z"/>
<path d="M1343 3203 c4 -3 10 -3 14 0 3 4 0 7 -7 7 -7 0 -10 -3 -7 -7z"/>
<path d="M1805 3160 c-3 -5 1 -10 10 -10 9 0 13 5 10 10 -3 6 -8 10 -10 10 -2
0 -7 -4 -10 -10z"/>
<path d="M1840 3030 c0 -7 3 -10 7 -7 3 4 3 10 0 14 -4 3 -7 0 -7 -7z"/>
<path d="M1297 3076 c-4 -10 -1 -13 9 -9 15 6 19 23 5 23 -5 0 -11 -7 -14 -14z"/>
<path d="M3150 2646 c0 -2 9 -6 20 -9 11 -3 18 -1 14 4 -5 9 -34 13 -34 5z"/>
<path d="M1435 2960 c3 -5 8 -10 11 -10 2 0 4 5 4 10 0 6 -5 10 -11 10 -5 0
-7 -4 -4 -10z"/>
<path d="M3340 2872 c0 -23 4 -42 10 -42 10 0 8 66 -3 76 -4 4 -7 -11 -7 -34z"/>
<path d="M3306 2801 c-4 -7 -5 -15 -2 -18 9 -9 19 4 14 18 -4 11 -6 11 -12 0z"/>
<path d="M3340 2800 c0 -5 5 -10 11 -10 5 0 7 5 4 10 -3 6 -8 10 -11 10 -2 0
-4 -4 -4 -10z"/>
<path d="M3340 2746 c0 -19 -3 -43 -6 -53 -5 -15 -4 -15 7 2 16 26 22 72 9 80
-6 4 -10 -8 -10 -29z"/>
<path d="M3365 2680 c3 -5 11 -10 16 -10 6 0 7 5 4 10 -3 6 -11 10 -16 10 -6
0 -7 -4 -4 -10z"/>
<path d="M3341 2644 c0 -11 3 -14 6 -6 3 7 2 16 -1 19 -3 4 -6 -2 -5 -13z"/>
<path d="M3340 2600 c0 -7 3 -10 7 -7 3 4 3 10 0 14 -4 3 -7 0 -7 -7z"/>
<path d="M3393 2593 c4 -3 10 -3 14 0 3 4 0 7 -7 7 -7 0 -10 -3 -7 -7z"/>
<path d="M3401 2554 c0 -11 3 -14 6 -6 3 7 2 16 -1 19 -3 4 -6 -2 -5 -13z"/>
<path d="M1530 2509 c0 -5 5 -7 10 -4 6 3 10 8 10 11 0 2 -4 4 -10 4 -5 0 -10
-5 -10 -11z"/>
<path d="M3378 2433 c6 -2 18 -2 25 0 6 3 1 5 -13 5 -14 0 -19 -2 -12 -5z"/>
<path d="M3383 2393 c4 -3 10 -3 14 0 3 4 0 7 -7 7 -7 0 -10 -3 -7 -7z"/>
<path d="M3370 2220 c0 -5 7 -10 16 -10 8 0 12 5 9 10 -3 6 -10 10 -16 10 -5
0 -9 -4 -9 -10z"/>
<path d="M3346 2204 c-8 -22 -7 -34 3 -34 5 0 9 11 9 25 0 29 -3 31 -12 9z"/>
<path d="M3510 2120 c0 -7 3 -10 7 -7 3 4 3 10 0 14 -4 3 -7 0 -7 -7z"/>
<path d="M3531 2084 c0 -11 3 -14 6 -6 3 7 2 16 -1 19 -3 4 -6 -2 -5 -13z"/>
<path d="M3340 1929 c0 -5 5 -7 10 -4 6 3 10 8 10 11 0 2 -4 4 -10 4 -5 0 -10
-5 -10 -11z"/>
<path d="M3345 1690 c-3 -5 -1 -10 4 -10 6 0 11 5 11 10 0 6 -2 10 -4 10 -3 0
-8 -4 -11 -10z"/>
<path d="M3346 1441 c-4 -7 -5 -15 -2 -18 9 -9 19 4 14 18 -4 11 -6 11 -12 0z"/>
<path d="M3690 1940 c0 -7 3 -10 7 -7 3 4 3 10 0 14 -4 3 -7 0 -7 -7z"/>
<path d="M1746 1404 c-4 -37 -5 -69 -2 -71 2 -3 7 25 11 62 4 36 5 68 3 71 -3
2 -8 -25 -12 -62z"/>
<path d="M1730 1290 c0 -7 3 -10 7 -7 3 4 3 10 0 14 -4 3 -7 0 -7 -7z"/>
<path d="M1682 1011 c2 -7 7 -12 11 -12 12 1 9 15 -3 20 -7 2 -11 -2 -8 -8z"/>
<path d="M3570 1710 c0 -7 3 -10 7 -7 3 4 3 10 0 14 -4 3 -7 0 -7 -7z"/>
<path d="M3640 1530 c0 -5 5 -10 11 -10 5 0 7 5 4 10 -3 6 -8 10 -11 10 -2 0
-4 -4 -4 -10z"/>
<path d="M3690 1510 c0 -7 3 -10 7 -7 3 4 3 10 0 14 -4 3 -7 0 -7 -7z"/>
<path d="M3650 1489 c0 -12 -7 -27 -17 -34 -10 -8 -13 -17 -7 -26 14 -23 14
-41 -2 -35 -11 4 -11 2 -2 -13 15 -25 35 -16 54 24 14 29 14 37 0 69 -17 41
-26 46 -26 15z"/>
<path d="M3595 1464 l-30 -25 35 15 c19 8 36 19 38 25 6 18 -11 12 -43 -15z"/>
<path d="M3500 1471 c0 -5 5 -13 10 -16 6 -3 10 -2 10 4 0 5 -4 13 -10 16 -5
3 -10 2 -10 -4z"/>
<path d="M3530 1430 c0 -5 5 -10 11 -10 5 0 7 5 4 10 -3 6 -8 10 -11 10 -2 0
-4 -4 -4 -10z"/>
<path d="M3573 1382 c10 -10 17 -23 17 -29 0 -6 7 -13 15 -17 8 -3 15 -2 15 2
-1 10 -48 62 -56 62 -4 0 0 -8 9 -18z"/>
<path d="M3664 1355 c-4 -8 -10 -12 -15 -9 -5 3 -9 0 -9 -5 0 -6 4 -11 9 -11
4 0 6 -12 3 -26 -6 -33 13 -25 21 8 2 13 8 31 12 41 4 10 3 17 -4 17 -7 0 -14
-7 -17 -15z"/>
<path d="M3643 1100 c0 -36 2 -50 4 -32 2 17 2 47 0 65 -2 17 -4 3 -4 -33z"/>
<path d="M3670 1060 c0 -7 3 -10 7 -7 3 4 3 10 0 14 -4 3 -7 0 -7 -7z"/>
<path d="M3628 916 c-5 -27 -8 -65 -7 -85 0 -34 1 -34 10 -11 5 13 9 51 7 85
l-3 60 -7 -49z"/>
<path d="M3610 760 c0 -5 5 -10 10 -10 6 0 10 5 10 10 0 6 -4 10 -10 10 -5 0
-10 -4 -10 -10z"/>
<path d="M3653 763 c4 -3 10 -3 14 0 3 4 0 7 -7 7 -7 0 -10 -3 -7 -7z"/>
<path d="M3606 693 c-8 -48 -8 -138 0 -130 8 8 21 167 13 167 -3 0 -9 -17 -13
-37z"/>
<path d="M3556 691 c5 -23 2 -30 -15 -36 -22 -7 -26 -27 -22 -125 2 -52 11
-65 38 -56 17 5 19 13 15 56 -2 27 1 64 7 81 13 39 4 109 -15 109 -10 0 -12
-8 -8 -29z m-2 -66 c3 -9 0 -15 -9 -15 -8 0 -15 7 -15 15 0 8 4 15 9 15 5 0
11 -7 15 -15z"/>
<path d="M3670 539 l-45 -18 38 3 c21 2 43 8 50 15 19 19 3 19 -43 0z"/>
<path d="M3663 497 c-30 -10 -32 -14 -38 -71 -4 -34 -8 -68 -11 -77 -3 -12 4
-18 28 -23 28 -6 37 -2 56 19 12 14 22 35 22 45 0 11 5 31 12 45 10 23 10 28
-5 36 -9 5 -14 16 -11 24 7 17 -6 17 -53 2z"/>
<path d="M3596 475 c-3 -8 -1 -15 4 -15 6 0 10 7 10 15 0 8 -2 15 -4 15 -2 0
-6 -7 -10 -15z"/>
<path d="M3565 440 c-3 -5 -1 -10 4 -10 6 0 11 5 11 10 0 6 -2 10 -4 10 -3 0
-8 -4 -11 -10z"/>
<path d="M3533 423 c4 -3 10 -3 14 0 3 4 0 7 -7 7 -7 0 -10 -3 -7 -7z"/>
<path d="M3735 383 c0 -14 5 -28 11 -30 7 -2 9 8 6 27 -5 37 -18 40 -17 3z"/>
<path d="M3742 328 c-14 -14 -16 -28 -3 -28 9 0 24 30 18 36 -2 2 -9 -2 -15
-8z"/>
<path d="M3668 308 c-7 -4 -23 -8 -35 -8 -36 0 -27 -16 10 -18 22 -2 39 4 50
16 14 15 15 19 2 19 -8 0 -20 -4 -27 -9z"/>
<path d="M451 1334 c0 -11 3 -14 6 -6 3 7 2 16 -1 19 -3 4 -6 -2 -5 -13z"/>
<path d="M490 1330 c0 -5 5 -10 10 -10 6 0 10 5 10 10 0 6 -4 10 -10 10 -5 0
-10 -4 -10 -10z"/>
<path d="M451 1034 c0 -11 3 -14 6 -6 3 7 2 16 -1 19 -3 4 -6 -2 -5 -13z"/>
<path d="M435 913 c-3 -43 -8 -90 -10 -105 -3 -26 8 -38 19 -20 9 14 15 202 6
202 -4 0 -11 -35 -15 -77z"/>
<path d="M480 806 c0 -9 5 -16 10 -16 6 0 10 4 10 9 0 6 -4 13 -10 16 -5 3
-10 -1 -10 -9z"/>
<path d="M420 736 c0 -8 5 -18 10 -21 6 -3 10 3 10 14 0 12 -4 21 -10 21 -5 0
-10 -6 -10 -14z"/>
<path d="M470 740 c0 -5 5 -10 10 -10 6 0 10 5 10 10 0 6 -4 10 -10 10 -5 0
-10 -4 -10 -10z"/>
<path d="M500 740 c0 -7 3 -10 7 -7 3 4 3 10 0 14 -4 3 -7 0 -7 -7z"/>
<path d="M3345 930 c-3 -5 -1 -10 4 -10 6 0 11 5 11 10 0 6 -2 10 -4 10 -3 0
-8 -4 -11 -10z"/>
<path d="M3883 1023 c3 -10 11 -46 17 -81 14 -68 35 -99 25 -35 -12 74 -29
133 -38 133 -4 0 -6 -8 -4 -17z"/>
<path d="M3930 830 c0 -7 3 -10 7 -7 3 4 3 10 0 14 -4 3 -7 0 -7 -7z"/>
<path d="M3347 663 c-4 -3 -7 -11 -7 -17 0 -6 5 -5 12 2 6 6 9 14 7 17 -3 3
-9 2 -12 -2z"/>
<path d="M3342 403 c2 -9 9 -18 16 -21 18 -6 15 25 -4 32 -11 4 -14 1 -12 -11z"/>
<path d="M3972 581 c2 -7 7 -12 11 -12 12 1 9 15 -3 20 -7 2 -11 -2 -8 -8z"/>
<path d="M935 529 c-4 -6 -4 -13 -1 -16 3 -4 6 -2 6 4 0 6 9 9 22 5 14 -3 19
-2 14 6 -9 15 -33 15 -41 1z"/>
<path d="M490 474 c0 -8 5 -12 10 -9 6 3 10 10 10 16 0 5 -4 9 -10 9 -5 0 -10
-7 -10 -16z"/>
<path d="M3756 163 c-6 -14 -5 -15 5 -6 7 7 10 15 7 18 -3 3 -9 -2 -12 -12z"/>
<path d="M3780 121 c0 -5 6 -14 13 -20 10 -8 14 -7 14 4 0 8 -6 16 -14 19 -7
3 -13 2 -13 -3z"/>
<path d="M2778 4793 c12 -2 30 -2 40 0 9 3 -1 5 -23 4 -22 0 -30 -2 -17 -4z"/>
<path d="M2963 4793 c9 -2 23 -2 30 0 6 3 -1 5 -18 5 -16 0 -22 -2 -12 -5z"/>
<path d="M883 4683 c4 -3 10 -3 14 0 3 4 0 7 -7 7 -7 0 -10 -3 -7 -7z"/>
<path d="M1020 4360 c0 -19 3 -21 12 -12 9 9 9 15 0 24 -9 9 -12 7 -12 -12z"/>
<path d="M3500 4290 c0 -7 3 -10 7 -7 3 4 3 10 0 14 -4 3 -7 0 -7 -7z"/>
<path d="M4231 4174 c0 -11 3 -14 6 -6 3 7 2 16 -1 19 -3 4 -6 -2 -5 -13z"/>
<path d="M3871 4164 c0 -11 3 -14 6 -6 3 7 2 16 -1 19 -3 4 -6 -2 -5 -13z"/>
<path d="M4267 4145 c-1 -1 -123 -5 -272 -9 -310 -7 -455 -15 -455 -27 0 -5 6
-7 13 -4 6 2 98 6 202 9 105 3 267 9 362 12 141 6 175 5 190 -7 9 -8 14 -9 10
-2 -5 8 15 13 70 18 125 10 125 13 0 12 -64 0 -118 -1 -120 -2z"/>
<path d="M1913 4008 c2 -7 12 -13 22 -13 10 0 20 6 23 13 2 7 -6 12 -23 12
-17 0 -25 -5 -22 -12z"/>
<path d="M4150 3919 c-85 -4 -279 -12 -430 -18 -317 -13 -400 -20 -400 -33 0
-5 12 -7 28 -4 15 2 106 8 202 11 96 4 315 13 485 21 401 18 401 18 385 -1 -7
-8 -9 -15 -4 -15 5 0 1 -6 -8 -13 -18 -14 -18 -25 1 -72 26 -68 24 -73 -9 -20
-25 41 -27 41 -60 15 -20 -16 -22 -22 -12 -29 10 -6 7 -10 -14 -15 -15 -4 -30
-3 -33 2 -3 4 -14 11 -23 15 -10 3 -16 12 -13 19 3 7 0 20 -5 28 -9 13 -12 13
-24 -2 -10 -13 -15 -15 -24 -6 -16 16 -48 -27 -44 -58 4 -30 -25 -57 -56 -51
-14 3 -39 1 -55 -4 -25 -7 -35 -5 -53 12 -37 35 -114 23 -114 -17 0 -8 -5 -14
-11 -14 -5 0 -7 -4 -4 -10 4 -6 -7 -10 -27 -9 -24 0 -28 2 -15 7 16 7 14 10
-12 30 -26 19 -34 20 -51 10 -11 -7 -20 -16 -20 -20 0 -5 -9 -3 -19 4 -11 7
-17 16 -14 21 3 4 -4 11 -16 14 -12 3 -21 9 -21 14 0 12 -37 11 -45 -1 -4 -6
-10 -8 -15 -5 -4 3 -15 -11 -24 -29 -15 -32 -19 -34 -52 -29 -33 6 -36 4 -30
-15 7 -19 4 -21 -38 -18 -30 1 -47 -2 -50 -11 -4 -9 5 -13 27 -14 30 -2 30 -2
5 -6 -16 -2 -28 -7 -28 -11 0 -4 -20 -6 -45 -4 -30 3 -45 0 -45 -8 0 -6 -12
-11 -27 -10 -46 3 -63 1 -63 -10 0 -5 33 -7 80 -5 48 3 80 1 80 -5 0 -6 -14
-10 -31 -10 -17 0 -28 -4 -24 -10 3 -5 22 -10 41 -10 19 0 34 -4 34 -10 0 -5
7 -7 15 -4 24 9 158 -17 179 -35 11 -9 16 -10 12 -3 -6 9 -1 11 16 8 12 -3 55
-8 93 -11 39 -4 75 -11 81 -16 6 -5 14 -6 17 -2 4 3 12 1 19 -4 7 -6 22 -13
33 -16 11 -2 1 -5 -23 -6 -29 -1 -44 4 -48 14 -4 11 -20 15 -53 14 -43 -1 -44
-1 -16 -10 17 -5 37 -6 45 -3 11 4 12 2 4 -6 -12 -12 -525 -21 -564 -9 l-25 7
23 7 c21 7 31 24 15 26 -5 0 -17 2 -28 4 -25 5 -36 -2 -57 -40 -16 -30 -16
-31 13 -47 36 -21 49 -5 17 23 -13 11 0 5 29 -14 l51 -34 168 4 c92 2 171 6
175 9 5 3 17 0 28 -6 26 -13 52 -14 31 0 -11 7 -6 10 20 9 27 0 30 -2 16 -8
-11 -4 74 -6 189 -3 174 4 226 2 309 -14 89 -16 97 -19 66 -25 -19 -4 -48 -6
-65 -3 -28 3 -28 3 -5 -5 23 -8 22 -9 -12 -10 -20 -1 -39 -5 -42 -9 -2 -4 30
-5 72 -1 42 4 80 5 86 2 5 -3 6 -1 3 4 -7 11 22 28 31 18 3 -3 -1 -5 -9 -5
-10 -1 -10 -4 4 -14 15 -12 12 -14 -29 -20 -25 -3 -51 -3 -57 1 -6 4 -7 1 -2
-8 6 -11 5 -12 -6 -1 -7 6 -27 11 -44 11 -21 -1 -24 -3 -10 -6 11 -3 22 -9 25
-14 3 -5 60 -13 125 -19 66 -5 132 -13 148 -16 l27 -6 0 121 0 121 -73 0 c-40
0 -77 4 -82 9 -6 6 -28 11 -50 14 -22 2 15 1 83 -1 l122 -5 0 32 c0 29 -2 31
-21 21 -11 -6 -25 -10 -31 -8 -6 2 3 10 20 17 30 13 32 17 32 63 0 46 -1 48
-20 38 -12 -7 -20 -7 -20 -1 0 5 9 13 20 16 19 6 20 15 20 141 l0 134 -97 -2
c-54 0 -168 -4 -253 -9z m318 -191 c-3 -7 -12 -14 -21 -16 -12 -2 -15 1 -11
12 7 19 38 22 32 4z m-296 -94 c-13 -9 -26 -13 -29 -10 -4 3 -1 6 6 6 7 0 9 5
6 10 -3 6 4 10 17 10 l22 0 -22 -16z m-92 -4 c-8 -5 -19 -10 -25 -10 -5 0 -3
5 5 10 8 5 20 10 25 10 6 0 3 -5 -5 -10z m-63 -7 c-4 -3 -10 -3 -14 0 -3 4 0
7 7 7 7 0 10 -3 7 -7z m-482 -13 c3 -5 3 -10 -2 -11 -4 0 -16 -2 -25 -4 -10
-2 -18 0 -18 4 0 21 34 29 45 11z m318 -7 c-7 -2 -21 -2 -30 0 -10 3 -4 5 12
5 17 0 24 -2 18 -5z m-102 -12 c-8 -5 -20 -7 -28 -4 -21 8 -15 13 15 13 20 0
23 -3 13 -9z m399 -1 c-8 -5 -19 -10 -25 -10 -5 0 -3 5 5 10 8 5 20 10 25 10
6 0 3 -5 -5 -10z m-465 -11 c4 -6 14 -8 22 -4 13 4 14 3 3 -10 -11 -13 -8 -14
21 -9 19 4 38 11 44 15 12 12 25 11 25 -1 0 -5 -10 -15 -22 -21 -29 -16 -90
-21 -82 -7 4 6 -2 8 -16 3 -13 -4 -20 -3 -17 2 3 5 1 15 -4 23 -7 12 -11 13
-18 2 -7 -11 -9 -11 -14 2 -5 12 0 16 23 16 16 0 32 -5 35 -11z m290 1 c-3 -5
-12 -10 -18 -10 -7 0 -6 4 3 10 19 12 23 12 15 0z m-525 -15 c-30 -17 -50 -19
-50 -4 0 5 4 7 10 4 5 -3 18 -1 27 4 10 6 23 10 28 10 6 0 -1 -6 -15 -14z
m150 0 c-15 -18 -34 -20 -24 -2 4 6 -1 5 -12 -5 -10 -9 -32 -18 -49 -21 -19
-2 -11 -5 23 -6 29 0 52 3 52 9 0 6 10 10 23 10 17 0 19 -2 8 -9 -19 -12 66
-19 304 -27 105 -3 208 -7 230 -10 22 -2 48 -5 57 -5 10 0 20 -4 23 -10 4 -5
-18 -7 -52 -4 -32 2 -155 7 -273 11 -263 8 -250 7 -250 14 0 3 -48 6 -107 7
-58 1 -110 6 -115 11 -5 5 1 8 14 7 13 -1 39 8 58 21 41 27 111 34 90 9z m644
0 c-10 -8 -23 -14 -29 -14 -5 0 -1 6 9 14 11 8 24 15 30 15 5 0 1 -7 -10 -15z
m156 5 c0 -5 -10 -15 -22 -21 -23 -12 -23 -12 -4 10 21 23 26 26 26 11z m-380
-5 c0 -6 -56 -35 -67 -35 -4 1 8 9 27 20 39 22 40 22 40 15z m130 0 c0 -6 -56
-35 -67 -35 -4 1 8 9 27 20 39 22 40 22 40 15z m-210 -19 c0 -2 -7 -6 -15 -10
-8 -3 -15 -1 -15 4 0 6 7 10 15 10 8 0 15 -2 15 -4z m120 -136 c-20 -13 -150
-13 -150 0 0 6 34 10 83 10 56 0 77 -3 67 -10z m173 -27 c-23 -2 -64 -2 -90 0
-26 2 -7 3 42 3 50 0 71 -1 48 -3z m247 -83 c0 -5 -4 -10 -9 -10 -6 0 -13 5
-16 10 -3 6 1 10 9 10 9 0 16 -4 16 -10z"/>
<path d="M3673 3563 c4 -3 10 -3 14 0 3 4 0 7 -7 7 -7 0 -10 -3 -7 -7z"/>
<path d="M3297 3883 c-4 -3 -7 -13 -7 -22 1 -13 3 -13 11 2 11 19 8 33 -4 20z"/>
<path d="M3230 3778 c0 -32 0 -32 16 -10 15 22 12 42 -7 42 -5 0 -9 -15 -9
-32z"/>
<path d="M4095 3770 c-7 -12 2 -30 16 -30 12 0 12 27 0 35 -5 3 -12 1 -16 -5z"/>
<path d="M2845 3750 c4 -14 7 -39 6 -57 0 -19 9 -47 23 -68 14 -20 27 -49 31
-65 4 -17 10 -30 15 -30 4 0 11 -10 14 -22 6 -23 7 -23 21 -4 8 11 15 28 15
38 0 43 -62 160 -113 213 -20 20 -20 20 -12 -5z"/>
<path d="M2880 3570 c0 -7 3 -10 7 -7 3 4 3 10 0 14 -4 3 -7 0 -7 -7z"/>
<path d="M3193 3506 c-10 -11 -9 -15 3 -20 9 -3 22 -6 30 -6 12 0 12 4 2 20
-15 23 -19 24 -35 6z"/>
<path d="M3648 3453 c6 -2 18 -2 25 0 6 3 1 5 -13 5 -14 0 -19 -2 -12 -5z"/>
<path d="M3603 3353 c4 -3 10 -3 14 0 3 4 0 7 -7 7 -7 0 -10 -3 -7 -7z"/>
<path d="M3210 3340 c0 -7 3 -10 7 -7 3 4 3 10 0 14 -4 3 -7 0 -7 -7z"/>
<path d="M3165 3330 c3 -5 8 -10 11 -10 3 0 2 5 -1 10 -3 6 -8 10 -11 10 -3 0
-2 -4 1 -10z"/>
<path d="M3247 3318 c-7 -19 23 -65 50 -77 18 -8 27 -7 42 6 19 16 18 17 -22
50 -45 35 -63 40 -70 21z"/>
<path d="M473 3313 c4 -3 10 -3 14 0 3 4 0 7 -7 7 -7 0 -10 -3 -7 -7z"/>
<path d="M3960 3301 c0 -8 96 -21 144 -21 17 1 18 2 6 9 -21 12 -150 22 -150
12z"/>
<path d="M3617 3293 c-30 -8 -8 -23 34 -23 28 0 38 4 33 12 -7 11 48 8 91 -7
14 -4 12 -2 -5 9 -24 15 -112 20 -153 9z"/>
<path d="M3550 3286 c0 -2 9 -6 20 -9 11 -3 20 -1 20 4 0 5 -9 9 -20 9 -11 0
-20 -2 -20 -4z"/>
<path d="M3803 3283 c4 -3 10 -3 14 0 3 4 0 7 -7 7 -7 0 -10 -3 -7 -7z"/>
<path d="M2945 3240 c-3 -5 -1 -10 4 -10 6 0 11 5 11 10 0 6 -2 10 -4 10 -3 0
-8 -4 -11 -10z"/>
<path d="M3352 3230 c-7 -11 -10 -20 -7 -20 3 0 15 9 27 20 16 14 18 20 7 20
-8 0 -20 -9 -27 -20z"/>
<path d="M3698 3233 c17 -2 47 -2 65 0 17 2 3 4 -33 4 -36 0 -50 -2 -32 -4z"/>
<path d="M3257 3210 c3 -11 9 -20 15 -20 5 0 4 9 -2 20 -6 11 -12 20 -14 20
-2 0 -2 -9 1 -20z"/>
<path d="M3403 3213 c4 -3 10 -3 14 0 3 4 0 7 -7 7 -7 0 -10 -3 -7 -7z"/>
<path d="M3903 3213 c4 -3 10 -3 14 0 3 4 0 7 -7 7 -7 0 -10 -3 -7 -7z"/>
<path d="M3301 3193 c7 -12 15 -20 18 -17 3 2 -3 12 -13 22 -17 16 -18 16 -5
-5z"/>
<path d="M3371 3201 c-8 -5 -9 -11 -3 -15 5 -3 12 1 16 9 6 17 6 18 -13 6z"/>
<path d="M3415 3180 c-10 -11 -16 -20 -14 -21 2 0 13 -2 24 -4 11 -2 31 -1 44
2 l24 6 -22 19 c-29 23 -34 23 -56 -2z"/>
<path d="M3965 3186 c17 -7 41 -16 55 -20 20 -5 19 -3 -5 8 -16 7 -41 16 -55
20 -20 5 -19 3 5 -8z"/>
<path d="M4323 3193 c4 -3 10 -3 14 0 3 4 0 7 -7 7 -7 0 -10 -3 -7 -7z"/>
<path d="M3280 3160 c0 -7 3 -10 7 -7 3 4 3 10 0 14 -4 3 -7 0 -7 -7z"/>
<path d="M3300 3125 c0 -5 5 -17 10 -25 5 -8 10 -10 10 -5 0 6 -5 17 -10 25
-5 8 -10 11 -10 5z"/>
<path d="M4180 3095 c14 -8 30 -14 35 -14 6 0 -1 6 -15 14 -14 8 -29 14 -35
14 -5 0 1 -6 15 -14z"/>
<path d="M4240 3070 c8 -5 20 -10 25 -10 6 0 3 5 -5 10 -8 5 -19 10 -25 10 -5
0 -3 -5 5 -10z"/>
<path d="M3560 3031 c0 -5 7 -12 16 -15 24 -9 28 -7 14 9 -14 17 -30 20 -30 6z"/>
<path d="M3523 3023 c4 -3 10 -3 14 0 3 4 0 7 -7 7 -7 0 -10 -3 -7 -7z"/>
<path d="M4360 3020 c8 -5 20 -10 25 -10 6 0 3 5 -5 10 -8 5 -19 10 -25 10 -5
0 -3 -5 5 -10z"/>
<path d="M3460 3010 c0 -7 3 -10 7 -7 3 4 3 10 0 14 -4 3 -7 0 -7 -7z"/>
<path d="M4443 2984 c27 -14 51 -23 54 -21 5 5 -83 47 -96 47 -3 -1 16 -12 42
-26z"/>
<path d="M3420 2951 c0 -6 5 -13 10 -16 6 -3 10 1 10 9 0 9 -4 16 -10 16 -5 0
-10 -4 -10 -9z"/>
<path d="M4463 2933 c4 -3 10 -3 14 0 3 4 0 7 -7 7 -7 0 -10 -3 -7 -7z"/>
<path d="M3522 2898 c-15 -20 -23 -71 -13 -87 5 -8 16 -11 25 -8 9 4 21 -2 29
-14 14 -19 14 -19 38 1 23 19 23 21 6 34 -18 14 -18 14 2 21 39 12 12 49 -29
38 -15 -4 -27 -1 -35 11 -10 13 -15 14 -23 4z"/>
<path d="M3620 2901 c0 -5 7 -15 17 -22 15 -13 15 -12 4 9 -12 23 -21 28 -21
13z"/>
<path d="M3672 2902 c-18 -12 -4 -44 17 -38 48 16 67 -47 47 -161 -4 -23 -4
-48 0 -54 9 -15 12 -68 6 -87 -4 -11 -6 -11 -14 0 -6 9 -8 3 -6 -17 2 -17 8
-29 15 -28 12 3 16 -6 29 -67 4 -19 9 -38 10 -42 1 -5 2 -17 3 -28 0 -11 6
-20 11 -20 6 0 8 12 5 28 -3 15 -2 20 1 12 4 -8 11 -18 17 -21 5 -4 4 -15 -3
-29 -6 -12 -9 -33 -5 -47 4 -18 2 -24 -7 -21 -7 3 -14 13 -14 24 -4 48 -5 49
-19 24 -8 -14 -14 -19 -15 -12 0 7 -4 10 -10 7 -13 -8 -13 -55 0 -55 14 0 35
-43 22 -48 -5 -1 -8 -12 -5 -22 3 -12 0 -20 -6 -20 -7 0 -10 -4 -6 -9 3 -6 26
-9 50 -7 35 2 45 -1 45 -13 0 -10 8 -4 20 14 l20 30 6 -33 c4 -18 9 -30 12
-28 7 8 7 97 -2 139 -7 39 -15 44 -34 25 -21 -21 -13 8 10 37 14 18 18 30 11
32 -7 3 -10 24 -7 61 l5 57 -27 -45 c-35 -62 -38 -62 -30 -6 6 34 4 46 -4 41
-7 -4 -9 1 -5 18 4 14 2 28 -4 31 -20 13 -12 28 12 20 l22 -6 -21 18 c-26 24
-30 102 -7 120 13 8 13 15 4 32 -6 12 -15 22 -19 22 -10 0 -31 82 -34 125 -1
17 -6 36 -11 43 -11 13 -65 16 -85 4z m95 -369 c-4 -3 -7 0 -7 7 0 7 3 10 7 7
3 -4 3 -10 0 -14z m99 -300 c-10 -11 -25 18 -18 35 4 13 8 11 15 -6 6 -12 7
-25 3 -29z"/>
<path d="M4150 2822 c0 -6 -6 -9 -13 -6 -8 3 -20 -2 -27 -11 -11 -13 -8 -15
18 -15 34 0 50 16 33 33 -8 8 -11 8 -11 -1z"/>
<path d="M3816 2805 c4 -8 11 -15 16 -15 6 0 5 6 -2 15 -7 8 -14 15 -16 15 -2
0 -1 -7 2 -15z"/>
<path d="M3593 2765 l-28 -26 25 7 c32 8 55 29 42 38 -6 3 -23 -5 -39 -19z"/>
<path d="M3851 2670 c-1 -17 17 -40 31 -40 4 0 8 7 8 15 0 8 -6 15 -14 15 -8
0 -17 6 -19 13 -4 8 -6 7 -6 -3z"/>
<path d="M3712 2600 c0 -14 2 -19 5 -12 2 6 2 18 0 25 -3 6 -5 1 -5 -13z"/>
<path d="M120 2586 c0 -3 9 -10 20 -16 11 -6 20 -8 20 -6 0 3 -9 10 -20 16
-11 6 -20 8 -20 6z"/>
<path d="M3681 2565 c1 -19 18 -51 18 -35 0 8 -4 22 -9 30 -5 8 -9 11 -9 5z"/>
<path d="M4140 2386 c0 -2 9 -6 20 -9 11 -3 18 -1 14 4 -5 9 -34 13 -34 5z"/>
<path d="M3712 2305 c0 -16 2 -22 5 -12 2 9 2 23 0 30 -3 6 -5 -1 -5 -18z"/>
<path d="M4140 2269 c0 -5 -10 -9 -22 -9 -12 0 -18 -3 -14 -7 16 -16 107 -18
116 -2 5 6 15 6 33 0 30 -12 36 -2 10 15 -10 6 -29 7 -43 4 -14 -4 -37 -3 -52
1 -16 4 -28 4 -28 -2z"/>
<path d="M4278 2273 c7 -3 16 -2 19 1 4 3 -2 6 -13 5 -11 0 -14 -3 -6 -6z"/>
<path d="M4463 2253 c4 -3 10 -3 14 0 3 4 0 7 -7 7 -7 0 -10 -3 -7 -7z"/>
<path d="M4313 2223 c4 -3 10 -3 14 0 3 4 0 7 -7 7 -7 0 -10 -3 -7 -7z"/>
<path d="M4373 2203 c4 -3 10 -3 14 0 3 4 0 7 -7 7 -7 0 -10 -3 -7 -7z"/>
<path d="M4395 2149 c-4 -6 -5 -12 -2 -15 2 -3 7 2 10 11 7 17 1 20 -8 4z"/>
<path d="M4110 2140 c0 -5 7 -7 15 -4 8 4 15 8 15 10 0 2 -7 4 -15 4 -8 0 -15
-4 -15 -10z"/>
<path d="M4203 2143 c4 -3 10 -3 14 0 3 4 0 7 -7 7 -7 0 -10 -3 -7 -7z"/>
<path d="M4470 2130 c0 -5 5 -10 11 -10 5 0 7 5 4 10 -3 6 -8 10 -11 10 -2 0
-4 -4 -4 -10z"/>
<path d="M3970 2100 c22 -31 35 -36 25 -9 -3 8 -15 20 -27 28 -20 13 -20 12 2
-19z"/>
<path d="M4295 2120 c-4 -6 -13 -9 -21 -6 -7 3 -16 1 -20 -5 -3 -6 -12 -8 -20
-5 -8 3 -14 2 -14 -3 0 -5 9 -11 20 -14 14 -4 20 0 21 11 0 10 3 12 5 5 3 -7
21 -17 40 -23 28 -9 38 -9 51 2 12 9 15 9 9 1 -4 -8 -1 -13 8 -13 10 0 13 6 9
15 -3 9 -13 15 -23 13 -10 -2 -27 5 -38 15 -14 13 -22 15 -27 7z"/>
<path d="M4333 2113 c4 -3 10 -3 14 0 3 4 0 7 -7 7 -7 0 -10 -3 -7 -7z"/>
<path d="M3950 2067 c0 -8 10 -22 21 -33 l22 -19 -17 33 c-18 34 -26 40 -26
19z"/>
<path d="M4350 2056 c0 -2 7 -6 15 -10 8 -3 15 -1 15 4 0 6 -7 10 -15 10 -8 0
-15 -2 -15 -4z"/>
<path d="M3680 2040 c0 -7 3 -10 7 -7 3 4 3 10 0 14 -4 3 -7 0 -7 -7z"/>
<path d="M3906 1999 c-9 -44 -8 -99 2 -99 5 0 16 6 25 13 15 11 15 16 1 65 -9
28 -17 52 -19 52 -1 0 -5 -14 -9 -31z"/>
<path d="M3950 2010 c0 -7 3 -10 7 -7 3 4 3 10 0 14 -4 3 -7 0 -7 -7z"/>
<path d="M4445 1980 c-3 -5 -1 -10 4 -10 6 0 11 5 11 10 0 6 -2 10 -4 10 -3 0
-8 -4 -11 -10z"/>
<path d="M60 1970 c8 -5 22 -9 30 -9 10 0 8 3 -5 9 -27 12 -43 12 -25 0z"/>
<path d="M4213 1953 c4 -3 10 -3 14 0 3 4 0 7 -7 7 -7 0 -10 -3 -7 -7z"/>
<path d="M95 1940 c3 -5 11 -10 16 -10 6 0 7 5 4 10 -3 6 -11 10 -16 10 -6 0
-7 -4 -4 -10z"/>
<path d="M4120 1920 c0 -5 5 -10 11 -10 5 0 7 5 4 10 -3 6 -8 10 -11 10 -2 0
-4 -4 -4 -10z"/>
<path d="M3932 1884 c-12 -8 -20 -20 -16 -25 7 -12 21 -3 34 22 13 23 11 23
-18 3z"/>
<path d="M4203 1893 c4 -3 10 -3 14 0 3 4 0 7 -7 7 -7 0 -10 -3 -7 -7z"/>
<path d="M4360 1870 c-24 -8 -23 -8 8 -9 20 -1 31 3 27 9 -3 6 -7 10 -8 9 -1
-1 -13 -5 -27 -9z"/>
<path d="M373 1863 c4 -3 10 -3 14 0 3 4 0 7 -7 7 -7 0 -10 -3 -7 -7z"/>
<path d="M4225 1850 c-3 -5 8 -8 25 -8 40 1 48 15 10 16 -16 0 -32 -3 -35 -8z"/>
<path d="M4156 1813 c4 -16 10 -35 15 -43 7 -12 8 -11 9 5 0 31 -11 65 -21 65
-5 0 -6 -12 -3 -27z"/>
<path d="M4264 1798 c-4 -7 -3 -8 4 -4 12 7 16 16 8 16 -3 0 -8 -5 -12 -12z"/>
<path d="M4415 1801 c-26 -6 -27 -7 -9 -13 12 -3 32 1 45 8 26 14 13 16 -36 5z"/>
<path d="M3890 1789 c0 -5 5 -7 10 -4 6 3 10 8 10 11 0 2 -4 4 -10 4 -5 0 -10
-5 -10 -11z"/>
<path d="M4032 1750 c0 -19 2 -27 5 -17 2 9 2 25 0 35 -3 9 -5 1 -5 -18z"/>
<path d="M4240 1760 c0 -5 7 -7 15 -4 8 4 15 8 15 10 0 2 -7 4 -15 4 -8 0 -15
-4 -15 -10z"/>
<path d="M4353 1733 c4 -3 10 -3 14 0 3 4 0 7 -7 7 -7 0 -10 -3 -7 -7z"/>
<path d="M4360 1670 c0 -5 9 -10 20 -10 11 0 20 5 20 10 0 6 -9 10 -20 10 -11
0 -20 -4 -20 -10z"/>
<path d="M4293 1663 c4 -3 10 -3 14 0 3 4 0 7 -7 7 -7 0 -10 -3 -7 -7z"/>
<path d="M4345 1640 c-4 -6 5 -10 19 -10 14 0 26 5 26 10 0 6 -9 10 -19 10
-11 0 -23 -4 -26 -10z"/>
<path d="M4078 1554 c-1 -31 0 -58 5 -61 4 -2 7 -15 7 -29 0 -25 7 -29 25 -16
22 16 -1 162 -26 162 -4 0 -9 -25 -11 -56z"/>
<path d="M4258 1593 c12 -2 32 -2 45 0 12 2 2 4 -23 4 -25 0 -35 -2 -22 -4z"/>
<path d="M4211 1574 c0 -11 3 -14 6 -6 3 7 2 16 -1 19 -3 4 -6 -2 -5 -13z"/>
<path d="M4170 1560 c0 -7 3 -10 7 -7 3 4 3 10 0 14 -4 3 -7 0 -7 -7z"/>
<path d="M4003 1495 c0 -22 2 -30 4 -17 2 12 2 30 0 40 -3 9 -5 -1 -4 -23z"/>
<path d="M4032 1500 c0 -14 2 -19 5 -12 2 6 2 18 0 25 -3 6 -5 1 -5 -13z"/>
<path d="M4325 1510 c3 -5 8 -10 11 -10 3 0 2 5 -1 10 -3 6 -8 10 -11 10 -3 0
-2 -4 1 -10z"/>
<path d="M4333 1483 c4 -3 10 -3 14 0 3 4 0 7 -7 7 -7 0 -10 -3 -7 -7z"/>
<path d="M4465 1480 c3 -5 13 -10 21 -10 8 0 14 5 14 10 0 6 -9 10 -21 10 -11
0 -17 -4 -14 -10z"/>
<path d="M4123 1417 c-13 -5 -23 -14 -23 -19 0 -10 39 -1 53 12 15 13 -7 18
-30 7z"/>
<path d="M4343 1405 c0 -8 4 -15 9 -15 4 0 8 4 8 9 0 6 -4 12 -8 15 -5 3 -9
-1 -9 -9z"/>
<path d="M4468 1393 c7 -3 16 -2 19 1 4 3 -2 6 -13 5 -11 0 -14 -3 -6 -6z"/>
<path d="M4128 1373 c-13 -3 -16 -11 -11 -35 4 -22 2 -33 -10 -40 -10 -5 -17
-20 -17 -34 0 -22 4 -25 28 -22 22 2 28 -1 30 -19 3 -23 17 -28 44 -18 12 5
13 18 7 62 -4 30 -12 60 -18 66 -6 6 -11 19 -11 29 0 18 -9 20 -42 11z"/>
<path d="M4300 1370 c0 -7 3 -10 7 -7 3 4 3 10 0 14 -4 3 -7 0 -7 -7z"/>
<path d="M4261 1343 c0 -4 4 -17 9 -28 8 -19 9 -19 9 2 1 12 -3 25 -9 28 -5 3
-10 3 -9 -2z"/>
<path d="M4363 1343 c4 -3 10 -3 14 0 3 4 0 7 -7 7 -7 0 -10 -3 -7 -7z"/>
<path d="M4305 1330 c-3 -5 -1 -10 4 -10 6 0 11 5 11 10 0 6 -2 10 -4 10 -3 0
-8 -4 -11 -10z"/>
<path d="M4443 1321 c2 -19 9 -25 30 -28 21 -3 28 0 25 9 -3 7 -14 12 -26 10
-13 -2 -22 4 -26 15 -3 12 -4 9 -3 -6z"/>
<path d="M244 1321 c3 -5 15 -7 26 -4 28 7 25 13 -6 13 -14 0 -23 -4 -20 -9z"/>
<path d="M4325 1311 c-3 -5 -1 -12 5 -16 5 -3 10 1 10 9 0 18 -6 21 -15 7z"/>
<path d="M4062 1260 c0 -19 2 -27 5 -17 2 9 2 25 0 35 -3 9 -5 1 -5 -18z"/>
<path d="M4481 1264 c0 -11 3 -14 6 -6 3 7 2 16 -1 19 -3 4 -6 -2 -5 -13z"/>
<path d="M1966 1262 c-3 -6 -1 -14 5 -17 15 -10 25 3 12 16 -7 7 -13 7 -17 1z"/>
<path d="M4030 1260 c0 -7 3 -10 7 -7 3 4 3 10 0 14 -4 3 -7 0 -7 -7z"/>
<path d="M4345 1260 c3 -5 8 -10 11 -10 2 0 4 5 4 10 0 6 -5 10 -11 10 -5 0
-7 -4 -4 -10z"/>
<path d="M4407 1223 c3 -7 6 -13 8 -13 2 0 5 6 8 13 3 8 -1 14 -8 14 -7 0 -11
-6 -8 -14z"/>
<path d="M4365 1220 c-18 -8 -17 -9 8 -9 16 -1 26 3 22 9 -3 6 -7 10 -8 9 -1
0 -11 -4 -22 -9z"/>
<path d="M1969 1208 c0 -7 -2 -22 -4 -33 -2 -11 -6 -50 -8 -87 -4 -51 -2 -68
7 -68 8 0 16 20 20 53 9 78 7 147 -4 147 -5 0 -10 -6 -11 -12z"/>
<path d="M4076 1187 c3 -10 9 -15 12 -12 3 3 0 11 -7 18 -10 9 -11 8 -5 -6z"/>
<path d="M4390 1180 c0 -7 3 -10 7 -7 3 4 3 10 0 14 -4 3 -7 0 -7 -7z"/>
<path d="M4440 1180 c0 -7 3 -10 7 -7 3 4 3 10 0 14 -4 3 -7 0 -7 -7z"/>
<path d="M4166 1165 c-19 -14 -15 -15 47 -6 13 2 -3 21 -16 21 -7 0 -20 -7
-31 -15z"/>
<path d="M4351 1167 c2 -1 12 -9 22 -16 15 -12 17 -12 11 3 -3 9 -13 16 -22
16 -8 0 -13 -1 -11 -3z"/>
<path d="M4091 1134 c0 -11 3 -14 6 -6 3 7 2 16 -1 19 -3 4 -6 -2 -5 -13z"/>
<path d="M4315 1105 c8 -37 25 -57 25 -29 0 11 -7 29 -16 40 -15 18 -15 18 -9
-11z"/>
<path d="M4420 1120 c0 -7 3 -10 7 -7 3 4 3 10 0 14 -4 3 -7 0 -7 -7z"/>
<path d="M4449 1119 c-10 -6 -7 -9 14 -9 29 0 35 5 14 13 -8 3 -20 1 -28 -4z"/>
<path d="M4190 1082 c0 -44 -8 -56 -25 -42 -9 8 -11 4 -7 -15 5 -27 12 -31 29
-14 9 9 13 2 18 -25 5 -25 13 -36 24 -36 25 0 31 9 21 33 -5 12 -14 48 -20 80
-14 68 -40 81 -40 19z"/>
<path d="M4105 1059 c7 -43 30 -109 38 -109 4 0 -6 62 -19 113 -11 47 -27 44
-19 -4z"/>
<path d="M4257 1056 c-4 -10 -5 -21 -2 -24 9 -9 17 6 13 25 -3 17 -4 17 -11
-1z"/>
<path d="M4415 1060 c3 -5 11 -10 16 -10 6 0 7 5 4 10 -3 6 -11 10 -16 10 -6
0 -7 -4 -4 -10z"/>
<path d="M4375 1050 c3 -5 8 -10 11 -10 2 0 4 5 4 10 0 6 -5 10 -11 10 -5 0
-7 -4 -4 -10z"/>
<path d="M1950 980 c0 -5 5 -10 10 -10 6 0 10 5 10 10 0 6 -4 10 -10 10 -5 0
-10 -4 -10 -10z"/>
<path d="M4433 983 c4 -3 10 -3 14 0 3 4 0 7 -7 7 -7 0 -10 -3 -7 -7z"/>
<path d="M4390 970 c0 -7 3 -10 7 -7 3 4 3 10 0 14 -4 3 -7 0 -7 -7z"/>
<path d="M4330 959 c0 -5 5 -7 10 -4 6 3 10 8 10 11 0 2 -4 4 -10 4 -5 0 -10
-5 -10 -11z"/>
<path d="M4423 963 c4 -3 10 -3 14 0 3 4 0 7 -7 7 -7 0 -10 -3 -7 -7z"/>
<path d="M4462 958 c3 -7 -4 -20 -15 -29 -16 -12 -17 -18 -7 -24 9 -5 11 -4 6
3 -4 7 -1 12 8 12 9 0 16 5 16 11 0 6 7 9 15 5 8 -3 15 -1 15 4 0 6 -7 10 -16
10 -8 0 -12 5 -9 10 3 6 1 10 -5 10 -7 0 -10 -6 -8 -12z"/>
<path d="M4390 940 c0 -7 3 -10 7 -7 3 4 3 10 0 14 -4 3 -7 0 -7 -7z"/>
<path d="M1948 930 c-4 -8 -9 -31 -13 -50 -3 -19 -7 -44 -9 -55 -2 -11 -9 -19
-15 -17 -7 1 -10 -2 -6 -8 3 -6 11 -7 17 -4 7 4 9 -6 6 -30 -7 -59 16 -36 25
25 9 60 5 162 -5 139z"/>
<path d="M55 920 c3 -5 8 -10 11 -10 3 0 2 5 -1 10 -3 6 -8 10 -11 10 -3 0 -2
-4 1 -10z"/>
<path d="M4094 918 c-4 -7 -3 -8 4 -4 12 7 16 16 8 16 -3 0 -8 -5 -12 -12z"/>
<path d="M4231 921 c-7 -5 -10 -14 -7 -20 8 -13 46 3 46 19 0 12 -20 13 -39 1z"/>
<path d="M4338 924 c-5 -4 -8 -45 -8 -91 0 -62 3 -83 13 -83 20 0 28 12 17 25
-5 6 -10 44 -12 84 -2 40 -6 69 -10 65z"/>
<path d="M4236 872 c-2 -4 -1 -14 5 -22 14 -23 11 -38 -9 -44 -19 -6 -20 -25
-7 -84 l8 -33 16 37 c12 27 20 35 25 25 7 -11 10 -11 17 0 22 35 -1 129 -31
129 -11 0 -21 -4 -24 -8z"/>
<path d="M4362 840 c0 -19 2 -27 5 -17 2 9 2 25 0 35 -3 9 -5 1 -5 -18z"/>
<path d="M4440 860 c-12 -8 -11 -10 8 -10 12 0 22 5 22 10 0 13 -11 13 -30 0z"/>
<path d="M4120 830 c0 -7 3 -10 7 -7 3 4 3 10 0 14 -4 3 -7 0 -7 -7z"/>
<path d="M4160 835 c0 -6 6 -35 14 -65 7 -30 17 -68 20 -84 6 -22 10 -26 16
-16 5 8 5 21 -1 31 -5 10 -9 30 -9 46 -1 26 -39 111 -40 88z"/>
<path d="M4453 811 c1 -11 7 -23 14 -26 11 -4 11 0 2 18 -16 31 -18 32 -16 8z"/>
<path d="M4420 770 c0 -7 3 -10 7 -7 3 4 3 10 0 14 -4 3 -7 0 -7 -7z"/>
<path d="M4465 730 c3 -5 8 -10 11 -10 3 0 2 5 -1 10 -3 6 -8 10 -11 10 -3 0
-2 -4 1 -10z"/>
<path d="M4490 730 c0 -7 3 -10 7 -7 3 4 3 10 0 14 -4 3 -7 0 -7 -7z"/>
<path d="M4330 710 c0 -23 4 -24 31 -10 27 15 24 30 -6 30 -18 0 -25 -5 -25
-20z"/>
<path d="M4454 702 c3 -5 0 -13 -6 -15 -9 -4 -10 -6 -1 -6 17 -1 25 16 12 25
-7 4 -9 3 -5 -4z"/>
<path d="M1930 690 c0 -5 5 -10 10 -10 6 0 10 5 10 10 0 6 -4 10 -10 10 -5 0
-10 -4 -10 -10z"/>
<path d="M4490 690 c0 -7 3 -10 7 -7 3 4 3 10 0 14 -4 3 -7 0 -7 -7z"/>
<path d="M30 674 c-10 -12 -8 -14 14 -14 28 0 35 14 12 23 -8 3 -20 -1 -26 -9z"/>
<path d="M153 643 c4 -3 10 -3 14 0 3 4 0 7 -7 7 -7 0 -10 -3 -7 -7z"/>
<path d="M1939 650 c-8 -39 -9 -210 -1 -210 14 0 27 189 13 203 -6 6 -11 9
-12 7z"/>
<path d="M4195 641 c-6 -11 9 -23 19 -14 9 9 7 23 -3 23 -6 0 -12 -4 -16 -9z"/>
<path d="M4440 640 c0 -5 4 -10 8 -10 4 0 9 -14 10 -32 1 -17 10 -37 20 -44
13 -11 14 -16 5 -22 -10 -7 -10 -12 0 -25 10 -15 12 -10 15 35 3 48 2 50 -14
37 -11 -9 -15 -9 -10 -1 4 6 4 18 -1 25 -8 12 -9 17 -12 37 0 6 -5 10 -11 10
-5 0 -10 -4 -10 -10z"/>
<path d="M83 603 c4 -3 10 -3 14 0 3 4 0 7 -7 7 -7 0 -10 -3 -7 -7z"/>
<path d="M4259 589 c-8 -127 -6 -147 7 -142 10 4 12 23 9 80 -4 74 -14 110
-16 62z"/>
<path d="M50 575 c0 -9 -7 -18 -15 -21 -11 -5 -13 -10 -5 -19 5 -6 7 -15 3
-18 -3 -4 -1 -7 5 -7 6 0 14 5 17 10 3 6 1 10 -5 10 -6 0 -5 11 5 30 9 17 11
30 5 30 -5 0 -10 -7 -10 -15z"/>
<path d="M103 583 c4 -3 10 -3 14 0 3 4 0 7 -7 7 -7 0 -10 -3 -7 -7z"/>
<path d="M123 553 c4 -3 10 -3 14 0 3 4 0 7 -7 7 -7 0 -10 -3 -7 -7z"/>
<path d="M4291 544 c0 -11 3 -14 6 -6 3 7 2 16 -1 19 -3 4 -6 -2 -5 -13z"/>
<path d="M70 540 c0 -7 3 -10 7 -7 3 4 3 10 0 14 -4 3 -7 0 -7 -7z"/>
<path d="M4207 533 c-4 -3 -7 -20 -6 -37 l1 -31 9 34 c10 33 8 47 -4 34z"/>
<path d="M4231 504 c0 -11 3 -14 6 -6 3 7 2 16 -1 19 -3 4 -6 -2 -5 -13z"/>
<path d="M89 461 c10 -7 5 -13 -23 -26 -37 -18 -48 -35 -22 -35 8 0 17 6 19
13 3 6 6 2 6 -10 1 -13 6 -23 12 -23 5 0 8 4 5 9 -4 5 0 12 6 14 10 4 9 8 -2
16 -12 9 -12 11 3 17 22 8 22 34 0 34 -14 0 -15 -2 -4 -9z"/>
<path d="M120 460 c0 -7 3 -10 7 -7 3 4 3 10 0 14 -4 3 -7 0 -7 -7z"/>
<path d="M160 430 c0 -7 3 -10 7 -7 3 4 3 10 0 14 -4 3 -7 0 -7 -7z"/>
<path d="M4245 409 c-4 -6 -5 -12 -2 -15 7 -7 37 7 37 17 0 13 -27 11 -35 -2z"/>
<path d="M1936 401 c-4 -7 -5 -15 -2 -18 9 -9 19 4 14 18 -4 11 -6 11 -12 0z"/>
<path d="M140 380 c0 -6 7 -10 15 -10 8 0 15 2 15 4 0 2 -7 6 -15 10 -8 3 -15
1 -15 -4z"/>
<path d="M4144 378 c-4 -7 -3 -8 4 -4 12 7 16 16 8 16 -3 0 -8 -5 -12 -12z"/>
<path d="M1926 344 c-3 -9 -6 -54 -6 -100 0 -54 -4 -83 -10 -79 -5 3 -10 1
-10 -5 0 -20 33 -6 37 15 2 11 5 55 7 98 2 75 -5 105 -18 71z"/>
<path d="M4161 248 c0 -32 2 -58 7 -58 4 0 6 19 4 43 -5 70 -10 76 -11 15z"/>
<path d="M4447 226 c-6 -16 2 -28 14 -20 12 7 11 34 0 34 -5 0 -11 -6 -14 -14z"/>
<path d="M4490 220 c0 -7 3 -10 7 -7 3 4 3 10 0 14 -4 3 -7 0 -7 -7z"/>
<path d="M3567 183 c-16 -8 -27 -17 -24 -19 7 -8 57 15 57 26 0 5 -1 10 -2 9
-2 -1 -16 -8 -31 -16z"/>
<path d="M4400 153 c-34 -31 -42 -45 -44 -81 -4 -51 11 -51 29 1 7 20 25 53
40 73 38 49 24 54 -25 7z"/>
<path d="M3350 145 c0 -9 6 -12 15 -9 8 4 12 10 9 15 -8 14 -24 10 -24 -6z"/>
<path d="M4484 145 c-4 -8 -11 -12 -17 -8 -6 4 -7 1 -2 -7 6 -9 2 -10 -16 -5
-19 6 -22 5 -12 -5 6 -7 18 -10 27 -7 14 6 42 47 31 47 -3 0 -8 -7 -11 -15z"/>
<path d="M4421 88 c6 -11 19 -23 30 -25 17 -5 17 -6 -3 -23 l-22 -17 23 -12
c25 -14 51 -8 51 10 0 9 -3 9 -14 0 -10 -9 -15 -8 -20 4 -3 8 -1 15 3 15 5 0
11 7 15 15 3 8 0 14 -6 12 -7 -1 -12 4 -13 12 0 8 -12 18 -27 22 -26 7 -27 6
-17 -13z"/>
<path d="M4480 100 c0 -5 5 -10 11 -10 5 0 7 5 4 10 -3 6 -8 10 -11 10 -2 0
-4 -4 -4 -10z"/>
<path d="M368 93 c7 -3 16 -2 19 1 4 3 -2 6 -13 5 -11 0 -14 -3 -6 -6z"/>
<path d="M415 90 c-3 -6 1 -7 9 -4 18 7 21 14 7 14 -6 0 -13 -4 -16 -10z"/>
<path d="M382 50 c-22 -20 -31 -57 -12 -45 6 3 10 11 10 17 0 6 7 20 17 30 22
24 12 23 -15 -2z"/>
<path d="M1927 63 c-11 -10 -8 -63 3 -63 6 0 10 16 10 35 0 36 -2 40 -13 28z"/>
<path d="M4393 26 c0 -8 6 -12 14 -9 7 3 10 9 7 14 -8 14 -21 11 -21 -5z"/>
<path d="M4343 3 c4 -3 10 -3 14 0 3 4 0 7 -7 7 -7 0 -10 -3 -7 -7z"/>
</g>
</svg>
